<?xml version="1.0" encoding="utf-8"?>
<!-- Generator: Adobe Illustrator 24.3.0, SVG Export Plug-In . SVG Version: 6.00 Build 0)  -->
<svg version="1.1" id="Layer_1" xmlns="http://www.w3.org/2000/svg" xmlns:xlink="http://www.w3.org/1999/xlink" x="0px" y="0px"
	 viewBox="0 0 2756.6 408" style="enable-background:new 0 0 2756.6 408;" xml:space="preserve">
<style type="text/css">
	.st0{fill:#002868;}
</style>
<g>
	<path class="st0" d="M364.8,103c33.4,0,61.6,10.4,84.6,31.3c23.3,20.2,35,49.9,35,89.3v175.9H392V241.8c0-17.4-4.4-30.8-13.3-40.2
		s-20.4-14.1-34.7-14.1c-16,0-29,5.1-38.9,15.4c-9.9,10.3-14.9,24.3-14.9,42v154.5h-91.9V241.8c0-16.7-4.5-29.9-13.6-39.7
		c-9.1-9.7-21.1-14.6-36-14.6c-15.3,0-27.8,5.1-37.6,15.4c-9.7,10.3-14.6,24.3-14.6,42v154.5H4.6V111.3h89.8v40.2
		c8-15,20.3-26.9,36.8-35.8s34-13.1,52.5-12.8c38.6,0.4,65.3,16.4,79.9,48c10.4-15.3,24.7-27.1,42.8-35.5
		C324.4,107.2,343.9,103,364.8,103z"/>
	<path class="st0" d="M1103.5,133.8V1.2h92.4v398.3h-89.8v-25.1c-21.6,21.6-48.4,32.4-80.4,32.4c-40.7,0-74.3-14.3-100.8-42.8
		c-26.8-28.9-40.2-65.1-40.2-108.6c0-43.1,13.4-79.2,40.2-108.1c27.1-28.9,60.7-43.3,100.8-43.3C1056.7,104,1082.6,114,1103.5,133.8
		z M1041.4,322.8c18.8,0,34.5-6.5,47-19.6s18.8-29.1,18.8-48.3c0-18.8-6.3-34.6-18.8-47.5c-12.5-12.9-28.2-19.3-47-19.3
		c-18.8,0-34.5,6.6-47,19.8c-12.5,12.9-18.8,28.5-18.8,47c0,19.1,6.3,35.3,18.8,48.5C1006.9,316.3,1022.6,322.8,1041.4,322.8z"/>
	<path class="st0" d="M1542.5,248.1c0,11.8-1,24.2-3.1,37.1h-205.7c10.4,30.3,33.9,45.4,70.5,45.4c31.3,0,60.4-8.9,87.2-26.6
		l36,62.1c-36.9,26.5-79.3,39.7-127.4,39.7c-50.8,0-90.1-14.4-118-43.3c-27.5-28.9-41.2-64.6-41.2-107c0-43.5,14.3-79.5,42.8-108.1
		c28.9-28.9,65.9-43.3,111.2-43.3c42.8,0,78.1,12.9,106,38.6C1528.6,168.4,1542.5,203.6,1542.5,248.1z M1394.8,177.6
		c-31.7,0-52.4,14.8-62.1,44.4h122.2c-3.8-13.9-11-24.8-21.4-32.6C1423,181.6,1410.1,177.6,1394.8,177.6z"/>
	<path class="st0" d="M1659.9,399.5H1592V116h65.3v39.2c17.4-31,43.7-46.5,78.8-46.5c11.8,0,23.1,1.9,33.9,5.7l-5.7,65.3
		c-12.2-3.8-23.1-5.7-32.9-5.7c-21.9,0-39.3,7.4-52.2,22.2c-12.9,14.8-19.3,36.5-19.3,65L1659.9,399.5L1659.9,399.5z"/>
	<path class="st0" d="M2014.9,152.1v-36h64.7v283.5h-64.7v-35c-24.7,27.8-55.5,41.8-92.4,41.8c-40.7,0-74.3-14.3-100.8-42.8
		s-39.7-64.2-39.7-107s13.2-78,39.7-105.5c26.8-27.8,60.4-41.8,100.8-41.8C1958.7,109.3,1989.5,123.5,2014.9,152.1z M2016.5,257.5
		c0-24-7.8-44.4-23.5-61.1s-35.7-25.1-60-25.1c-24.4,0-44.4,8.4-60,25.1c-15.3,17.1-23,37.4-23,61.1c0,24,7.7,44.6,23,61.6
		c15.7,16.7,35.7,25.1,60,25.1c24.4,0,44.4-8.4,60-25.1C2008.7,302.4,2016.5,281.9,2016.5,257.5z"/>
	<path class="st0" d="M2217,399.5h-67.9V116h66.8v39.7c7.7-14.6,19.3-26.1,35-34.5s33.8-12.5,54.3-12.5c31,0,57.2,10.3,78.8,30.8
		s32.4,49.6,32.4,87.2v172.8H2348v-154c0-23.3-5.6-41.6-16.7-54.8c-11.1-13.2-26.3-19.8-45.4-19.8c-20.2,0-36.7,7-49.6,21.1
		c-12.9,14.1-19.3,32.3-19.3,54.6V399.5z"/>
	<path class="st0" d="M2752,399.5h-84.6l-97.1-123.7l-20.9,18.8v104.9h-67.9V2.8h67.9v214.6L2658.6,116h86.7l-128,117L2752,399.5z"
		/>
	<path class="st0" d="M752.7,111.3v26.1C729.4,115.2,701,104,667.6,104c-41.1,0-74.8,14.3-101.3,42.8
		c-26.5,27.8-39.7,63.7-39.7,107.5c0,43.5,13.2,79.7,39.7,108.6c26.8,29.2,60.6,43.8,101.3,43.8c33.1,0,61.4-10.8,85.1-32.4v25.1
		h86.7V111.3H752.7z M721.4,331l-54.7-39.7L612.1,331l20.9-64.3L578.3,227h67.6l20.9-64.3l20.9,64.3h67.6l-54.7,39.7L721.4,331z"/>
</g>
</svg>
