<?xml version="1.0" encoding="utf-8"?>
<!-- Generator: Adobe Illustrator 24.3.0, SVG Export Plug-In . SVG Version: 6.00 Build 0)  -->
<svg version="1.1" id="Layer_1" xmlns="http://www.w3.org/2000/svg" xmlns:xlink="http://www.w3.org/1999/xlink" x="0px" y="0px"
	 viewBox="0 0 263.7 85.4" style="enable-background:new 0 0 263.7 85.4;" xml:space="preserve">
<style type="text/css">
	.st0{fill:#0A3161;}
</style>
<g>
	<path class="st0" d="M67.7,62.1c-2-1.2-3.8-2.9-5.3-5c-4.4,6-11.6,10-19.7,10c-13.4,0-24.4-10.9-24.4-24.4s10.9-24.4,24.4-24.4
		c8.3,0,15.6,4.1,20,10.5c1.6-2.2,3.6-3.9,5.8-5c-1.4-0.7-2.7-1.8-3.9-3c-3.2-3.2-4.2-7.1-3-11.9c-2.3-1.2-4.8-2.3-7.3-3
		c-2.5,4.3-7,7.1-11.6,7.1s-9.1-2.8-11.6-7.1c-2.6,0.8-5,1.8-7.3,3c1.2,4.8,0.2,8.6-3,11.9c-3.2,3.2-7.1,5.1-11.9,3.9
		c-1.3,2.3-2.3,4.8-3,7.3c4.3,2.5,7.1,6.1,7.1,10.7s-2.8,9.1-7.1,11.6c0.8,2.6,1.8,5,3,7.3c4.8-1.2,8.6-0.2,11.9,3s4.2,7.1,3,11.9
		c2.3,1.2,4.8,2.3,7.3,3c2.5-4.3,7-7.1,11.6-7.1s9.1,2.8,11.6,7.1c2.6-0.8,5-1.8,7.3-3c-1.2-4.8-0.2-8.6,3-11.9
		C65.5,63.6,66.6,62.8,67.7,62.1z"/>
	<g>
		<path class="st0" d="M55.4,51l2.4,2.5h-3.6l0,0h-2.7l0,0H48l1-2.5V40.3h-0.1l-5.6,10L37,39.9h-0.2v11l0,0l1,2.6h-3.6l0,0h-2.7l0,0
			H28l2.6-2.6l0,0V33.4l0,0L28,30.8h2.6l0,0h7.8l0,0h2.4l-1.6,1.6l2.1,4.1c1.1,1.9,1.8,3.7,1.9,3.7h0.2c0.1,0,0.9-1.7,1.9-3.7
			l2.2-4.2l-1.4-1.5h2.2l0,0h9.6l-2.4,2.5V51H55.4z"/>
		<path class="st0" d="M86.5,53.5L86.5,53.5h-5.9l0,0h-1.5l0.9-1.7l-0.8-2.1h-9.5L69,52.1l0.1-0.3l0.9,1.7h-1.6l0,0h-5.8l0,0h-0.9
			l2-2.7l6.9-17.9l-2.1-2.1h12l-2.1,2.1l7,18.1l1.8,2.6L86.5,53.5L86.5,53.5z M77.5,44.8l-1.6-4.5c-0.7-1.9-1.2-3.3-1.3-3.4h-0.1
			c0,0-0.6,1.4-1.3,3.3l-1.6,4.6C71.6,44.8,77.5,44.8,77.5,44.8z"/>
		<path class="st0" d="M115.8,42.2c0,7.3-5.5,11.3-12.7,11.3h-8.2l0,0h-3.6l2.5-2.6V33.4l-2.5-2.6h2.5l0,0h9.3
			C110.3,30.8,115.8,35,115.8,42.2z M109.3,42.2c0-3.9-2.3-5.5-6.2-5.5h-2.9v10.8h2.8C107,47.5,109.3,46.1,109.3,42.2z"/>
		<path class="st0" d="M140,49L140,49v4.5h-16.7l0,0h-3.6l2.2-2.2V33l-2.2-2.2h2.2l0,0h17.9v6l0,0v1.4l-2.6-1.4h-8.8v2.8h5.7
			l2.2-0.6v0.6l0,0V44l0,0v0.7l-2.4-0.7h-5.4v3.6h9.1l2.6-1V49H140z"/>
		<path class="st0" d="M168,53.5h-9.9l1.2-1.5l-3.4-5.7h-2.1h-0.9V51l1.4,2.5h-2.5l0,0h-4.2l0,0H144l2.5-2.6V33.4l-2.5-2.6h2.5l0,0
			h9.6c6.2,0,9.7,3.1,9.7,7.8c0,3.4-1.7,5.5-3.8,6.4l3.6,5.9L168,53.5z M159.2,39c0-1.5-0.9-2.4-2.8-2.4h-3.5v4.9h3.5
			C158.3,41.5,159.2,40.6,159.2,39z"/>
		<path class="st0" d="M196.7,53.5L196.7,53.5h-5.9l0,0h-1.5l0.9-1.7l-0.8-2.1H180l-0.9,2.4l0.1-0.3l0.9,1.7h-1.6l0,0h-5.8l0,0H172
			l2-2.7l6.9-17.9l-2.1-2.1h12l-2.1,2.1l7,18.1l1.8,2.6L196.7,53.5L196.7,53.5z M187.7,44.8l-1.6-4.5c-0.7-1.9-1.2-3.3-1.3-3.4h-0.1
			c0,0-0.6,1.4-1.3,3.3l-1.6,4.6C181.8,44.8,187.7,44.8,187.7,44.8z"/>
		<path class="st0" d="M226,33.4v17.5l2.5,2.6h-3.6l0,0h-4l0,0h-3.6l1.1-1.2l-8-11.6h-0.2c0,0,0,2.4,0,5v5.1l2.5,2.6h-3.6l0,0h-4.2
			l0,0h-3.6l2.4-2.5V33.3l-2.4-2.5h2.4l0,0h6.7l0,0h2.5l-1.5,1.5l7.8,10.8h0.1v-9.8l-2.4-2.5h2.4l0,0h6.5l0,0h2.5L226,33.4L226,33.4
			z"/>
		<path class="st0" d="M257.8,53.5h-7.1l0,0h-3.6l2.1-2.1l-4.5-7.3l-3.3,3.7V51l2.5,2.6h-3.6l0,0h-4.2l0,0h-3.6l2.5-2.5V33.3
			l-2.5-2.5h2.5l0,0h6.4l0,0h2.5l-2.5,2.6v6.8h0.2c0.2-0.2,1-1.2,2-2.4l4.9-5.7l-1.3-1.3h2.4l0,0h8l-8.2,8.9L257.8,53.5L257.8,53.5z
			"/>
	</g>
</g>
</svg>
