<?xml version="1.0" encoding="utf-8"?>
<!-- Generator: Adobe Illustrator 24.3.0, SVG Export Plug-In . SVG Version: 6.00 Build 0)  -->
<svg version="1.1" id="Layer_1" xmlns="http://www.w3.org/2000/svg" xmlns:xlink="http://www.w3.org/1999/xlink" x="0px" y="0px"
	 viewBox="0 0 500 400" style="enable-background:new 0 0 500 400;" xml:space="preserve">
<style type="text/css">
	.st0{fill:#CADDFF;}
	.st1{fill:#B6D3F7;}
	.st2{fill:#FFFFFF;}
	.st3{fill:#0A3161;}
	.st4{fill:#7EB2F1;}
	.st5{enable-background:new    ;}
</style>
<g id="Financial_adviser">
	<path class="st0" d="M438.1,79.7c-13-26.3-39-40.5-55.2-49.3C313.3-7.6,218.3,2.5,155.1,38C92.8,73,38.5,155.9,61.3,246
		c22.9,90.4,111.8,136.9,179.1,146.8c106.8,15.7,196.6-55.6,201.5-80.3c1.5-7.6,1.1-14.4,1.1-14.4c-1.9-17.8-16.6-28.4-20-69.1
		C416.7,154.2,461,125.8,438.1,79.7z"/>
	<g>
		<g>
			<g>
				<path class="st1" d="M441,330.2l-3.1,2.7c-2.4,2-5.6,2.9-8.7,2.2L96.8,265.9c-4.4-0.9-6.6-5.6-6.6-10.1L87.9,27.4
					c0-2.7,1.6-13.3,1.6-13.3s8.1-5.3,12.9-7.3c2.2-0.9,4.6-1.1,7-0.6l329.2,67.6c3.4,0.7,5.8,3.6,5.8,7.1l0.7,240.4
					C445.1,324.7,443.6,328,441,330.2z"/>
				<path class="st2" d="M430.9,335.6L97.8,267.2c-5.2-1.1-8.9-5.6-8.9-10.9L88.2,19c0-2.8,2.5-4.9,5.3-4.3l334,68.6
					c3.4,0.7,5.8,3.6,5.8,7.1l0.8,242.7C434,334.7,432.5,335.9,430.9,335.6z"/>
				<g>
					<path class="st3" d="M88.5,119.6c-0.4,0-0.7-0.3-0.7-0.7L87.5,19c0-1.5,0.7-3,1.9-4c1.2-1,2.7-1.4,4.3-1l100.6,20.6
						c0.4,0.1,0.6,0.4,0.5,0.8c-0.1,0.4-0.4,0.6-0.8,0.5L93.3,15.4c-1.1-0.2-2.2,0.1-3.1,0.8c-0.9,0.7-1.4,1.8-1.4,2.9l0.3,99.9
						C89.2,119.3,88.9,119.6,88.5,119.6C88.5,119.6,88.5,119.6,88.5,119.6z"/>
					<path class="st3" d="M259.3,300.6c0,0-0.1,0-0.1,0l-109.2-21.9c-0.4-0.1-0.6-0.4-0.6-0.8c0.1-0.4,0.4-0.6,0.8-0.6l109.2,21.9
						c0.4,0.1,0.6,0.4,0.6,0.8C259.9,300.3,259.6,300.6,259.3,300.6z"/>
					<path class="st3" d="M433.4,138.4c-0.4,0-0.7-0.3-0.7-0.7l-0.1-47.3c0-3.1-2.2-5.8-5.2-6.4L259.5,49.5
						c-0.4-0.1-0.6-0.4-0.5-0.8c0.1-0.4,0.5-0.6,0.8-0.5l167.8,34.5c3.7,0.8,6.3,4,6.4,7.8l0.1,47.3
						C434.1,138.1,433.8,138.4,433.4,138.4C433.4,138.4,433.4,138.4,433.4,138.4z"/>
				</g>
			</g>
			<g>
				<path class="st0" d="M402.1,101.7l-79.4-16.4c-2-0.4-3.4-2.1-3.5-4.2v0c-0.1-2.8,2.5-5,5.2-4.4l79.4,16.4c2,0.4,3.4,2.1,3.5,4.2
					l0,0C407.5,100.1,404.9,102.2,402.1,101.7z"/>
				<path class="st0" d="M393,118.9l-70.3-14.5c-2-0.4-3.4-2.1-3.5-4.2l0,0c-0.1-2.8,2.5-5,5.2-4.4l70.3,14.5c2,0.4,3.4,2.1,3.5,4.2
					v0C398.3,117.4,395.8,119.5,393,118.9z"/>
				<path class="st0" d="M375.2,134.7l-52.5-11.1c-2-0.4-3.4-2.1-3.5-4.2l0,0c-0.1-2.8,2.5-5,5.3-4.4l52.5,11.1
					c2,0.4,3.4,2.1,3.5,4.2l0,0C380.5,133.1,377.9,135.2,375.2,134.7z"/>
			</g>
		</g>
		<g>
			<path class="st1" d="M275.3,288.1c0,0-0.1,0-0.1,0l-77.2-15.8c-1-0.2-1.7-1-1.7-2l-0.3-86.4c0-0.6,0.3-1.2,0.7-1.6
				c0.5-0.4,1.1-0.6,1.7-0.4l97.8,20.1c1,0.2,1.7,1,1.7,2l0.2,76.8c0,0.4-0.3,0.7-0.7,0.7c0,0,0,0,0,0c-0.4,0-0.7-0.3-0.7-0.7
				l-0.2-76.8c0-0.3-0.2-0.6-0.5-0.6l-97.8-20.1c-0.2,0-0.4,0.1-0.5,0.1c-0.1,0.1-0.2,0.2-0.2,0.5l0.3,86.4c0,0.3,0.2,0.6,0.5,0.6
				l77.2,15.8c0.4,0.1,0.6,0.4,0.5,0.8C275.9,287.9,275.6,288.1,275.3,288.1z"/>
			<g>
				<path class="st0" d="M272.8,279.6l-7.6-1.6c-0.8-0.1-1.3-0.8-1.3-1.6l-0.1-45.7c0-1,0.9-1.8,1.9-1.6l7.6,1.6
					c0.8,0.1,1.3,0.8,1.3,1.6l0.1,45.7C274.7,279,273.7,279.8,272.8,279.6z"/>
				<path class="st1" d="M287.8,282.6l-7.6-1.6c-0.8-0.1-1.3-0.8-1.3-1.6l-0.2-53.3c0-1,0.9-1.8,1.9-1.6l7.6,1.6
					c0.8,0.1,1.3,0.8,1.3,1.6l0.2,53.3C289.8,282,288.8,282.8,287.8,282.6z"/>
				<path class="st0" d="M257.9,276.5l-7.4-1.5c-0.8-0.1-1.3-0.8-1.3-1.6l-0.1-22.2c0-1,0.9-1.8,1.9-1.6l7.4,1.5
					c0.8,0.1,1.3,0.8,1.3,1.6l0.1,22.2C259.8,275.9,258.9,276.7,257.9,276.5z"/>
				<path class="st0" d="M213.6,267.2l-7.4-1.5c-0.8-0.1-1.3-0.8-1.3-1.6l0-12.4c0-1,0.9-1.8,1.9-1.6l7.4,1.5
					c0.8,0.1,1.3,0.8,1.3,1.6l0,12.4C215.5,266.6,214.6,267.4,213.6,267.2z"/>
				<path class="st1" d="M243.1,273.7l-7.3-1.7c-0.8-0.1-1.3-0.8-1.3-1.6l-0.1-38.1c0-1,0.9-1.8,1.9-1.6l7.3,1.7
					c0.8,0.1,1.3,0.8,1.3,1.6l0.1,38.1C245,273.1,244.1,273.8,243.1,273.7z"/>
				<path class="st0" d="M228.6,270.5l-7.6-1.5c-0.8-0.1-1.3-0.8-1.3-1.6l-0.1-27.7c0-1,0.9-1.8,1.9-1.6l7.6,1.5
					c0.8,0.1,1.3,0.8,1.3,1.6l0.1,27.7C230.5,269.9,229.6,270.7,228.6,270.5z"/>
			</g>
			<g>
				<path class="st4" d="M259.8,228.1c-0.2,0-0.5-0.1-0.6-0.3c-0.2-0.3-0.1-0.8,0.2-1l25.3-15.9c0.3-0.2,0.8-0.1,1,0.2
					c0.2,0.3,0.1,0.8-0.2,1L260.2,228C260,228.1,259.9,228.1,259.8,228.1z"/>
				<path class="st4" d="M248.8,227.3c-0.2,0-0.4-0.1-0.5-0.2l-4-3.9c-0.3-0.3-0.3-0.7,0-1c0.3-0.3,0.7-0.3,1,0l4,3.9
					c0.3,0.3,0.3,0.7,0,1C249.2,227.3,249,227.3,248.8,227.3z"/>
				<path class="st4" d="M208.5,238.2c-0.2,0-0.5-0.1-0.6-0.3c-0.2-0.3-0.1-0.8,0.2-1l25-15.7c0.3-0.2,0.8-0.1,1,0.2
					c0.2,0.3,0.1,0.8-0.2,1l-25,15.7C208.8,238.2,208.6,238.2,208.5,238.2z"/>
				<g>
					<path class="st1" d="M244,217.9c0,2.3-1.8,4.1-4.1,4.1c-2.3,0-4.1-1.8-4.1-4.1c0-2.3,1.8-4.1,4.1-4.1
						C242.2,213.8,244,215.6,244,217.9z"/>
					<path class="st3" d="M239.9,222.7c-2.6,0-4.8-2.2-4.8-4.8c0-1.3,0.5-2.5,1.4-3.4c0.9-0.9,2.1-1.4,3.4-1.4c0,0,0,0,0,0
						c1.3,0,2.5,0.5,3.4,1.4c0.9,0.9,1.4,2.1,1.4,3.4v0C244.8,220.6,242.6,222.7,239.9,222.7C239.9,222.7,239.9,222.7,239.9,222.7z
						 M239.9,214.5C239.9,214.5,239.9,214.5,239.9,214.5c-0.9,0-1.8,0.4-2.4,1c-0.6,0.6-1,1.5-1,2.4c0,1.9,1.5,3.4,3.4,3.4
						c0,0,0,0,0,0c1.9,0,3.4-1.5,3.4-3.4v0c0-0.9-0.4-1.8-1-2.4C241.7,214.9,240.8,214.5,239.9,214.5z"/>
				</g>
				<g>
					<path class="st1" d="M289.5,211.4c0,2.3-1.8,4.1-4.1,4.1c-2.3,0-4.1-1.8-4.1-4.1c0-2.3,1.8-4.1,4.1-4.1
						C287.6,207.3,289.5,209.1,289.5,211.4z"/>
					<path class="st3" d="M285.3,216.2c-2.6,0-4.8-2.2-4.8-4.8c0-2.7,2.1-4.8,4.8-4.8c1.3,0,2.5,0.5,3.4,1.4
						c0.9,0.9,1.4,2.1,1.4,3.4c0,1.3-0.5,2.5-1.4,3.4C287.9,215.7,286.6,216.2,285.3,216.2C285.4,216.2,285.3,216.2,285.3,216.2z
						 M285.3,208C285.3,208,285.3,208,285.3,208c-1.9,0-3.4,1.5-3.4,3.4c0,0.9,0.4,1.8,1,2.4c0.6,0.6,1.5,1,2.4,1c0,0,0,0,0,0
						c0.9,0,1.8-0.4,2.4-1c0.6-0.6,1-1.5,1-2.4C288.7,209.5,287.2,208,285.3,208z"/>
				</g>
				<g>
					<path class="st0" d="M258.1,231.1c0,2.3-1.8,4.1-4.1,4.1c-2.3,0-4.1-1.8-4.1-4.1c0-2.3,1.8-4.1,4.1-4.1
						C256.2,227,258.1,228.8,258.1,231.1z"/>
					<path class="st3" d="M254,236c-1.3,0-2.5-0.5-3.4-1.4c-0.9-0.9-1.4-2.1-1.4-3.4c0-2.7,2.1-4.8,4.8-4.8c0,0,0,0,0,0
						c1.3,0,2.5,0.5,3.4,1.4c0.9,0.9,1.4,2.1,1.4,3.4s-0.5,2.5-1.4,3.4C256.5,235.4,255.3,235.9,254,236C254,236,254,236,254,236z
						 M254,227.7C253.9,227.7,253.9,227.7,254,227.7c-1.9,0-3.4,1.5-3.4,3.4c0,1.9,1.5,3.4,3.4,3.4c0,0,0,0,0,0c0.9,0,1.8-0.4,2.4-1
						c0.6-0.6,1-1.5,1-2.4c0-0.9-0.4-1.8-1-2.4C255.7,228.1,254.9,227.7,254,227.7z"/>
				</g>
				<g>
					<path class="st0" d="M212.7,237.6c0,2.3-1.8,4.1-4.1,4.1c-2.3,0-4.1-1.8-4.1-4.1c0-2.3,1.8-4.1,4.1-4.1
						C210.9,233.5,212.7,235.3,212.7,237.6z"/>
					<path class="st3" d="M208.6,242.4c-2.6,0-4.8-2.2-4.8-4.8c0-1.3,0.5-2.5,1.4-3.4c0.9-0.9,2.1-1.4,3.4-1.4c0,0,0,0,0,0
						c1.3,0,2.5,0.5,3.4,1.4c0.9,0.9,1.4,2.1,1.4,3.4v0C213.5,240.2,211.3,242.4,208.6,242.4C208.6,242.4,208.6,242.4,208.6,242.4z
						 M208.6,234.2C208.6,234.2,208.6,234.2,208.6,234.2c-0.9,0-1.8,0.4-2.4,1c-0.6,0.6-1,1.5-1,2.4c0,1.9,1.5,3.4,3.4,3.4
						c0,0,0,0,0,0c1.9,0,3.4-1.5,3.4-3.4v0c0-0.9-0.4-1.8-1-2.4C210.4,234.5,209.5,234.2,208.6,234.2z"/>
				</g>
			</g>
		</g>
		<g>
			<g>
				<path class="st4" d="M288.5,98.9v85.8c0,0.5,0.4,1,0.9,1.1l6.9,1.4c0.7,0.1,1.3-0.4,1.3-1.1l-0.2-86c0-0.5-0.4-1-0.9-1.1
					l-6.7-1.2C289.1,97.7,288.5,98.2,288.5,98.9z"/>
				<path class="st4" d="M270.3,110.6V181c0,0.5,0.4,1,0.9,1.1l6.9,1.4c0.7,0.1,1.3-0.4,1.3-1.1l-0.2-70.6c0-0.5-0.4-1-0.9-1.1
					l-6.7-1.2C270.9,109.4,270.3,109.9,270.3,110.6z"/>
				<path class="st1" d="M252,120v57.3c0,0.5,0.4,1,0.9,1.1l6.9,1.4c0.7,0.1,1.3-0.4,1.3-1.1l-0.2-57.5c0-0.5-0.4-1-0.9-1.1
					l-6.7-1.2C252.6,118.8,252,119.3,252,120z"/>
				<path class="st1" d="M233.7,127.9v45.6c0,0.5,0.4,1,0.9,1.1l6.9,1.4c0.7,0.1,1.3-0.4,1.3-1.1l-0.2-45.8c0-0.5-0.4-1-0.9-1.1
					l-6.7-1.2C234.4,126.7,233.7,127.3,233.7,127.9z"/>
				<path class="st0" d="M215.5,134.5v35.3c0,0.5,0.4,1,0.9,1.1l6.9,1.4c0.7,0.1,1.3-0.4,1.3-1.1l-0.2-35.5c0-0.5-0.4-1-0.9-1.1
					l-6.7-1.2C216.1,133.3,215.5,133.8,215.5,134.5z"/>
				<path class="st0" d="M197.2,143.4V166c0,0.5,0.4,1,0.9,1.1l6.9,1.4c0.7,0.1,1.3-0.4,1.3-1.1l-0.2-22.8c0-0.5-0.4-1-0.9-1.1
					l-6.7-1.2C197.8,142.2,197.2,142.7,197.2,143.4z"/>
			</g>
			<g>
				<path class="st4" d="M198.1,134.4c-0.3,0-0.6-0.2-0.7-0.5c-0.1-0.4,0.1-0.8,0.5-0.9c45.4-11.9,80.6-39.8,97-60.1
					c0.2-0.3,0.7-0.3,1-0.1c0.3,0.2,0.3,0.7,0.1,1c-3.9,4.8-14.9,17.3-33.8,30.6c-19.7,13.9-41.2,23.9-64,29.9
					C198.2,134.4,198.2,134.4,198.1,134.4z"/>
				<path class="st4" d="M296.1,79.5C296.1,79.5,296.1,79.5,296.1,79.5c-0.4,0-0.7-0.3-0.7-0.7l0.1-5.9l-5.8-0.2
					c-0.4,0-0.7-0.3-0.7-0.7c0-0.4,0.3-0.7,0.7-0.7l6.4,0.2c0.4,0,0.7,0.3,0.7,0.7l-0.1,6.6C296.8,79.2,296.5,79.5,296.1,79.5z"/>
			</g>
		</g>
	</g>
	<g>
		<g>
			<g>
				<path class="st4" d="M258.1,371.4l0,10.3c0,3.1-3.6,6.2-10.8,8.6c-14.4,4.8-38,5-53.1,0.5c-0.2-0.1-0.5-0.1-0.7-0.2
					c-7.7-2.4-11.5-5.6-11.5-8.8l0-10.3c0,3.2,3.8,6.4,11.5,8.8c0.2,0.1,0.5,0.2,0.7,0.2c15.1,4.5,38.7,4.3,53.1-0.5
					C254.5,377.6,258.1,374.5,258.1,371.4z"/>
				<path class="st1" d="M245.9,362.3c0.2,0.1,0.5,0.1,0.7,0.2c15.1,4.7,15.4,12.6,0.7,17.5c-14.4,4.8-38,5-53.1,0.5
					c-0.2-0.1-0.5-0.1-0.7-0.2c-15.1-4.7-15.4-12.6-0.7-17.5C207.2,358,230.8,357.8,245.9,362.3z"/>
			</g>
			<g>
				<path class="st4" d="M249.9,359.2l0,10.3c0,3.1-3.6,6.2-10.8,8.6c-14.4,4.8-38,5-53.1,0.5c-0.2-0.1-0.5-0.1-0.7-0.2
					c-7.7-2.4-11.5-5.6-11.5-8.8l0-10.3c0,3.2,3.8,6.4,11.5,8.8c0.2,0.1,0.5,0.2,0.7,0.2c15.1,4.5,38.7,4.3,53.1-0.5
					C246.3,365.5,249.9,362.4,249.9,359.2z"/>
				<path class="st1" d="M237.7,350.2c0.2,0.1,0.5,0.1,0.7,0.2c15.1,4.7,15.4,12.6,0.7,17.5c-14.4,4.8-38,5-53.1,0.5
					c-0.2-0.1-0.5-0.1-0.7-0.2c-15.1-4.7-15.4-12.6-0.7-17.5C199,345.9,222.6,345.7,237.7,350.2z"/>
			</g>
			<g>
				<g>
					<path class="st4" d="M256.8,344.5l0,10.3c0,3.1-3.6,6.2-10.8,8.6c-14.4,4.8-38,5-53.1,0.5c-0.2-0.1-0.5-0.1-0.7-0.2
						c-7.7-2.4-11.5-5.6-11.5-8.8l0-10.3c0,3.2,3.8,6.4,11.5,8.8c0.2,0.1,0.5,0.2,0.7,0.2c15.1,4.5,38.7,4.3,53.1-0.5
						C253.2,350.7,256.8,347.6,256.8,344.5z"/>
					<path class="st3" d="M218.6,367.8c-9.3,0-18.5-1.1-25.9-3.3c-0.3-0.1-0.5-0.2-0.7-0.2c-7.7-2.4-12-5.8-12-9.5l0-10.3
						c0,0,0,0,0,0v0c0-0.4,0.3-0.7,0.7-0.7c0,0,0,0,0,0c0.4,0,0.7,0.3,0.7,0.7c0,3,4,6,11,8.2c0.2,0.1,0.5,0.1,0.7,0.2
						c14.9,4.4,38.5,4.2,52.7-0.5c6.6-2.2,10.3-5.1,10.3-8v0c0-0.4,0.3-0.7,0.7-0.7c0,0,0,0,0,0c0.4,0,0.7,0.3,0.7,0.7c0,0,0,0,0,0
						l0,10.3c0,3.6-4,6.9-11.3,9.3C238.6,366.6,228.6,367.8,218.6,367.8z M181.3,348.1l0,6.7c0,3,4,6,11,8.2
						c0.2,0.1,0.5,0.1,0.7,0.2c14.9,4.4,38.5,4.2,52.7-0.5c6.6-2.2,10.3-5.1,10.3-8l0-6.7c-1.8,2.2-5.1,4.1-9.9,5.7
						c-14.6,4.9-38.2,5.1-53.6,0.5c-0.3-0.1-0.5-0.2-0.7-0.2C186.8,352.4,183.1,350.4,181.3,348.1z"/>
				</g>
				<g>
					<path class="st2" d="M244.5,335.4c0.2,0.1,0.5,0.1,0.7,0.2c15.1,4.7,15.4,12.6,0.7,17.5c-14.4,4.8-38,5-53.1,0.5
						c-0.2-0.1-0.5-0.1-0.7-0.2c-15.1-4.7-15.4-12.6-0.7-17.5C205.9,331.1,229.4,330.9,244.5,335.4z"/>
					<path class="st3" d="M218.5,357.6c-9.3,0-18.5-1.1-25.9-3.3c-0.3-0.1-0.5-0.2-0.7-0.2c-7.7-2.4-12-5.8-12-9.5
						c0-3.6,4-6.9,11.3-9.3c14.6-4.9,38.2-5.1,53.6-0.5c0.3,0.1,0.5,0.2,0.7,0.2c7.7,2.4,12,5.8,12,9.5c0,3.6-4,6.9-11.3,9.3
						C238.6,356.3,228.6,357.6,218.5,357.6z M218.9,332.9c-9.9,0-19.9,1.2-27.2,3.7c-6.6,2.2-10.4,5.1-10.3,8c0,3,4,5.9,11,8.1
						c0.2,0.1,0.5,0.1,0.7,0.2c14.9,4.4,38.5,4.2,52.7-0.5c6.6-2.2,10.4-5.1,10.3-8c0-3-4-5.9-11-8.1c-0.2-0.1-0.5-0.2-0.7-0.2h0
						C237.2,333.9,228,332.9,218.9,332.9z"/>
				</g>
				<path class="st4" d="M239.9,341.3l1.3,1.6l-4.6,0.6c0.7,1.1,0.6,1.9,0.2,2.6l-6.3,0.4c0.2-0.5,0.8-1.4-0.2-2.6
					c-0.4-0.5-1-0.8-1.6-0.9c-0.8-0.2-1.6-0.2-2.4-0.1c-1.7,0.2-2.3,1-2.9,2.6c-0.6,2.2-2.8,3.4-7.5,4.1c-3.1,0.4-6.2,0.4-8.7-0.2
					c-1.3-0.3-2.4-0.7-3.3-1.3l-5.3,0.7l-1.3-1.6l4.9-0.7c-0.7-1.1-0.7-2.3,0-3.1l6.5-0.4c-0.6,0.8-0.9,2-0.1,3c0.4,0.5,1,0.8,1.9,1
					c0.8,0.2,1.7,0.2,2.7,0.1c2-0.3,2.8-1,3.1-2.4c0.4-2,2.1-3.5,7.1-4.2c3-0.4,6-0.3,8.4,0.2c1.2,0.3,2.3,0.7,3.2,1.2L239.9,341.3z
					"/>
			</g>
		</g>
		<g>
			<g>
				<path class="st4" d="M344,370.3l0,10.8c0,3.3-3.8,6.5-11.4,9.1c-15.2,5.1-39.9,5.3-55.8,0.5c-0.3-0.1-0.5-0.2-0.8-0.2
					c-8-2.5-12.1-5.9-12.1-9.3l0-10.8c0,3.4,4,6.7,12.1,9.3c0.3,0.1,0.5,0.2,0.8,0.2c15.9,4.7,40.6,4.5,55.8-0.5
					C340.2,376.8,344,373.6,344,370.3z"/>
				<path class="st1" d="M331.1,360.8c0.3,0.1,0.5,0.2,0.8,0.2c15.8,5,16.1,13.2,0.7,18.3c-15.2,5.1-39.9,5.3-55.8,0.5
					c-0.3-0.1-0.5-0.2-0.8-0.2c-15.8-5-16.1-13.2-0.7-18.3C290.5,356.3,315.3,356.1,331.1,360.8z"/>
			</g>
			<g>
				<path class="st4" d="M346.2,355.4l0,10.8c0,3.3-3.8,6.5-11.4,9.1c-15.2,5.1-39.9,5.3-55.8,0.5c-0.3-0.1-0.5-0.2-0.8-0.2
					c-8-2.5-12.1-5.9-12.1-9.3l0-10.8c0,3.4,4,6.7,12.1,9.3c0.3,0.1,0.5,0.2,0.8,0.2c15.9,4.7,40.6,4.5,55.8-0.5
					C342.4,361.9,346.2,358.6,346.2,355.4z"/>
				<path class="st1" d="M333.3,345.9c0.3,0.1,0.5,0.2,0.8,0.2c15.8,5,16.1,13.2,0.7,18.3c-15.2,5.1-39.9,5.3-55.8,0.5
					c-0.3-0.1-0.5-0.2-0.8-0.2c-15.8-5-16.1-13.2-0.7-18.3C292.7,341.4,317.5,341.1,333.3,345.9z"/>
			</g>
			<g>
				<path class="st4" d="M339.8,340.3l0,10.8c0,3.3-3.8,6.5-11.4,9.1c-15.2,5.1-39.9,5.3-55.8,0.5c-0.3-0.1-0.5-0.2-0.8-0.2
					c-8-2.5-12.1-5.9-12.1-9.3l0-10.8c0,3.4,4,6.7,12.1,9.3c0.3,0.1,0.5,0.2,0.8,0.2c15.9,4.7,40.6,4.5,55.8-0.5
					C336.1,346.9,339.8,343.6,339.8,340.3z"/>
				<path class="st1" d="M327,330.8c0.3,0.1,0.5,0.2,0.8,0.2c15.8,5,16.1,13.2,0.7,18.3c-15.2,5.1-39.9,5.3-55.8,0.5
					c-0.3-0.1-0.5-0.2-0.8-0.2c-15.8-5-16.1-13.2-0.7-18.3C286.4,326.3,311.1,326.1,327,330.8z"/>
			</g>
			<g>
				<path class="st4" d="M347.7,327.9l0,10.8c0,3.3-3.8,6.5-11.4,9.1c-15.2,5.1-39.9,5.3-55.8,0.5c-0.3-0.1-0.5-0.2-0.8-0.2
					c-8-2.5-12.1-5.9-12.1-9.3l0-10.8c0,3.4,4,6.7,12.1,9.3c0.3,0.1,0.5,0.2,0.8,0.2c15.9,4.7,40.6,4.5,55.8-0.5
					C343.9,334.5,347.7,331.2,347.7,327.9z"/>
				<path class="st1" d="M334.8,318.4c0.3,0.1,0.5,0.2,0.8,0.2c15.8,5,16.1,13.2,0.7,18.3c-15.2,5.1-39.9,5.3-55.8,0.5
					c-0.3-0.1-0.5-0.2-0.8-0.2c-15.8-5-16.1-13.2-0.7-18.3C294.2,313.9,319,313.7,334.8,318.4z"/>
			</g>
			<g>
				<path class="st4" d="M338.4,315.6l0,10.8c0,3.3-3.8,6.5-11.4,9.1c-15.2,5.1-39.9,5.3-55.8,0.5c-0.3-0.1-0.5-0.2-0.8-0.2
					c-8-2.5-12.1-5.9-12.1-9.3l0-10.8c0,3.4,4,6.7,12.1,9.3c0.3,0.1,0.5,0.2,0.8,0.2c15.9,4.7,40.6,4.5,55.8-0.5
					C334.6,322.2,338.4,318.9,338.4,315.6z"/>
				<path class="st1" d="M325.5,306.1c0.3,0.1,0.5,0.2,0.8,0.2c15.8,5,16.1,13.2,0.7,18.3c-15.2,5.1-39.9,5.3-55.8,0.5
					c-0.3-0.1-0.5-0.2-0.8-0.2c-15.8-5-16.1-13.2-0.7-18.3C284.9,301.6,309.7,301.4,325.5,306.1z"/>
			</g>
			<g>
				<g>
					<path class="st4" d="M345.2,301.8l0,10.8c0,3.3-3.8,6.5-11.4,9.1c-15.2,5.1-39.9,5.3-55.8,0.5c-0.3-0.1-0.5-0.2-0.8-0.2
						c-8-2.5-12.1-5.9-12.1-9.3l0-10.8c0,3.4,4,6.7,12.1,9.3c0.3,0.1,0.5,0.2,0.8,0.2c15.9,4.7,40.6,4.5,55.8-0.5
						C341.4,308.3,345.2,305.1,345.2,301.8z"/>
					<path class="st3" d="M305,326.3c-9.7,0-19.4-1.1-27.2-3.5c-0.3-0.1-0.5-0.2-0.8-0.2c-8.1-2.5-12.6-6.1-12.6-9.9l0-10.8
						c0,0,0,0,0,0v0c0-0.4,0.3-0.7,0.7-0.7c0,0,0,0,0,0c0.4,0,0.7,0.3,0.7,0.7c0,3.1,4.2,6.3,11.6,8.6c0.3,0.1,0.5,0.2,0.8,0.2
						c15.6,4.7,40.5,4.4,55.3-0.5c6.9-2.3,10.9-5.4,10.9-8.4v0c0-0.4,0.3-0.7,0.7-0.7c0,0,0,0,0,0c0.4,0,0.7,0.3,0.7,0.7
						c0,0,0,0,0,0l0,10.8c0,3.7-4.2,7.2-11.8,9.7C326,325,315.5,326.3,305,326.3z M265.9,305.6l0,7.1c0,3.1,4.2,6.3,11.6,8.6
						c0.3,0.1,0.5,0.2,0.8,0.2c15.6,4.7,40.5,4.4,55.3-0.5c6.9-2.3,10.9-5.4,10.9-8.4l0-7.1c-1.8,2.3-5.4,4.4-10.4,6.1
						c-15.4,5.1-40,5.4-56.2,0.5c-0.3-0.1-0.5-0.2-0.8-0.2C271.6,310.1,267.8,308,265.9,305.6z"/>
				</g>
				<g>
					<path class="st2" d="M332.3,292.3c0.3,0.1,0.5,0.2,0.8,0.2c15.8,5,16.1,13.2,0.7,18.3c-15.2,5.1-39.9,5.3-55.8,0.5
						c-0.3-0.1-0.5-0.2-0.8-0.2c-15.8-5-16.1-13.2-0.7-18.3C291.7,287.8,316.5,287.6,332.3,292.3z"/>
					<path class="st3" d="M305,315.5c-9.7,0-19.4-1.1-27.2-3.5c-0.3-0.1-0.5-0.2-0.8-0.2c-8.1-2.5-12.5-6.1-12.6-9.9
						c0-3.7,4.2-7.2,11.8-9.8c15.4-5.1,40-5.4,56.2-0.5h0c0.3,0.1,0.5,0.2,0.8,0.2c8.1,2.5,12.5,6.1,12.6,9.9
						c0,3.7-4.2,7.2-11.8,9.8C326,314.2,315.5,315.5,305,315.5z M305.4,289.6c-10.4,0-20.9,1.3-28.6,3.9c-6.9,2.3-10.9,5.4-10.9,8.4
						c0,3.1,4.2,6.3,11.6,8.6c0.3,0.1,0.5,0.2,0.8,0.2c15.6,4.7,40.5,4.4,55.3-0.5c6.9-2.3,10.9-5.4,10.9-8.4
						c0-3.1-4.2-6.3-11.6-8.6c-0.3-0.1-0.5-0.2-0.8-0.2h0C324.6,290.7,315,289.6,305.4,289.6z"/>
				</g>
				<path class="st4" d="M315,294.2l-1.9,1.7c1.7,0.2,3,0.5,4.1,0.8c0.7,0.2,1.3,0.4,1.7,0.6l-3.8,2c-0.5-0.2-1.1-0.4-2.1-0.7
					c-0.9-0.2-2.1-0.5-3.6-0.6c-2.9-0.3-4.5,0.1-5.1,0.7c-0.7,0.6,0.4,1.2,3.5,2.2c4.4,1.4,5.4,2.7,3.4,4.4c-1.9,1.7-6.4,2.8-12,2.7
					l-2.2,1.9l-4.4-0.5l2.1-1.8c-1.7-0.2-3.2-0.5-4.4-0.8c-1-0.3-1.7-0.5-2.3-0.8l3.9-2.1c0.7,0.3,1.6,0.7,2.7,0.9
					c1.1,0.3,2.4,0.5,3.8,0.7c2.6,0.3,4.8,0,5.7-0.7c0.8-0.7-0.1-1.3-2.9-2.2c-4-1.2-6.2-2.5-4.1-4.4c1.9-1.7,6.2-2.7,11.5-2.6
					l2.1-1.8L315,294.2z"/>
			</g>
		</g>
	</g>
	<g>
		<g>
			<g>
				<g>
					<polygon class="st2" points="80.4,354.8 77.6,374.8 71.4,374.8 71.1,355.1 					"/>
					<path class="st3" d="M77.6,375.5h-6.2c-0.4,0-0.7-0.3-0.7-0.7l-0.3-19.7c0-0.4,0.3-0.7,0.7-0.7l9.3-0.3c0.2,0,0.4,0.1,0.5,0.2
						c0.1,0.2,0.2,0.4,0.2,0.6l-2.8,20C78.2,375.2,78,375.5,77.6,375.5z M72.1,374.1H77l2.6-18.6l-7.8,0.3L72.1,374.1z"/>
				</g>
				<g>
					<g>
						<path class="st2" d="M77.8,393.9c-2.9,0.3-7.8,0.5-13.4-0.4c-1.8-0.3-3-2.2-2.5-4c1.4-5,4.4-14.5,8.3-18.9l0.8,2.4l1.5-2.5
							c0.2-0.3,0.5-0.5,0.9-0.5l2.6,0c0.6-0.1,1.1,0.3,1.2,0.9l0.4,2.1l1.9-2.6l1.1,20C80.8,392.2,79.6,393.7,77.8,393.9z"/>
						<path class="st3" d="M72.8,394.9c-2.5,0-5.4-0.2-8.5-0.7c-1.1-0.2-2-0.8-2.6-1.7c-0.6-0.9-0.7-2-0.5-3.1
							c1.5-5.3,4.5-14.7,8.4-19.1c0.2-0.2,0.4-0.3,0.7-0.2c0.2,0,0.4,0.2,0.5,0.5l0.3,1l0.7-1.2c0.3-0.5,0.8-0.8,1.4-0.9
							c0,0,0,0,0.1,0l2.6,0c0.9-0.1,1.8,0.6,1.9,1.5l0.1,0.5l1-1.3c0.2-0.2,0.5-0.3,0.8-0.3c0.3,0.1,0.5,0.3,0.5,0.6l1.1,20
							c0.2,2.1-1.3,4-3.4,4.2l0,0C76.5,394.8,74.8,394.9,72.8,394.9z M77.8,393.9L77.8,393.9L77.8,393.9z M70,372.1
							c-3.3,4.5-6,12.8-7.3,17.6c-0.2,0.7-0.1,1.4,0.3,2c0.4,0.6,1,1,1.7,1.1c5.5,0.9,10.2,0.8,13.2,0.4l0,0
							c1.3-0.1,2.3-1.3,2.2-2.7l-1-18.1l-0.8,1.1c-0.2,0.2-0.5,0.3-0.7,0.3c-0.3-0.1-0.5-0.3-0.5-0.6l-0.4-2.1
							c0-0.2-0.2-0.4-0.4-0.3c0,0-0.1,0-0.1,0l-2.6,0c-0.1,0-0.2,0.1-0.3,0.2l-1.5,2.5c-0.1,0.2-0.4,0.4-0.7,0.3
							c-0.3,0-0.5-0.2-0.6-0.5L70,372.1z"/>
					</g>
					<path class="st3" d="M70.8,391.5c-2.2,0-4.6-0.2-7.1-0.9c-0.4-0.1-0.6-0.5-0.5-0.9c0.1-0.4,0.5-0.6,0.9-0.5
						c6.8,1.8,14,0,14.1,0c0.4-0.1,0.8,0.1,0.9,0.5c0.1,0.4-0.1,0.8-0.5,0.9C78.3,390.7,75.1,391.5,70.8,391.5z"/>
					<path class="st3" d="M75,383.6h-6.6c-0.4,0-0.7-0.3-0.7-0.7c0-0.4,0.3-0.7,0.7-0.7H75c0.4,0,0.7,0.3,0.7,0.7
						C75.7,383.3,75.4,383.6,75,383.6z"/>
				</g>
			</g>
			<g>
				<g>
					<polygon class="st2" points="132.7,356.6 135.3,379.9 145.1,381.9 144.5,354.6 					"/>
					<path class="st3" d="M145.1,382.6c0,0-0.1,0-0.1,0l-9.8-2.1c-0.3-0.1-0.5-0.3-0.6-0.6l-2.6-23.3c0-0.4,0.2-0.7,0.6-0.8l11.8-2
						c0.2,0,0.4,0,0.6,0.2c0.2,0.1,0.2,0.3,0.3,0.5l0.6,27.3c0,0.2-0.1,0.4-0.3,0.6C145.4,382.6,145.2,382.6,145.1,382.6z
						 M135.9,379.3l8.4,1.8l-0.6-25.6l-10.3,1.7L135.9,379.3z"/>
				</g>
				<g>
					<g>
						<path class="st2" d="M131,389.5c-0.1-3.6,0-10.1,2.4-13.7l7.8,2.8v-1.7c0-0.5,0.4-1,0.9-1l4.4-0.3c1.6-0.1,3.3,0.2,4.7,1
							c4.4,2.2,13.6,7.2,16.2,12.6c0.7,1.5-0.2,3.2-1.9,3.4c-4.2,0.5-13.9,1.2-31.9-0.3C132.2,392.2,131,391,131,389.5z"/>
						<path class="st3" d="M153.3,393.9c-5,0-11.5-0.2-19.6-0.9c-1.9-0.2-3.3-1.7-3.4-3.5c-0.1-3.7,0-10.4,2.6-14.1
							c0.2-0.3,0.5-0.4,0.8-0.3l6.9,2.5v-0.7c0-0.9,0.7-1.7,1.5-1.7l4.4-0.3c1.7-0.1,3.5,0.3,5.1,1c5.1,2.5,13.9,7.5,16.5,12.9
							c0.4,0.9,0.4,1.9-0.1,2.8c-0.5,0.9-1.3,1.5-2.4,1.6C163.3,393.6,159.4,393.9,153.3,393.9z M133.7,376.6
							c-2.1,3.5-2.2,9.5-2,12.8l0,0c0,1.2,0.9,2.1,2.1,2.2c17.9,1.4,27.5,0.8,31.7,0.3c0.6-0.1,1-0.4,1.3-0.9c0.3-0.5,0.3-1.1,0-1.6
							c-2.5-5.2-12-10.3-15.9-12.2c-1.4-0.7-2.9-1-4.4-0.9l-4.4,0.3c-0.1,0-0.2,0.1-0.2,0.3v1.7c0,0.2-0.1,0.4-0.3,0.6
							c-0.2,0.1-0.4,0.2-0.6,0.1L133.7,376.6z"/>
					</g>
					<path class="st3" d="M147.8,390.9c-4.2,0-8.9-0.2-13.9-0.8c-0.4,0-0.7-0.4-0.6-0.8c0-0.4,0.4-0.7,0.8-0.6
						c16.6,1.9,29.7-0.3,29.8-0.3c0.4-0.1,0.7,0.2,0.8,0.6c0.1,0.4-0.2,0.7-0.6,0.8C164,389.8,157.4,390.9,147.8,390.9z"/>
					<path class="st3" d="M153.8,384.5c-0.1,0-0.3,0-0.4-0.1l-7.5-5.4c-0.3-0.2-0.4-0.7-0.2-1c0.2-0.3,0.7-0.4,1-0.2l7.5,5.4
						c0.3,0.2,0.4,0.7,0.2,1C154.2,384.4,154,384.5,153.8,384.5z"/>
				</g>
			</g>
			<g>
				<g>
					<path class="st4" d="M135.8,205.3c0,0,15.1,96.9,12.1,161.3l-15.6,0.4c0,0-17.8-98.3-26.2-114.5c0,0-23,89.6-23.8,113.1
						c0,0-10.1,1-14.1-0.4c-2.2-22.7-2.6-48.9-2.7-63.7c-0.3-42.3,3.7-61.5,5.9-70.6c2-8.4,4.2-15.2,5.8-19.8l5.3-15.2L135.8,205.3z
						"/>
					<path class="st3" d="M132.3,367.7c-0.3,0-0.6-0.2-0.7-0.6c-0.2-0.9-16.8-92.2-25.3-112.5c-3.3,13.2-22.5,89.8-23.3,111.1
						c0,0.4-0.3,0.6-0.6,0.7c-0.4,0-10.3,1-14.4-0.5c-0.3-0.1-0.4-0.3-0.5-0.6c-1.6-16.9-2.5-37.7-2.7-63.7
						c-0.3-40.2,3.3-59.7,6-70.8c1.6-6.7,3.6-13.4,5.8-19.8l5.3-15.2c0.1-0.3,0.4-0.5,0.8-0.5l53.3,9.3c0.3,0.1,0.5,0.3,0.6,0.6
						c0.2,1,15.1,97.7,12.1,161.4c0,0.4-0.3,0.7-0.7,0.7L132.3,367.7C132.3,367.7,132.3,367.7,132.3,367.7z M106.1,251.8
						c0.3,0,0.5,0.1,0.6,0.4c8.1,15.7,24.5,105.1,26.1,114.1l14.4-0.4c2.7-61.2-10.9-152.4-12.1-160L83,196.7l-5.1,14.6
						c-2.2,6.4-4.2,13.1-5.8,19.7c-2.7,11-6.2,30.4-5.9,70.4c0.2,25.7,1,46.4,2.6,63.1c3.5,1,10.7,0.5,12.8,0.3
						c1.2-24.3,23.6-111.8,23.8-112.7C105.5,252,105.7,251.8,106.1,251.8C106,251.8,106.1,251.8,106.1,251.8z"/>
				</g>
				<path class="st3" d="M106,253.5c-0.1,0-0.1,0-0.2,0c-0.4-0.1-0.6-0.5-0.5-0.9c2.2-6.9,8.4-8.6,8.7-8.7c0.4-0.1,0.8,0.1,0.9,0.5
					c0.1,0.4-0.1,0.8-0.5,0.9c-0.2,0.1-5.7,1.6-7.7,7.7C106.6,253.3,106.3,253.5,106,253.5z"/>
			</g>
		</g>
		<g>
			<g>
				<g>
					<path class="st2" d="M175.7,91.6c2.1-13.2,7.7-13.2,6.7-10c-1,3.2-2.9,14.1-2.9,14.1L175.7,91.6z"/>
					<path class="st3" d="M179.9,97.2l-4.9-5.3l0.1-0.3c1.2-8,3.8-11.6,5.9-12.3c0.7-0.2,1.4-0.1,1.8,0.3c0.5,0.5,0.6,1.3,0.3,2.2
						c-1,3.1-2.9,13.9-2.9,14L179.9,97.2z M176.4,91.4l2.5,2.8c0.6-3.1,1.9-10.2,2.7-12.8c0.1-0.4,0.1-0.7,0-0.8c0,0-0.2-0.1-0.4,0
						C180.1,81,177.7,83.7,176.4,91.4z"/>
				</g>
				<g>
					<path class="st2" d="M180.1,93.8c0.6,0.6,1.7,1.9,1.6,3.4c-0.2,1.6-2.6,7-3.8,9.5c-0.4,0.9-0.6,1.8-0.6,2.7
						c-0.1,2.6,0.2,12.9-5.9,13.1c-2.6,0.1-2.6-4.7-2.2-10.7c0.4-6-0.6-3.4-2.7-9.4c-2-6,0.3-11.4,1.5-12.1c1.2-0.7,3,1.1,3,1.1
						s1-3.7,3.1-3.6c1,0,1.8,1.3,3.2,3.1C178.5,92.5,180,93.7,180.1,93.8z"/>
					<path class="st3" d="M171.3,123.3c-0.7,0-1.2-0.2-1.7-0.7c-1.5-1.5-1.5-5.2-1.2-10.7c0.2-3.4,0-3.8-0.7-4.9
						c-0.5-0.8-1.1-1.9-2-4.3c-2.1-6.2,0.2-12,1.8-12.9c1-0.6,2.2,0,3,0.6c0.5-1.3,1.6-3.2,3.4-3.2c1.1,0,1.9,1.1,3,2.5
						c0.2,0.3,0.4,0.6,0.7,0.9c1,1.2,2.2,2.2,2.6,2.6c0.1,0.1,0.2,0.2,0.2,0.2c0.7,0.7,2,2.2,1.8,4c-0.2,1.5-2.2,6.1-3.8,9.7
						c-0.4,0.8-0.6,1.6-0.6,2.5c0,0.2,0,0.4,0,0.6C177.9,113.6,177.8,123,171.3,123.3C171.4,123.2,171.3,123.3,171.3,123.3z
						 M168.6,90.9c-0.1,0-0.2,0-0.2,0.1c-0.7,0.4-3.2,5.3-1.2,11.2c0.8,2.3,1.4,3.3,1.8,4c0.8,1.4,1.1,2,0.9,5.7
						c-0.2,2.7-0.5,8.3,0.8,9.6c0.2,0.2,0.4,0.3,0.7,0.3c5-0.2,5.1-8.6,5.2-11.8c0-0.2,0-0.5,0-0.6c0-1,0.3-2.1,0.7-3
						c2.2-4.8,3.6-8.2,3.7-9.3c0.1-1.3-0.9-2.4-1.4-2.8c0,0-0.1-0.1-0.1-0.1c-0.5-0.4-1.7-1.4-2.8-2.8c-0.3-0.3-0.5-0.6-0.7-0.9
						c-0.8-1-1.5-1.9-1.9-1.9c-1.3,0-2.1,2.3-2.4,3.1l-0.3,1.2l-0.9-0.8C170,91.5,169.1,90.9,168.6,90.9z"/>
				</g>
				<path class="st3" d="M174.9,102.9c-1,0-2.4-0.6-3.7-2.2c-2.6-3.2-0.9-9.4-0.8-9.6c0.1-0.4,0.5-0.6,0.9-0.5
					c0.4,0.1,0.6,0.5,0.5,0.9c0,0.1-1.6,5.7,0.5,8.4c1.2,1.5,2.3,1.8,3,1.6c0.4-0.2,0.6-0.5,0.6-1.1c-0.1-1.9-1.2-3-1.2-3
					c-0.3-0.3-0.3-0.7,0-1c0.3-0.3,0.7-0.3,1,0c0.1,0.1,1.5,1.5,1.7,3.9c0.1,1.2-0.5,2.1-1.4,2.5
					C175.5,102.9,175.2,102.9,174.9,102.9z"/>
			</g>
			<g>
				<path class="st3" d="M90.5,124.4c-30.4,8.1-38,19.4-34.4,46.6c2.5,18.7,18.6,30.1,18.6,30.1s-8.5,23.2-3.1,26.2
					s12.9,4.7,21.2,1.7c16.6-6.1,42.5-13,50.3-7.6l0.8-39l29.1-5c0,0-5.7-32.2-28.1-47.1C130.6,120.9,104.5,120.7,90.5,124.4z"/>
				<path class="st3" d="M181.6,113.9l-16-0.5c0,0-4.3,39-9.9,44.9c-5.5,5.8-16.3,13.3-16.3,13.3s3.1,21.6,22.8,20.3
					C193.5,189.9,181.6,113.9,181.6,113.9z"/>
				<path class="st0" d="M100.9,198.3c-0.2,0-0.3-0.1-0.5-0.2c-13.8-13-20-32.3-20.1-32.5c-0.1-0.4,0.1-0.8,0.5-0.9
					c0.4-0.1,0.8,0.1,0.9,0.5c0.1,0.2,6.2,19.2,19.7,31.9c0.3,0.3,0.3,0.7,0,1C101.3,198.2,101.1,198.3,100.9,198.3z"/>
				<path class="st0" d="M93.6,211.8c-0.1,0-0.1,0-0.2,0c-13.6-4.3-20.8-10.5-21.1-10.7c-0.3-0.3-0.3-0.7-0.1-1
					c0.3-0.3,0.7-0.3,1-0.1c0.1,0.1,7.3,6.3,20.6,10.5c0.4,0.1,0.6,0.5,0.5,0.9C94.2,211.7,93.9,211.8,93.6,211.8z"/>
			</g>
			<g>
				<g>
					<path class="st4" d="M178.5,229.5l-5.7,9.1c-1.7,2.8-6.6,3.6-14.4,1.7c-15.5-3.7-36.6-16.6-47.6-28.9c-0.2-0.2-0.4-0.4-0.5-0.6
						c-5.5-6.4-7.1-11.4-5.4-14.2l5.7-9.1c-1.8,2.9-0.1,7.8,5.4,14.2c0.2,0.2,0.4,0.4,0.5,0.6c11,12.4,32.1,25.2,47.6,28.9
						C171.8,233.1,176.8,232.3,178.5,229.5z"/>
					<path class="st3" d="M165.8,242.1c-2.2,0-4.7-0.3-7.5-1c-15.7-3.7-36.8-16.5-48-29.1c-0.2-0.2-0.4-0.4-0.5-0.6
						c-5.5-6.4-7.5-11.8-5.4-15l5.6-9.1c0,0,0,0,0,0l0,0c0.2-0.3,0.6-0.4,1-0.2c0.3,0.2,0.4,0.6,0.2,1c-1.6,2.7,0.3,7.6,5.3,13.4
						c0.2,0.2,0.3,0.4,0.5,0.6c10.8,12.2,32,25.1,47.3,28.7c7.1,1.7,12.1,1.2,13.6-1.4l0,0c0.2-0.3,0.6-0.4,1-0.2
						c0.3,0.2,0.4,0.6,0.2,1c0,0,0,0,0,0l-5.6,9.1C172.2,241.1,169.5,242.1,165.8,242.1z M109.2,191l-3.7,6
						c-1.6,2.7,0.3,7.6,5.3,13.4c0.2,0.2,0.3,0.4,0.5,0.6c10.8,12.2,32,25.1,47.3,28.7c7.1,1.7,12.1,1.2,13.6-1.4l3.7-6
						c-2.8,1-6.9,0.9-12-0.3c-15.7-3.7-36.8-16.5-48-29.1c-0.2-0.2-0.4-0.4-0.5-0.6C111.7,197.9,109.6,194,109.2,191z"/>
				</g>
				<g>
					<path class="st2" d="M172.6,214.7c0.2,0.2,0.4,0.4,0.5,0.6c10.8,12.6,6.8,19.7-9,15.9c-15.5-3.7-36.6-16.6-47.6-28.9
						c-0.2-0.2-0.4-0.4-0.5-0.6c-10.8-12.6-6.8-19.7,9-15.9C140.5,189.5,161.6,202.3,172.6,214.7z"/>
					<path class="st3" d="M171.4,233c-2.2,0-4.7-0.3-7.5-1c-15.7-3.7-36.8-16.5-48-29.1c-0.2-0.2-0.4-0.4-0.5-0.6
						c-5.5-6.4-7.5-11.7-5.5-15c1.9-3.2,7.3-3.9,15.2-2.1c15.7,3.7,36.8,16.5,48,29.1l0,0c0.2,0.2,0.4,0.4,0.5,0.6
						c5.5,6.4,7.5,11.7,5.5,15C177.8,231.9,175.2,233,171.4,233z M117.6,185.5c-3.2,0-5.5,0.8-6.4,2.4c-1.6,2.7,0.3,7.5,5.3,13.4
						c0.2,0.2,0.3,0.4,0.5,0.6c10.8,12.2,32,25.1,47.3,28.7c7.1,1.7,12.1,1.2,13.7-1.4c1.6-2.7-0.3-7.6-5.3-13.4
						c-0.2-0.2-0.3-0.4-0.5-0.6c-10.8-12.2-32-25.1-47.2-28.7C122,185.8,119.6,185.5,117.6,185.5z"/>
				</g>
				<path class="st4" d="M167,216.8l0.3,2.1l-4.4-2c0.1,1.4-0.5,2.1-1.2,2.4l-5.8-3.1c0.5-0.3,1.5-0.8,1.3-2.4
					c-0.1-0.7-0.5-1.2-1-1.7c-0.6-0.6-1.4-1.1-2.1-1.4c-1.7-0.7-2.6-0.4-4,0.7c-1.8,1.7-4.4,1.5-8.9-0.5c-3-1.3-5.7-3.1-7.7-5
					c-1-1-1.7-2-2.2-3l-5.1-2.3l-0.3-2.1l4.8,2.1c-0.1-1.4,0.7-2.4,1.7-2.8l6,3.3c-1,0.4-1.9,1.2-1.7,2.6c0.1,0.6,0.5,1.3,1.1,1.9
					c0.6,0.6,1.4,1.1,2.3,1.5c1.9,0.8,3,0.7,4.1-0.4c1.5-1.5,3.8-2,8.7,0.1c2.9,1.3,5.5,3,7.4,4.8c0.9,0.9,1.7,1.9,2.1,2.8
					L167,216.8z"/>
			</g>
			<g>
				<path class="st2" d="M104.9,214.9c0,0-2.8-0.7-7.5-4c-3.6-2.5,2.3-14.4,5.9-9.2c2.9,4.3,5.2,5.6,5.2,5.6L122,207
					c1.4,0,2.5,1.1,2.6,2.5v0c0,1.4-1.1,2.6-2.5,2.6l-6,0.1c-0.8,0-1.4,0.9-1,1.7l0,0c0.6,1.2,1.4,2.2,2.4,3.1
					c1.8,1.6,4.9,4.2,8.3,6.5c1.6,1,1.3,3.3-0.6,3.5l-11.9-3.6c-3-0.9-5.5-3-7-5.8L104.9,214.9z"/>
				<path class="st3" d="M125.1,227.6c-0.1,0-0.1,0-0.2,0l-11.9-3.6c-3.2-1-5.9-3.2-7.4-6.1l-1.2-2.4c-0.9-0.3-3.5-1.3-7.4-4
					c-1.3-0.9-1.7-2.7-1.2-5c0.6-3,2.6-6.3,4.9-6.7c0.8-0.2,2.1,0,3.1,1.6c2.4,3.5,4.2,4.9,4.8,5.3l13.3-0.2c0,0,0,0,0.1,0
					c1.7,0,3.2,1.4,3.2,3.1c0,0.9-0.3,1.7-0.9,2.3c-0.6,0.6-1.4,1-2.3,1l-6,0.1c-0.2,0-0.3,0.1-0.4,0.2c0,0.1-0.1,0.2,0,0.4
					c0.6,1.1,1.3,2,2.2,2.9c1.6,1.4,4.7,4.1,8.2,6.4c1.1,0.7,1.6,1.9,1.3,3C127.1,226.8,126.2,227.5,125.1,227.6
					C125.1,227.6,125.1,227.6,125.1,227.6z M101.3,201c-0.1,0-0.2,0-0.3,0c-1.5,0.3-3.3,2.9-3.8,5.6c-0.4,1.7-0.1,3.1,0.7,3.6
					c4.6,3.1,7.3,3.9,7.3,3.9c0.2,0.1,0.3,0.2,0.4,0.4l1.4,2.6c1.4,2.6,3.7,4.6,6.5,5.4l11.7,3.6c0.4-0.1,0.7-0.3,0.8-0.7
					c0.1-0.4-0.1-1.1-0.7-1.5c-3.5-2.3-6.7-5.1-8.4-6.5c-1-0.9-1.9-2-2.5-3.3c-0.3-0.6-0.3-1.2,0.1-1.8c0.3-0.5,0.9-0.9,1.5-0.9
					l6-0.1c0.5,0,1-0.2,1.3-0.6c0.3-0.4,0.5-0.8,0.5-1.3c0-1-0.9-1.8-1.8-1.8c0,0,0,0,0,0l-13.5,0.2c-0.1,0-0.3,0-0.4-0.1
					c-0.1-0.1-2.4-1.4-5.4-5.8C102.1,201.2,101.6,201,101.3,201z"/>
			</g>
		</g>
		<g>
			<path class="st3" d="M124.1,109.2c0.5,0.8-0.5,2.4-0.5,2.4c0,0,0.5-4.6,3-5.7c1.5-0.7,2.2,0.4,4.4,0.1c2.3-0.3,4.9-2.1,5.9-4.6
				c1.2-3.1-0.5-6-1.6-7.8c-1.1-1.8-2.4-3.9-4.7-4.7c-3-1.1-4.3,0.6-7.8-0.5c-2.8-0.9-2.6-2.2-5.1-2.9c-2.1-0.6-8.1-0.3-9.5,2.9
				c-0.9,2,1,3.3,0.1,6.3c-0.6,1.8-1.4,2-2.1,3.4c-1.6,3.5,0.4,9.6,4.1,11.6C115.5,112.4,123,107.3,124.1,109.2z"/>
			<g>
				<path class="st2" d="M121.9,111.6l1.2,9.7c0.2,1.9,1.6,3.4,3.4,3.8l3.4,1.1c0.7,0.2,0.8,1.1,0.2,1.5c-8.6,5.6-20.5,5.5-28.7-0.7
					l-1-0.7c-0.6-0.5-0.4-1.5,0.4-1.7l4.2-0.9c1.8-0.4,3.2-1.8,3.5-3.6l2.6-14.3L121.9,111.6z"/>
				<path class="st3" d="M116.1,132.6c-5.4,0-10.8-1.7-15.2-5l-1-0.7c-0.5-0.4-0.8-1-0.6-1.7c0.1-0.6,0.6-1.1,1.3-1.3l4.2-0.9
					c1.5-0.3,2.7-1.5,2.9-3.1l2.6-14.3c0-0.2,0.2-0.4,0.4-0.5c0.2-0.1,0.4-0.1,0.6,0l10.9,5.9c0.2,0.1,0.3,0.3,0.4,0.5l1.2,9.7
					c0.2,1.6,1.3,2.9,2.8,3.3l3.4,1.1c0.6,0.2,1,0.7,1.1,1.3c0.1,0.6-0.2,1.2-0.7,1.5C126.1,131.2,121.1,132.6,116.1,132.6z
					 M111.5,106.8l-2.4,13.4c-0.4,2.1-2,3.7-4,4.2l-4.2,0.9c-0.1,0-0.2,0.1-0.2,0.2c0,0.1,0,0.2,0.1,0.2l1,0.7
					c7.9,6,19.4,6.3,27.9,0.7c0,0,0.1,0,0.1-0.1c0,0,0-0.1-0.1-0.1l-3.4-1.1c-2.1-0.5-3.6-2.3-3.8-4.4l-1.1-9.4L111.5,106.8z"/>
			</g>
			<g>
				<path class="st2" d="M112.2,107.7c0,0-3.8-1.4-2.4-4.6c1.4-3.2,3.8-0.8,3.8-0.8s2.2-7.8,6.8-4.7c4.6,3.1,8.9,4.2,8.9,4.2
					s-1.6,7.9-4.5,13.1c-1.7,3.2-4,5.4-6.6,4.3C111.1,116.2,112.2,107.7,112.2,107.7L112.2,107.7z"/>
				<path class="st3" d="M119.5,120.1c-0.6,0-1.1-0.1-1.6-0.3c-6.5-2.6-6.6-9.6-6.5-11.6c-0.7-0.4-1.9-1.1-2.4-2.4
					c-0.4-0.9-0.3-1.9,0.1-2.9c0.5-1.2,1.3-1.9,2.2-2c0.7-0.1,1.4,0.1,1.9,0.4c0.5-1.4,1.8-4,3.8-4.8c1.2-0.4,2.4-0.2,3.7,0.6
					c4.4,3,8.7,4.1,8.7,4.1c0.4,0.1,0.6,0.5,0.5,0.8c-0.1,0.3-1.7,8-4.6,13.3C123.3,119,121.2,120.1,119.5,120.1z M111.8,102.2
					c-0.1,0-0.1,0-0.2,0c-0.4,0.1-0.8,0.5-1.2,1.2c-0.3,0.7-0.3,1.3-0.1,1.8c0.5,1.2,2.1,1.8,2.1,1.8c0.3,0.1,0.5,0.4,0.4,0.7
					c0,0.3-1,8,5.6,10.7c1.9,0.8,3.8-0.6,5.7-4c2.3-4.2,3.8-10.3,4.3-12.3c-1.4-0.4-4.8-1.7-8.5-4.1c-0.9-0.6-1.7-0.7-2.4-0.5
					c-1.8,0.7-3,3.7-3.3,4.8c-0.1,0.2-0.3,0.4-0.5,0.5c-0.2,0.1-0.5,0-0.7-0.2C112.9,102.6,112.4,102.2,111.8,102.2z"/>
			</g>
		</g>
	</g>
	<g>
		<path class="st3" d="M366.2,126.3c-4.4-0.2-9.1,4-8,10.5c0.9,5.3,6.6,6.4,9.4,9.1c9.1,8.5,12.1,36.3,25.5,43.6
			c10.6,5.8,29.5,3.6,39.1-9.6c9.1-12.5,10-30.2-1.2-37.8c-10-6.8-15.8,2.6-26.4-3.6c-10.4-6.2-8.3-13.2-14.7-15.6
			C381.1,119.7,378.8,127,366.2,126.3z"/>
		<path class="st4" d="M350.2,195.6c-4.7,28.7-5.2,29.1-5.9,32.1c0,0-1.9,8.5-2.4,16.6c-0.4,7.1,0.9,49.5,22.8,58.8
			c7.9,3.4,10.2-2.8,27.1-2.2c17.3,0.7,20.8,6.8,28.3,4.7c16.3-4.7,21.6-39.7,20.7-61.3c-0.7-17.6-9.5-34.3-27-67.5
			c-2.7-5.1-6.9-12.8-13.8-13.8c-3.2-0.5-4.4,0-17.1,3.5c-13.8,3.8-17.3-0.2-23.2,3.5C353.6,173.9,352.5,181.2,350.2,195.6z"/>
		<g>
			<g>
				<polygon class="st2" points="375.3,361.7 375.3,375.6 382,375.2 383.3,361.7 				"/>
				<path class="st3" d="M375.3,376.3c-0.2,0-0.4-0.1-0.5-0.2c-0.1-0.1-0.2-0.3-0.2-0.5v-13.9c0-0.4,0.3-0.7,0.7-0.7h8
					c0.2,0,0.4,0.1,0.5,0.2c0.1,0.1,0.2,0.3,0.2,0.5l-1.3,13.5c0,0.3-0.3,0.6-0.7,0.6L375.3,376.3
					C375.4,376.3,375.3,376.3,375.3,376.3z M376,362.4v12.4l5.3-0.3l1.2-12.1H376z"/>
			</g>
			<g>
				<path class="st2" d="M383,392.9c-2.7,0.3-7.2,0.5-12.4-0.4c-1.7-0.3-2.8-2-2.3-3.6c1.3-4.6,3.9-13.2,5.9-17.4l1.2,2.3l1-2.4
					c0.2-0.3,0.5-0.5,0.8-0.5l3.5,0c1.1,0,1.1,0.6,1.3,1l0.7,1.8l1-2.5l1.8,18.5C385.7,391.3,384.6,392.7,383,392.9z"/>
				<path class="st3" d="M378.4,393.8c-2.3,0-4.9-0.2-7.8-0.7c-1-0.2-1.9-0.8-2.4-1.6c-0.5-0.9-0.7-1.9-0.4-2.9
					c1.1-3.8,3.8-13.1,6-17.5c0.1-0.2,0.4-0.4,0.6-0.4c0.3,0,0.5,0.1,0.6,0.4l0.5,1l0.4-1c0,0,0-0.1,0-0.1c0.3-0.5,0.8-0.8,1.3-0.8
					c0,0,0,0,0.1,0l3.5,0c0,0,0,0,0,0c1.5,0,1.8,0.9,1.9,1.4l0.1,0.2l0.3-0.8c0.1-0.3,0.4-0.5,0.8-0.4c0.3,0,0.6,0.3,0.6,0.6
					l1.8,18.5c0.2,2-1.2,3.7-3.2,3.9c0,0,0,0,0,0C381.8,393.7,380.2,393.8,378.4,393.8z M383,392.9L383,392.9L383,392.9z M374.3,373
					c-2,4.6-4.3,12.6-5.3,16c-0.2,0.6-0.1,1.2,0.3,1.8c0.3,0.5,0.9,0.9,1.5,1c5.1,0.9,9.4,0.7,12.2,0.4l0,0c1.2-0.1,2.1-1.2,1.9-2.4
					l-1.5-15.6c-0.1,0.2-0.3,0.3-0.6,0.3c0,0,0,0,0,0c-0.3,0-0.6-0.2-0.7-0.5l-0.8-2c-0.1-0.4-0.1-0.4-0.6-0.4l-3.5,0
					c-0.1,0-0.2,0.1-0.2,0.1l-1,2.3c-0.1,0.2-0.3,0.4-0.6,0.4c-0.3,0-0.5-0.1-0.7-0.4L374.3,373z"/>
			</g>
			<path class="st3" d="M377.6,390.7c-1.8,0-3.9-0.2-6.2-0.8c-0.4-0.1-0.6-0.5-0.5-0.9c0.1-0.4,0.5-0.6,0.9-0.5
				c6.2,1.6,11.4,0,11.5,0c0.4-0.1,0.8,0.1,0.9,0.5c0.1,0.4-0.1,0.8-0.5,0.9C383.6,389.9,381.1,390.7,377.6,390.7z"/>
			<path class="st3" d="M380.4,383.5h-6.1c-0.4,0-0.7-0.3-0.7-0.7c0-0.4,0.3-0.7,0.7-0.7h6.1c0.4,0,0.7,0.3,0.7,0.7
				C381.1,383.2,380.7,383.5,380.4,383.5z"/>
			<g>
				<polygon class="st2" points="424.4,354.4 426.4,371.1 432.7,370.9 432.7,354.4 				"/>
				<path class="st3" d="M426.4,371.8c-0.4,0-0.7-0.3-0.7-0.6l-2-16.7c0-0.2,0-0.4,0.2-0.5c0.1-0.2,0.3-0.2,0.5-0.2h8.2
					c0.4,0,0.7,0.3,0.7,0.7v16.5c0,0.4-0.3,0.7-0.7,0.7L426.4,371.8C426.4,371.8,426.4,371.8,426.4,371.8z M425.2,355.1l1.8,15.3
					l4.9-0.2v-15.1H425.2z"/>
			</g>
			<g>
				<path class="st2" d="M424.9,367.1c0,0-0.8,7.4-0.6,10.4c0.2,2.1,3.1,8.6,4.8,12.1c0.7,1.4,2,2.4,3.4,2.4
					c1.8,0.1,4.2,0.2,6.2,0.2c2.7,0,4.6-3.1,3.6-5.9c-0.9-2.6-2.3-6-4.5-9.5c-1.7-2.7-4.1-9.9-4.1-9.9h-5.1l-1,4.2L424.9,367.1z"/>
				<path class="st3" d="M438.7,392.9C438.7,392.9,438.7,392.9,438.7,392.9c-2,0-4.5-0.1-6.2-0.2c-1.7-0.1-3.2-1.2-4-2.8
					c-2.1-4.5-4.7-10.2-4.8-12.3c-0.3-3,0.5-10.2,0.6-10.6c0-0.3,0.2-0.5,0.5-0.6c0.3-0.1,0.6,0,0.8,0.3l1.7,2.6l0.6-2.7
					c0.1-0.3,0.4-0.5,0.7-0.5h5.1c0.3,0,0.6,0.2,0.7,0.5c0,0.1,2.4,7.2,4.1,9.8c1.9,3.1,3.5,6.3,4.6,9.7c0.6,1.7,0.3,3.6-0.7,5
					C441.4,392.2,440.1,392.9,438.7,392.9z M425.4,369.1c-0.2,2.4-0.5,6.4-0.4,8.3c0.1,1.5,1.8,5.8,4.7,11.9c0.6,1.2,1.6,2,2.8,2
					c1.7,0.1,4.2,0.2,6.1,0.2c0,0,0,0,0,0c0.9,0,1.8-0.5,2.4-1.3c0.8-1.1,1-2.4,0.5-3.7c-1.1-3.2-2.6-6.4-4.5-9.4
					c-1.5-2.3-3.5-7.9-4-9.6h-4l-0.9,3.7c-0.1,0.3-0.3,0.5-0.6,0.5c-0.3,0-0.6-0.1-0.7-0.3L425.4,369.1z"/>
			</g>
			<path class="st3" d="M434.8,389.7c-2.3,0-4.3-3.1-4.5-3.4l-2.9-5.6c-0.2-0.3,0-0.8,0.3-0.9c0.3-0.2,0.8,0,0.9,0.3l2.9,5.6
				c0.4,0.7,2,2.7,3.3,2.7c0,0,0,0,0,0l4.4,0c0,0,0,0,0,0c0.4,0,0.7,0.3,0.7,0.7c0,0.4-0.3,0.7-0.7,0.7L434.8,389.7
				C434.8,389.7,434.8,389.7,434.8,389.7z"/>
			<path class="st3" d="M438,383.7h-5.6c-0.4,0-0.7-0.3-0.7-0.7c0-0.4,0.3-0.7,0.7-0.7h5.6c0.4,0,0.7,0.3,0.7,0.7
				C438.7,383.4,438.4,383.7,438,383.7z"/>
			<path class="st3" d="M364.6,223c0,0,0.7,51.1,2.8,84.3c2.1,33.2,6.4,58.7,6.4,58.7s7.3,2.6,12.1,1.2c0,0,4-29.2,4.9-39
				c0.9-9.9-1.5-14.7-1.7-22.8c-0.2-8.1,3.5-43.7,3.5-43.7s27.5,80.5,30.6,98.3c0,0,6.6,1.1,11.3-1.4c0,0,0.1-31.7-0.5-36.6
				c-1.2-9.1-8.3-18-9.6-27.6c-1.3-9.6-2-33.8-5.5-48.3c-3.5-14.5-10.4-30.8-10.4-30.8L364.6,223z"/>
			<path class="st1" d="M410,242.1c-0.1,0-0.2,0-0.3-0.1c-3.7-1.5-6.8-4-9.2-7.4c-0.2-0.3-0.2-0.8,0.2-1c0.3-0.2,0.8-0.2,1,0.2
				c2.3,3.2,5.2,5.5,8.6,6.9c0.4,0.1,0.5,0.6,0.4,0.9C410.5,242,410.2,242.1,410,242.1z"/>
			<path class="st1" d="M368.6,241.9c-0.2,0-0.4-0.1-0.5-0.2c-0.3-0.3-0.3-0.7,0-1c2.9-2.8,3.3-4.3,4-7l0.2-0.7
				c0.1-0.4,0.5-0.6,0.9-0.5c0.4,0.1,0.6,0.5,0.5,0.9l-0.2,0.7c-0.7,2.7-1.2,4.6-4.4,7.6C368.9,241.9,368.7,241.9,368.6,241.9z"/>
		</g>
		<g>
			<g>
				<path class="st3" d="M301.1,170.6c-0.3,0-0.5-0.1-0.6-0.4l-26.3-53.9c-0.2-0.3,0-0.8,0.3-0.9c0.3-0.2,0.8,0,0.9,0.3l26.3,53.9
					c0.2,0.3,0,0.8-0.3,0.9C301.3,170.6,301.2,170.6,301.1,170.6z"/>
				<g>
					<g>
						<path class="st2" d="M291.4,161.7c1.5,1.2,3.8,4.6,4,5.3c1.4,5.1,6.2,0.9,6.2,0.9s-3.9-6.7-7-9
							C288.7,154.5,288.2,159.1,291.4,161.7z"/>
						<path class="st3" d="M297.9,170.3c-0.3,0-0.6,0-0.9-0.1c-1.1-0.3-2-1.3-2.4-2.9c-0.2-0.5-2.3-3.7-3.7-4.9l0,0
							c-1.9-1.6-2.7-4-1.8-5.2c0.6-0.7,2.1-1.5,5.8,1.3c3.1,2.3,7,8.9,7.1,9.2c0.2,0.3,0.1,0.7-0.1,0.9
							C301.7,168.7,299.9,170.3,297.9,170.3z M291.8,161.2c1.6,1.3,4,4.8,4.2,5.6c0.3,1.1,0.8,1.8,1.4,2c1,0.3,2.4-0.5,3.1-1
							c-1-1.6-4.1-6.4-6.5-8.2c-2.3-1.8-3.6-1.9-3.9-1.5C289.9,158.4,290.3,160,291.8,161.2L291.8,161.2z"/>
					</g>
					<g>
						<path class="st2" d="M299.3,159.8c0.4,1.5,1.7,3.3,2.9,4.3c0.5,0.4,1.1,0.8,1.7,1.1c4.8,2.4,0.1,8.5,9.4,15.5
							c0.3,0.2-2.5,6.6-3.3,8.2c-3.2-4-6.6-10.8-9.5-11.5c-5.5-1.2-5.7-4.6-6.1-6.2c-1-4.4,4.1-5.4,4.1-5.4s-0.5-0.4-1.9-2.5
							C294.5,160.2,297.5,153.2,299.3,159.8z"/>
						<path class="st3" d="M310,189.6c-0.2,0-0.4-0.1-0.5-0.3c-1-1.3-2.1-2.9-3.1-4.4c-2-3-4.3-6.5-6.1-6.9
							c-5.5-1.2-6.2-4.6-6.6-6.3c0-0.1-0.1-0.3-0.1-0.4c-0.3-1.4-0.1-2.6,0.5-3.7c0.8-1.2,2.1-1.9,3-2.2c-0.3-0.4-0.7-1-1.2-1.7
							c-1.2-1.8-0.9-4.8,0.1-6.4c0.6-1,1.4-1,1.7-1c1,0.1,1.7,1.2,2.3,3.2l0,0c0.4,1.3,1.5,3,2.7,4c0.5,0.4,1.1,0.8,1.6,1
							c2.4,1.2,2.7,3.1,3.2,5.4c0.5,2.8,1.2,6.4,6.3,10.2c0.5,0.4,0.6,0.6-1,4.4c-0.8,1.9-1.7,3.9-2.1,4.7
							C310.5,189.5,310.3,189.6,310,189.6C310,189.6,310,189.6,310,189.6z M297.5,157.7c0,0-0.2,0.1-0.5,0.6
							c-0.6,1.2-0.7,3.4,0.1,4.6c1.2,1.8,1.7,2.3,1.7,2.3c0.2,0.2,0.3,0.5,0.2,0.7c-0.1,0.3-0.3,0.5-0.5,0.5c0,0-2.2,0.5-3.2,2
							c-0.5,0.7-0.6,1.6-0.3,2.6c0,0.1,0.1,0.3,0.1,0.4c0.4,1.7,0.9,4.2,5.5,5.3c2.3,0.5,4.5,3.9,6.9,7.5c0.8,1.2,1.6,2.4,2.4,3.4
							c1-2,2.4-5.5,2.7-6.6c-5.3-4.1-6-8-6.5-10.9c-0.4-2.1-0.7-3.5-2.4-4.4c-0.6-0.3-1.2-0.7-1.8-1.2c-1.4-1.1-2.7-3.1-3.1-4.7l0,0
							C298.1,157.9,297.6,157.7,297.5,157.7z M312.9,181.3L312.9,181.3L312.9,181.3z"/>
					</g>
					<path class="st3" d="M300,173.5c-0.2,0-0.5,0-0.8-0.1c-0.4-0.1-0.6-0.5-0.5-0.8c0.1-0.4,0.5-0.6,0.8-0.5c0.5,0.1,1,0,1.3-0.3
						c0.6-0.6,0.9-1.9,0.6-3.1c-0.2-1-0.6-1.6-1.2-1.9c-1.2-0.6-2.9,0.1-3,0.1c-0.4,0.2-0.8,0-0.9-0.4c-0.2-0.4,0-0.8,0.4-0.9
						c0.1,0,2.4-1,4.2-0.1c1,0.5,1.7,1.5,1.9,2.9c0.3,1.3,0.2,3.3-1,4.4C301.5,173.1,300.9,173.5,300,173.5z"/>
				</g>
			</g>
			<path class="st4" d="M354.8,195.1c4.8-15.5,9.1-29.2,9.1-29.2s-6.6-1.6-10.6,1.8c-4,3.4-19.5,17.7-32.2,14.6
				c-5.8-1.4-8-4.5-9.6-5.6l-7.2,7.9c1.4,2.9,3.7,8.7,11.4,13.6c15.4,9.8,28.6,1.4,28.6,1.4L354.8,195.1z"/>
			<g>
				<path class="st2" d="M361.8,166c0,0,14.2-1.8,30.4-2.3c0,0,21.2,56.6,21.2,60.2c0,3.6-10.2,11.6-20.2,5.2
					c-16.8-10.7-27.3-7.1-35.6-5.1C345.1,226.9,361.8,166,361.8,166z"/>
				<path class="st3" d="M401,232.3c-2.5,0-5.3-0.6-8.3-2.5c-15.4-9.8-25.3-7.4-33.3-5.5c-0.6,0.1-1.2,0.3-1.8,0.4
					c-1.3,0.3-2.5,0-3.4-0.9c-3-3.1-2.7-13.8,0.7-31.9c2.6-13.3,6-25.9,6-26.1c0.1-0.3,0.3-0.5,0.6-0.5c0.1,0,14.5-1.8,30.4-2.3
					c0.3,0,0.6,0.2,0.7,0.5c2.2,5.8,21.3,56.9,21.2,60.4c0,2-2.3,4.6-5.5,6.4C407.2,231.1,404.4,232.3,401,232.3z M371.1,221.1
					c6.1,0,13.3,1.7,22.3,7.5c6.4,4.1,12.2,1.7,14.4,0.5c3-1.6,4.7-3.9,4.7-5.1c0-2.5-12.5-36.8-21-59.5
					c-14.1,0.4-26.8,1.9-29.3,2.2c-3.8,14.2-12.3,50.7-7,56.2c0.5,0.6,1.2,0.7,2,0.5c0.6-0.1,1.2-0.3,1.7-0.4
					C362.7,222,366.6,221.1,371.1,221.1z"/>
			</g>
			<g>
				<path class="st2" d="M339.1,177.7h31.7c1,0,1.9,0.8,2.1,1.9l7.2,44.4c0.2,1-0.5,1.9-1.5,1.9h-31.7c-1,0-1.9-0.8-2.1-1.9
					l-7.2-44.4C337.5,178.5,338.1,177.7,339.1,177.7z"/>
				<path class="st3" d="M378.6,226.5h-31.7c-1.3,0-2.6-1.1-2.8-2.5l-7.2-44.4c-0.1-0.7,0.1-1.4,0.5-1.9c0.4-0.5,1-0.8,1.7-0.8h31.7
					c1.4,0,2.6,1.1,2.8,2.5l7.2,44.4c0.1,0.7-0.1,1.4-0.5,1.9C379.9,226.2,379.3,226.5,378.6,226.5z M339.1,178.4
					c-0.3,0-0.5,0.1-0.6,0.3c-0.2,0.2-0.2,0.5-0.2,0.8l7.2,44.4c0.1,0.7,0.8,1.3,1.4,1.3h31.7c0.3,0,0.5-0.1,0.6-0.3
					c0.2-0.2,0.2-0.5,0.2-0.8l-7.2-44.4c-0.1-0.7-0.8-1.3-1.4-1.3H339.1z"/>
			</g>
			<g>
				<g>
					<path class="st2" d="M375.5,195.6l0.5,3.4c0,1.5-1.3,2.7-2.8,2.4l-8.3-1.5c-1.3-0.2-2.4,0.8-2.4,2.1c0,0.7,0.4,1.6,1.3,2.5
						c0.4,0.4,7.8,6,13.4,5c0.2,0,5.5,2.9,5.7,2.8c0.9-0.6,1.5-2.7,1.7-4.4c0-0.1-4.4-2.6-4.8-4c-0.5-1.4-0.1-2.4-0.6-4.8
						C378.6,196.3,375.5,195.6,375.5,195.6z"/>
					<path class="st3" d="M383,212.9c-0.4,0-1.1-0.4-3.6-1.7c-0.8-0.4-1.9-1-2.2-1.1c-6.2,1-13.8-5.1-13.8-5.2
						c-0.9-0.9-1.4-1.9-1.5-2.9c0-0.8,0.3-1.6,0.9-2.2c0.6-0.6,1.5-0.8,2.3-0.6l8.3,1.5c0.5,0.1,1,0,1.4-0.4
						c0.4-0.3,0.6-0.8,0.6-1.3l-0.5-3.3c0-0.2,0-0.5,0.2-0.6c0.2-0.2,0.4-0.2,0.6-0.2c0.1,0,3.5,0.8,4.2,4c0.3,1.3,0.3,2.2,0.4,3
						c0,0.7,0.1,1.2,0.2,1.8c0.2,0.7,2.8,2.5,3.7,3c1,0.6,1.2,0.8,1.1,1.3c-0.2,1.7-0.8,4-2,4.9C383.3,212.9,383.2,212.9,383,212.9z
						 M377.3,208.7c0.3,0,0.7,0.2,2.8,1.3c0.9,0.5,2.1,1.1,2.7,1.4c0.5-0.6,0.9-1.9,1.1-3.3c-0.1-0.1-0.3-0.2-0.5-0.3
						c-2-1.3-3.9-2.6-4.3-3.8c-0.3-0.8-0.3-1.4-0.3-2.2c0-0.7-0.1-1.6-0.3-2.7c-0.3-1.4-1.3-2.1-2.1-2.5l0.3,2.2c0,0,0,0.1,0,0.1
						c0,0.9-0.4,1.8-1.1,2.4c-0.7,0.6-1.7,0.9-2.6,0.7l-8.3-1.5c-0.4-0.1-0.8,0-1.1,0.3c-0.3,0.3-0.5,0.6-0.4,1c0,0.7,0.4,1.4,1.1,2
						c0.7,0.7,7.7,5.7,12.8,4.8C377.2,208.7,377.2,208.7,377.3,208.7z M384.2,208.3L384.2,208.3L384.2,208.3z"/>
				</g>
				<path class="st4" d="M382.9,205.5c3.6,0.6,4.1,2.4,8.7,0.4c10.2-4.5,8.2-20.1,6.5-27.9c-0.4-1.6-0.8-3.2-1.3-4.6
					c-0.9-2.7,10-5.2,12-3.1c2.3,2.5,4.8,5.7,6.9,9.6c6.3,11.6,8.4,37.6-12.8,42.3c-11.2,2.5-20-6.7-23.2-10.6
					C378.9,210.7,381.9,205.3,382.9,205.5z"/>
			</g>
			<path class="st3" d="M411.9,219.6c-0.2,0-0.4-0.1-0.5-0.2c-0.3-0.3-0.2-0.7,0.1-1c8.5-7.2,7.8-19.3,7.8-19.5
				c0-0.4,0.3-0.7,0.7-0.7c0.4,0,0.7,0.3,0.7,0.7c0,0.5,0.8,12.9-8.3,20.6C412.2,219.5,412.1,219.6,411.9,219.6z"/>
		</g>
		<g>
			<g>
				<path class="st2" d="M374.6,144.2c-0.3,0.2-0.7,0.1-0.9-0.3c-0.7-1.6-1.7-4.7-3.9-5.2c-2.8-0.6-7.2-1.5-7.6,0.7
					c-0.3,1.9,0.1,5.2-2,7.6c-0.2,0.2,0,0.6,0.2,0.8l1.3,1.1c0.3,0.2,0.5,0.9,0.5,1.2c0.1,1,1.2,4.7,1.5,4.9
					c0.7,0.6,4.2,0.3,4.2,0.3l1.9,8.2c0.1,0.4-0.1,0.7-0.5,0.8l-3.3,1.1c0,0,2.7,3.8,11,3.2c5.4-0.4,9.3-4.1,9.3-4.1
					s-10.4-1.5-11.8-13.8c0-0.3,0.1-0.5,0.3-0.7c0.8-0.6,3.1-2.5,2.7-4.3C377.2,143.9,375.7,143.6,374.6,144.2z"/>
				<path class="st3" d="M375.5,169.6c-7.3,0-9.8-3.4-9.9-3.5c-0.1-0.2-0.2-0.4-0.1-0.6c0.1-0.2,0.2-0.4,0.4-0.4l3.3-1.1
					c0,0,0,0,0.1,0l-1.8-7.7c-1.3,0.1-3.4,0-4.1-0.5c-0.7-0.5-1.7-4.7-1.8-5.4c0-0.2-0.2-0.6-0.3-0.7l-1.3-1.1
					c-0.3-0.2-0.5-0.6-0.5-0.9c0-0.3,0.1-0.6,0.2-0.8c1.4-1.6,1.5-3.8,1.6-5.5c0-0.6,0.1-1.2,0.2-1.7c0.1-0.6,0.4-1.1,0.9-1.4
					c1.3-0.8,3.6-0.8,7.5,0.1c2.3,0.5,3.4,3.4,4.2,5.2l0.1,0.3c0.7-0.4,1.6-0.5,2.3-0.1c0.8,0.4,1.4,1.2,1.6,2.3
					c0.4,2.1-1.6,4.1-2.9,5c0,0,0,0,0,0.1c1.3,11.6,10.8,13.1,11.2,13.2c0.3,0,0.5,0.2,0.6,0.5c0.1,0.3,0,0.5-0.2,0.7
					c-0.2,0.2-4.2,4-9.7,4.3C376.6,169.5,376,169.6,375.5,169.6z M367.4,165.9c1.2,1,4.2,2.6,9.7,2.2c3.5-0.2,6.3-2,7.8-3.1
					c-3-0.9-9.9-4.1-11-14c-0.1-0.5,0.2-1,0.6-1.3c0.6-0.5,2.7-2.2,2.4-3.6c-0.1-0.7-0.4-1.1-0.8-1.3c-0.3-0.1-0.7-0.1-1.1,0.1l0,0
					c-0.3,0.2-0.7,0.2-1.1,0.1c-0.4-0.1-0.6-0.4-0.8-0.7l-0.2-0.5c-0.6-1.5-1.6-4-3.2-4.4c-3.4-0.8-5.6-0.9-6.4-0.3
					c-0.2,0.1-0.3,0.3-0.3,0.5c-0.1,0.4-0.1,1-0.2,1.6c-0.1,1.9-0.3,4.2-1.8,6.2l1.2,1c0.5,0.4,0.7,1.3,0.8,1.7
					c0.1,0.9,1,3.9,1.3,4.5c0.4,0.2,2.1,0.3,3.7,0.2c0.3,0,0.7,0.2,0.7,0.5l1.9,8.2c0.1,0.3,0,0.7-0.1,1c-0.2,0.3-0.5,0.5-0.8,0.6
					L367.4,165.9z M364.4,154.6L364.4,154.6L364.4,154.6z M374.6,144.2L374.6,144.2L374.6,144.2z"/>
			</g>
		</g>
	</g>
	<g class="st5">
		<g>
			<path class="st1" d="M225.6,101.3l10.1-5.9l0,10.3l-10,5.8c0,0-0.1,0-0.1,0L225.6,101.3z"/>
			<path class="st3" d="M225.6,112.4l-0.4-0.2c-0.2-0.1-0.4-0.4-0.4-0.6l0-10.6l11.5-6.7l0,12L225.6,112.4z M226.3,101.7l0,8.7
				l8.7-5l0-8.7L226.3,101.7z"/>
		</g>
		<g>
			<polygon class="st0" points="196.9,72 206.9,66.1 221,69 211,74.8 			"/>
			<path class="st3" d="M211,75.5c0,0-0.1,0-0.1,0l-14.1-2.8c-0.3-0.1-0.5-0.3-0.6-0.6c0-0.3,0.1-0.6,0.3-0.7l10.1-5.9
				c0.1-0.1,0.3-0.1,0.5-0.1l14.1,2.8c0.3,0.1,0.5,0.3,0.6,0.6c0,0.3-0.1,0.6-0.3,0.7l-10.1,5.9C211.2,75.5,211.1,75.5,211,75.5z
				 M198.8,71.7l12,2.4l8.2-4.8l-12-2.4L198.8,71.7z"/>
		</g>
		<g>
			<path class="st1" d="M237.1,82.8c-0.4,0.2-0.8,0.4-1.3,0.6c-0.1,0-0.2,0.1-0.3,0.1c-0.5,0.2-1.1,0.3-1.7,0.3c-0.1,0-0.2,0-0.3,0
				c-0.1,0-0.3,0-0.4,0c-0.1,0-0.2,0-0.3,0c-0.2,0-0.3,0-0.5,0c-0.1,0-0.2,0-0.3,0c-0.3,0-0.5,0-0.8-0.1c-0.4-0.1-0.8-0.1-1.2-0.2
				c-0.1,0-0.1,0-0.2,0c-0.3-0.1-0.7-0.2-1-0.3c0,0,0,0,0,0c-0.3-0.1-0.7-0.2-1-0.4c0,0-0.1,0-0.1-0.1c-0.3-0.1-0.6-0.3-0.9-0.4
				c-0.1,0-0.1-0.1-0.2-0.1c-0.3-0.2-0.6-0.3-0.8-0.5c-0.1,0-0.1-0.1-0.2-0.1c-0.2-0.1-0.4-0.3-0.6-0.5c-0.1-0.1-0.2-0.2-0.3-0.3
				c-0.2-0.2-0.3-0.3-0.5-0.5c-0.1-0.1-0.2-0.2-0.2-0.2c-0.2-0.3-0.5-0.5-0.7-0.8c-0.2-0.3-0.4-0.6-0.6-0.9c0,0-0.1-0.1-0.1-0.1
				c-0.2-0.3-0.3-0.6-0.5-0.9c0-0.1-0.1-0.1-0.1-0.2c-0.1-0.2-0.2-0.4-0.3-0.6c-0.1-0.2-0.1-0.4-0.2-0.5c-0.1-0.3-0.2-0.5-0.3-0.8
				c0-0.1-0.1-0.2-0.1-0.3c-0.1-0.4-0.2-0.8-0.3-1.1c0-0.1,0-0.2,0-0.3c-0.1-0.3-0.1-0.6-0.1-0.9c0-0.1,0-0.3-0.1-0.4
				c0-0.3-0.1-0.6-0.1-0.9c0-0.2,0-0.3,0-0.5c0-0.4,0-1.3,0-1.8l-10.1,6.3c0,0.4,0,0.7,0,1.1c0,0.1,0,0.1,0,0.2c0,0.2,0,0.3,0,0.5
				c0,0.2,0,0.3,0,0.5c0,0.1,0,0.3,0,0.4c0,0.1,0,0.3,0.1,0.4c0,0.1,0,0.2,0,0.3c0,0.2,0.1,0.4,0.1,0.7c0,0.1,0,0.2,0,0.3
				c0,0,0,0.1,0,0.1c0.1,0.3,0.1,0.7,0.2,1c0,0,0,0,0,0.1c0,0.1,0.1,0.2,0.1,0.3c0.1,0.2,0.1,0.4,0.2,0.6c0,0.1,0,0.1,0.1,0.2
				c0.1,0.2,0.1,0.4,0.2,0.5c0.1,0.1,0.1,0.3,0.2,0.4c0,0.1,0.1,0.1,0.1,0.2c0,0.1,0.1,0.1,0.1,0.2c0.2,0.3,0.3,0.6,0.5,0.9
				c0,0,0.1,0.1,0.1,0.1c0.2,0.3,0.4,0.6,0.6,0.9c0.2,0.3,0.4,0.5,0.7,0.8c0.1,0.1,0.2,0.2,0.2,0.2c0.1,0.1,0.2,0.2,0.3,0.3
				c0.1,0.1,0.1,0.1,0.2,0.1c0.1,0.1,0.2,0.2,0.3,0.3c0.1,0.1,0.2,0.1,0.2,0.2c0.1,0.1,0.2,0.2,0.4,0.3c0.1,0,0.1,0.1,0.2,0.1
				c0,0,0.1,0,0.1,0.1c0.2,0.1,0.4,0.2,0.6,0.4c0.1,0,0.1,0.1,0.2,0.1c0.1,0,0.1,0.1,0.2,0.1c0.1,0,0.2,0.1,0.2,0.1
				c0.2,0.1,0.4,0.2,0.6,0.3c0,0,0.1,0,0.1,0c0,0,0.1,0,0.1,0.1c0.1,0.1,0.2,0.1,0.4,0.1c0.2,0.1,0.4,0.1,0.6,0.2c0,0,0,0,0,0
				c0,0,0,0,0,0c0.2,0.1,0.4,0.1,0.6,0.2c0.1,0,0.3,0.1,0.4,0.1c0.1,0,0.1,0,0.2,0c0,0,0.1,0,0.1,0c0.3,0.1,0.6,0.1,0.8,0.1
				c0.1,0,0.1,0,0.2,0c0.2,0,0.4,0.1,0.7,0.1c0,0,0.1,0,0.1,0c0.1,0,0.2,0,0.3,0c0.1,0,0.2,0,0.3,0c0,0,0.1,0,0.1,0
				c0.1,0,0.2,0,0.3,0c0.1,0,0.2,0,0.3,0c0.1,0,0.1,0,0.2,0c0.1,0,0.2,0,0.3,0c0.1,0,0.1,0,0.2,0l0,0l0,0c0.2,0,0.5-0.1,0.7-0.1l0,0
				c0.2,0,0.5-0.1,0.7-0.2l0,0c0.1,0,0.1,0,0.2-0.1c0.1,0,0.2-0.1,0.3-0.1c0.1,0,0.2-0.1,0.3-0.1l0.1,0c0.3-0.1,0.6-0.2,0.8-0.4
				L237.1,82.8z"/>
			<path class="st3" d="M220.4,91.4l1.6-0.9l-1,0.1l0.6-0.3c-0.1,0-0.3,0-0.4-0.1l-0.2,0c-0.3,0-0.6-0.1-0.9-0.2l-0.5-0.1
				c-0.1,0-0.2,0-0.3-0.1c-0.2-0.1-0.4-0.1-0.7-0.2l-0.1,0c-0.2-0.1-0.4-0.1-0.7-0.2c-0.1,0-0.2-0.1-0.3-0.1l-0.3-0.1
				c-0.2-0.1-0.4-0.2-0.6-0.3c-0.1,0-0.1-0.1-0.2-0.1l-0.3-0.2c0,0-0.1,0-0.1-0.1c-0.2-0.1-0.4-0.2-0.6-0.4l-0.1-0.1
				c-0.1,0-0.1-0.1-0.1-0.1l-0.1-0.1c-0.1-0.1-0.2-0.1-0.3-0.2c-0.1,0-0.1-0.1-0.2-0.1l-0.1-0.1c-0.1-0.1-0.2-0.2-0.3-0.3l-0.1,0
				c0,0-0.1-0.1-0.1-0.1c-0.1-0.1-0.2-0.2-0.3-0.3l-0.2-0.2c-0.1-0.1-0.1-0.1-0.2-0.2c-0.3-0.3-0.5-0.6-0.7-0.9
				c-0.2-0.3-0.4-0.6-0.6-0.9l-0.1-0.1c-0.2-0.3-0.3-0.6-0.5-1l-0.1-0.3c0-0.1-0.1-0.1-0.1-0.2c0-0.1-0.1-0.2-0.1-0.3l-0.1-0.2
				c-0.1-0.2-0.1-0.3-0.2-0.5c0-0.1-0.1-0.1-0.1-0.2c-0.1-0.2-0.1-0.3-0.2-0.5l-0.1-0.3c0-0.1,0-0.1-0.1-0.2l0-0.1
				c-0.1-0.3-0.2-0.7-0.2-1l0-0.1c0-0.1,0-0.1,0-0.2l0-0.2c0-0.2-0.1-0.4-0.1-0.6c0-0.1,0-0.1,0-0.2l0-0.1c0-0.1,0-0.3-0.1-0.4
				l0-0.1c0-0.1,0-0.2,0-0.3c0-0.1,0-0.2,0-0.3l0-0.3c0-0.1,0-0.3,0-0.4l0-0.1c0,0,0-0.1,0-0.1c0-0.4,0-0.8,0-1.1l0-0.4l11.5-7.2
				l0,1.3c0,0.5,0,1.4,0,1.8c0,0.1,0,0.2,0,0.4l0,0.1c0,0.3,0,0.6,0.1,0.9c0,0.1,0,0.3,0,0.4c0,0.3,0.1,0.6,0.1,0.9l0,0.3
				c0.1,0.4,0.2,0.7,0.3,1.1c0,0.1,0,0.1,0,0.2l0,0.1c0.1,0.3,0.2,0.5,0.2,0.7c0.1,0.2,0.1,0.3,0.2,0.4l0.1,0.2
				c0.1,0.2,0.1,0.4,0.2,0.5l0.1,0.2c0.1,0.3,0.3,0.6,0.5,0.8l0.1,0.1c0.2,0.3,0.4,0.6,0.6,0.8c0.2,0.2,0.4,0.5,0.6,0.8
				c0,0,0.1,0.1,0.1,0.1l0.1,0.1c0.2,0.2,0.3,0.3,0.5,0.5c0.1,0.1,0.2,0.2,0.3,0.2c0.2,0.2,0.4,0.3,0.6,0.4l0.2,0.1
				c0.2,0.2,0.5,0.3,0.8,0.5l0.1,0.1c0.3,0.2,0.6,0.3,0.9,0.4l0.1,0.1c0.3,0.1,0.6,0.3,0.9,0.3c0.3,0.1,0.6,0.2,1,0.3l0.2,0
				c0.4,0.1,0.8,0.1,1.1,0.2c0.3,0,0.5,0.1,0.7,0.1c0.1,0,0.2,0,0.2,0l0.1,0c0.2,0,0.3,0,0.4,0c0.1,0,0.2,0,0.3,0c0.2,0,0.3,0,0.4,0
				c0.1,0,0.2,0,0.3,0c0.5,0,1.1-0.1,1.5-0.3c0,0,0.1,0,0.1,0l0.1,0c0.4-0.1,0.8-0.3,1.2-0.5l0.7,1.2c0,0,0,0,0,0l-10.1,5.9
				c-0.3,0.1-0.5,0.3-0.9,0.4l-0.1,0.1c-0.1,0-0.2,0.1-0.3,0.1l-0.2,0.1c-0.1,0-0.1,0-0.2,0.1l0,0c0,0-0.1,0-0.2,0L220.4,91.4z
				 M222.8,88.9c0.1,0,0.2,0,0.3,0l0.1,0c0,0,0.1,0,0.1,0l0.2,0c0.1,0,0.2,0,0.3,0l0.2,0c0.2,0,0.3,0,0.5-0.1l0.1,0
				c0.2,0,0.4-0.1,0.6-0.2l0.2-0.1c0,0,0.1,0,0.1,0l0.2-0.1c0,0,0.1,0,0.1,0l0.1,0c0.3-0.1,0.5-0.2,0.7-0.4l6.1-3.6c0,0,0,0,0,0
				c-0.2,0-0.3,0-0.5,0l-0.1,0c-0.1,0-0.2,0-0.3,0c-0.3,0-0.5,0-0.8-0.1c-0.4-0.1-0.8-0.1-1.2-0.2l-0.2,0c-0.4-0.1-0.8-0.2-1.1-0.3
				c-0.4-0.1-0.7-0.2-1.1-0.4l-0.1-0.1c-0.3-0.1-0.6-0.3-1-0.5l-0.2-0.1c-0.3-0.2-0.6-0.4-0.9-0.5c0,0-0.1-0.1-0.1-0.1l-0.1,0
				c-0.2-0.2-0.4-0.3-0.6-0.5c-0.1-0.1-0.2-0.2-0.3-0.3c-0.2-0.2-0.4-0.3-0.5-0.5l-0.1-0.1c-0.1-0.1-0.1-0.1-0.2-0.2
				c-0.3-0.3-0.5-0.6-0.7-0.9c-0.2-0.3-0.4-0.6-0.6-0.9l-0.1-0.1c-0.2-0.3-0.4-0.6-0.5-1l-0.1-0.2c-0.1-0.2-0.2-0.4-0.3-0.6
				l-0.1-0.2c-0.1-0.2-0.1-0.3-0.2-0.5c-0.1-0.3-0.2-0.5-0.3-0.8l0-0.1c0-0.1,0-0.1-0.1-0.2c-0.1-0.4-0.2-0.8-0.3-1.2
				c0-0.1,0-0.1,0-0.2l0-0.1c-0.1-0.3-0.1-0.6-0.2-1c0-0.1,0-0.3-0.1-0.4c0-0.3-0.1-0.6-0.1-0.9l0-0.1c0-0.1,0-0.3,0-0.4
				c0-0.1,0-0.4,0-0.6l-8.7,5.5c0,0.2,0,0.5,0,0.7l0,0.2c0,0.1,0,0.2,0,0.4l0,0.3c0,0.1,0,0.2,0,0.3c0,0.1,0,0.1,0,0.2l0,0.2
				c0,0.1,0,0.3,0,0.4l0,0.1c0,0,0,0.1,0,0.1c0,0.2,0.1,0.3,0.1,0.5l0,0.3c0,0,0,0.1,0,0.1l0,0.1c0.1,0.3,0.1,0.7,0.2,1l0,0.1
				c0,0.1,0,0.1,0,0.2L212,81c0,0.2,0.1,0.3,0.1,0.4c0,0.1,0,0.1,0.1,0.2c0.1,0.1,0.1,0.3,0.2,0.4l0,0.1c0,0.1,0,0.1,0.1,0.2
				c0,0.1,0.1,0.1,0.1,0.2l0.2,0.4c0.1,0.3,0.3,0.6,0.5,0.8l0.1,0.1c0.2,0.3,0.4,0.6,0.6,0.8c0.2,0.2,0.4,0.5,0.6,0.8
				c0,0,0.1,0.1,0.1,0.1l0.2,0.2c0.1,0.1,0.1,0.1,0.2,0.2c0,0,0,0,0.1,0.1c0,0,0.1,0.1,0.1,0.1c0.1,0.1,0.2,0.2,0.3,0.2l0.1,0.1
				c0,0,0.1,0.1,0.1,0.1c0.1,0.1,0.2,0.1,0.2,0.2l0.3,0.2c0.2,0.1,0.4,0.2,0.5,0.3l0.4,0.2c0,0,0.1,0,0.1,0.1
				c0.2,0.1,0.4,0.2,0.5,0.3l0.3,0.1c0.1,0,0.2,0.1,0.2,0.1c0.2,0.1,0.4,0.1,0.6,0.2l0.1,0c0.2,0.1,0.4,0.1,0.6,0.2
				c0.1,0,0.2,0,0.3,0.1l0.5,0.1c0.3,0.1,0.5,0.1,0.8,0.1l0.2,0c0.2,0,0.4,0.1,0.6,0.1l0.1,0c0.1,0,0.2,0,0.2,0l0.2,0
				c0.1,0,0.1,0,0.2,0L222.8,88.9z"/>
		</g>
		<g>
			<path class="st1" d="M254.1,78c0-0.1,0-0.2,0-0.2c0-0.4,0-0.8,0-1.2c0,0,0,0,0-0.1c0-0.1,0-0.2,0-0.2c0-0.4,0-0.7-0.1-1
				c0-0.1,0-0.1,0-0.2c0-0.1,0-0.2,0-0.2c0-0.3-0.1-0.6-0.1-0.9c0-0.1,0-0.2,0-0.3c0,0,0-0.1,0-0.1c-0.1-0.4-0.1-0.7-0.2-1.1
				c0,0,0-0.1,0-0.1c0,0,0,0,0,0c-0.1-0.4-0.2-0.8-0.3-1.2c0,0,0-0.1,0-0.1c0-0.1,0-0.1-0.1-0.2c-0.1-0.3-0.2-0.7-0.3-1
				c0-0.1,0-0.1-0.1-0.2c0-0.1-0.1-0.2-0.1-0.3c-0.2-0.5-0.4-0.9-0.6-1.4c0-0.1,0-0.1-0.1-0.2c0,0,0-0.1-0.1-0.1
				c-0.2-0.4-0.4-0.8-0.6-1.2c0-0.1-0.1-0.2-0.1-0.2c-0.2-0.4-0.4-0.7-0.6-1.1c0-0.1-0.1-0.1-0.1-0.2c-0.2-0.4-0.5-0.8-0.8-1.1
				c-0.1-0.1-0.1-0.2-0.2-0.3c-0.3-0.4-0.6-0.8-0.9-1.1c-0.2-0.3-0.4-0.5-0.6-0.7c-0.1-0.1-0.1-0.2-0.2-0.2
				c-0.1-0.2-0.3-0.3-0.5-0.5c-0.1-0.1-0.2-0.2-0.3-0.3c-0.1-0.1-0.3-0.3-0.4-0.4c-0.1-0.1-0.2-0.2-0.3-0.3
				c-0.1-0.1-0.2-0.2-0.3-0.3l0,0c-1.1-1.1-2.4-2.1-3.7-3.1c-2.5-1.8-5.7-3.8-9.6-6c-3.9-2.2-6.5-4.2-8-5.9c-1.4-1.8-2.1-4-2.1-6.6
				c0-2.8,0.7-5,2.2-6.4c0.3-0.3,0.7-0.6,1.1-0.8l-10.1,5.9c-0.4,0.2-0.8,0.5-1.1,0.8c-1.5,1.4-2.2,3.5-2.2,6.4
				c0,2.6,0.7,4.8,2.1,6.6c1.4,1.8,4.1,3.8,8,5.9c3.9,2.2,7.1,4.2,9.6,6c1.5,1.1,2.8,2.2,4,3.3c0.1,0.1,0.2,0.2,0.3,0.3
				c0.1,0.1,0.3,0.3,0.4,0.4c0.1,0.1,0.2,0.2,0.3,0.3c0.2,0.2,0.3,0.3,0.4,0.5c0.1,0.1,0.2,0.2,0.2,0.2c0.2,0.2,0.4,0.5,0.6,0.7
				c0.3,0.4,0.6,0.7,0.9,1.1c0.1,0.1,0.1,0.2,0.2,0.3c0.3,0.4,0.5,0.8,0.8,1.1c0,0.1,0.1,0.1,0.1,0.2c0.2,0.4,0.4,0.7,0.6,1.1
				c0,0.1,0.1,0.2,0.1,0.2c0.2,0.4,0.4,0.8,0.6,1.2c0,0.1,0.1,0.2,0.1,0.3c0.2,0.5,0.4,0.9,0.6,1.4c0.1,0.2,0.1,0.3,0.2,0.5
				c0.1,0.3,0.2,0.6,0.3,1c0,0.1,0.1,0.2,0.1,0.3c0.1,0.4,0.2,0.8,0.3,1.2c0,0,0,0.1,0,0.1c0.1,0.3,0.1,0.7,0.2,1.1
				c0,0.1,0,0.3,0.1,0.4c0,0.3,0.1,0.6,0.1,0.9c0,0.1,0,0.3,0,0.4c0,0.3,0.1,0.7,0.1,1c0,0.1,0,0.2,0,0.3c0,0.4,0,0.8,0,1.2
				c0,0.2,0,0.3,0,0.5c0,0.3,0,0.6,0,0.9c0,0.1,0,0.3,0,0.4c0,0.3,0,0.5-0.1,0.8c0,0.1,0,0.2,0,0.4c0,0.3-0.1,0.6-0.1,0.9
				c0,0.1,0,0.1,0,0.2c-0.1,0.4-0.1,0.7-0.2,1c0,0.1,0,0.2-0.1,0.3c-0.1,0.2-0.1,0.5-0.2,0.7c0,0.1-0.1,0.2-0.1,0.4
				c-0.1,0.2-0.1,0.4-0.2,0.6c0,0.1-0.1,0.2-0.1,0.4c-0.1,0.2-0.2,0.4-0.2,0.6c0,0.1-0.1,0.2-0.1,0.3c-0.1,0.3-0.2,0.5-0.4,0.8
				c0,0.1-0.1,0.1-0.1,0.2c-0.2,0.3-0.4,0.7-0.6,1c-0.1,0.1-0.1,0.2-0.2,0.4c-0.1,0.1-0.1,0.2-0.2,0.3c-0.1,0.1-0.2,0.3-0.3,0.4
				c-0.1,0.1-0.1,0.2-0.2,0.3c-0.1,0.1-0.1,0.2-0.2,0.2c-0.2,0.2-0.4,0.4-0.5,0.6c-0.1,0.1-0.1,0.2-0.2,0.2
				c-0.2,0.3-0.5,0.5-0.8,0.8c-0.8,0.8-1.8,1.5-2.8,2.1l10.1-5.9c1-0.6,1.9-1.3,2.8-2.1c0.3-0.2,0.5-0.5,0.8-0.8
				c0.1-0.1,0.1-0.2,0.2-0.2c0.2-0.2,0.4-0.4,0.5-0.6c0,0,0.1-0.1,0.1-0.1c0,0,0-0.1,0.1-0.1c0.1-0.1,0.1-0.2,0.2-0.3
				c0.1-0.1,0.2-0.3,0.3-0.4c0.1-0.1,0.1-0.2,0.2-0.3c0.1-0.1,0.1-0.2,0.2-0.2c0,0,0-0.1,0.1-0.1c0.2-0.3,0.4-0.7,0.6-1c0,0,0,0,0,0
				c0,0,0-0.1,0.1-0.1c0.1-0.3,0.2-0.5,0.4-0.8c0,0,0-0.1,0.1-0.1c0-0.1,0.1-0.1,0.1-0.2c0.1-0.2,0.2-0.4,0.2-0.6
				c0-0.1,0.1-0.1,0.1-0.2c0,0,0-0.1,0-0.2c0.1-0.2,0.1-0.4,0.2-0.6c0-0.1,0.1-0.2,0.1-0.3c0,0,0-0.1,0-0.1c0.1-0.2,0.1-0.5,0.2-0.7
				c0-0.1,0-0.2,0.1-0.2c0,0,0,0,0,0c0.1-0.3,0.1-0.7,0.2-1c0,0,0,0,0,0c0-0.1,0-0.1,0-0.2c0-0.3,0.1-0.6,0.1-0.9c0,0,0-0.1,0-0.1
				c0-0.1,0-0.2,0-0.3c0-0.3,0.1-0.5,0.1-0.8c0-0.1,0-0.1,0-0.2c0-0.1,0-0.1,0-0.2c0-0.3,0-0.6,0-1C254.1,78.1,254.1,78,254.1,78z"
				/>
			<path class="st3" d="M236.5,99.9l-0.7-1.2c1-0.6,1.8-1.2,2.7-2c0.2-0.2,0.5-0.4,0.7-0.7c0.1-0.1,0.1-0.1,0.2-0.2l0,0
				c0.2-0.2,0.3-0.4,0.5-0.6l0.1-0.1c0,0,0.1-0.1,0.1-0.1c0.1-0.1,0.1-0.1,0.2-0.2l0.1-0.1c0.1-0.1,0.2-0.2,0.3-0.4
				c0.1-0.1,0.1-0.2,0.2-0.3c0.1-0.1,0.2-0.2,0.2-0.4c0.2-0.3,0.4-0.6,0.5-1l0.1-0.2c0.1-0.2,0.2-0.5,0.3-0.7c0-0.1,0.1-0.2,0.1-0.3
				c0.1-0.2,0.2-0.4,0.2-0.6c0-0.1,0.1-0.2,0.1-0.3c0.1-0.2,0.1-0.4,0.2-0.6l0-0.1c0-0.1,0-0.1,0.1-0.2c0.1-0.2,0.1-0.5,0.2-0.7
				l0.1-0.3c0.1-0.3,0.1-0.7,0.2-1l0-0.2c0-0.3,0.1-0.6,0.1-0.9c0-0.1,0-0.2,0-0.2l0-0.1c0-0.3,0-0.5,0.1-0.8c0-0.1,0-0.3,0-0.4
				c0-0.3,0-0.6,0-0.9l0-0.2c0-0.1,0-0.2,0-0.3c0-0.4,0-0.8,0-1.2l0-0.3c0-0.3,0-0.7-0.1-1c0-0.1,0-0.3,0-0.4c0-0.3-0.1-0.6-0.1-0.8
				l0-0.1c0-0.1,0-0.2,0-0.3c-0.1-0.3-0.1-0.7-0.2-1l0-0.1c-0.1-0.4-0.2-0.7-0.3-1.1l-0.1-0.3c-0.1-0.3-0.2-0.6-0.3-0.9l-0.1-0.2
				c0-0.1-0.1-0.2-0.1-0.3c-0.1-0.4-0.3-0.8-0.5-1.3l-0.1-0.2c-0.2-0.4-0.4-0.8-0.6-1.2l-0.1-0.2c-0.2-0.4-0.4-0.7-0.6-1l-0.1-0.2
				c-0.2-0.4-0.5-0.7-0.7-1.1l-0.2-0.2c-0.3-0.4-0.6-0.8-0.8-1.1c-0.2-0.2-0.4-0.5-0.6-0.7l-0.2-0.2c-0.1-0.2-0.3-0.3-0.4-0.5
				l-0.3-0.3c-0.1-0.1-0.3-0.3-0.4-0.4l-0.3-0.3c-1.2-1.1-2.5-2.2-3.9-3.3c-2.4-1.8-5.6-3.8-9.5-5.9c-4-2.2-6.7-4.2-8.2-6.1
				c-1.5-1.9-2.3-4.3-2.3-7.1c0-3,0.8-5.3,2.4-6.9c0.4-0.4,0.8-0.7,1.2-0.9l10.1-5.9c0,0,0,0,0,0l0.7,1.2l0,0
				c-0.3,0.2-0.7,0.4-1,0.7c-1.3,1.3-2,3.2-2,5.9c0,2.5,0.7,4.5,2,6.2c1.4,1.7,4,3.6,7.8,5.8c3.9,2.2,7.2,4.2,9.6,6
				c1.2,0.9,2.3,1.8,3.4,2.7l0,0l0.4,0.4c0.1,0.1,0.1,0.1,0.2,0.2l0.2,0.2c0.1,0.1,0.2,0.2,0.3,0.2c0.1,0.1,0.3,0.3,0.4,0.4l0.3,0.3
				c0.2,0.2,0.3,0.3,0.5,0.5l0.2,0.2c0.2,0.3,0.4,0.5,0.7,0.8c0.3,0.3,0.6,0.7,0.9,1.2l0.2,0.3c0.3,0.4,0.6,0.8,0.8,1.2l0.1,0.2
				c0.2,0.4,0.4,0.7,0.6,1.1l0.1,0.2c0.2,0.4,0.4,0.8,0.6,1.3c0,0,0,0.1,0.1,0.1c0,0,0,0.1,0,0.1l0,0c0.2,0.5,0.4,1,0.6,1.4
				c0,0.1,0.1,0.2,0.1,0.3c0,0,0,0.1,0,0.1l0,0.1c0.1,0.3,0.2,0.7,0.3,1l0,0.1c0,0,0,0.1,0,0.1l0,0.1c0.1,0.5,0.2,0.9,0.3,1.2l0,0.1
				c0.1,0.4,0.1,0.8,0.2,1.1l0,0.1c0,0.1,0,0.1,0,0.2l0,0.1c0,0.3,0.1,0.6,0.1,0.9l0,0.1c0,0.1,0,0.1,0,0.2l0,0.2
				c0,0.3,0.1,0.7,0.1,1.1l0,0.1c0,0,0,0.1,0,0.1l0,0.1c0,0.4,0,0.9,0,1.3l0,0.2c0,0.1,0,0.1,0,0.2l0,0.1c0,0.3,0,0.7,0,1l0,0.1
				c0,0,0,0.1,0,0.1l0,0.2c0,0.3,0,0.6-0.1,0.8l0,0.1c0,0.1,0,0.1,0,0.2l0,0.1c0,0.3-0.1,0.6-0.1,0.9l0,0.1c0,0,0,0.1,0,0.1l0,0
				c-0.1,0.3-0.1,0.7-0.2,1.1l0,0c0,0,0,0.1,0,0.1l0,0.1c-0.1,0.3-0.1,0.5-0.2,0.8l0,0.1c0,0.1,0,0.1-0.1,0.2l0,0.1
				c-0.1,0.2-0.1,0.4-0.2,0.6l0,0.2c0,0,0,0.1-0.1,0.1l0,0.1c-0.1,0.2-0.2,0.4-0.2,0.6l0,0.1c0,0,0,0.1-0.1,0.1c0,0,0,0.1,0,0.1
				c-0.1,0.3-0.3,0.6-0.4,0.8l0,0c0,0,0,0.1-0.1,0.1l0,0.1c-0.2,0.3-0.4,0.7-0.6,1c0,0,0,0.1-0.1,0.1c0,0.1-0.1,0.1-0.1,0.2
				l-0.1,0.1c-0.1,0.1-0.1,0.2-0.2,0.3c-0.1,0.1-0.2,0.3-0.3,0.4l0,0.1c-0.1,0.1-0.1,0.2-0.2,0.3l-0.1,0.1c0,0-0.1,0.1-0.1,0.1l0,0
				c-0.2,0.2-0.4,0.4-0.6,0.7l0,0c-0.1,0.1-0.1,0.1-0.2,0.2c-0.3,0.3-0.5,0.6-0.8,0.8c-0.9,0.8-1.9,1.5-2.9,2.1L236.5,99.9
				C236.5,99.9,236.5,99.9,236.5,99.9L236.5,99.9z M223,33.5l-6.5,3.8c-0.3,0.2-0.7,0.4-1,0.7c-1.3,1.3-2,3.2-2,5.9
				c0,2.5,0.7,4.5,2,6.2c1.4,1.7,4,3.6,7.8,5.8c3.9,2.2,7.2,4.2,9.6,6c1.5,1.1,2.9,2.2,4.1,3.4l0.3,0.3c0.1,0.1,0.3,0.3,0.4,0.4
				l0.1,0.1c0.1,0.1,0.1,0.1,0.2,0.2c0.2,0.2,0.3,0.3,0.5,0.5l0.1,0.1c0.1,0.1,0.1,0.1,0.1,0.2c0.2,0.3,0.4,0.5,0.7,0.8
				c0.3,0.3,0.6,0.7,0.9,1.2l0.2,0.3c0.3,0.4,0.6,0.8,0.8,1.2l0.1,0.2c0.2,0.4,0.4,0.7,0.6,1.1l0.1,0.2c0.2,0.4,0.4,0.8,0.6,1.3
				l0.1,0.3c0.2,0.5,0.4,1,0.6,1.4c0,0.1,0.1,0.2,0.1,0.4l0.1,0.2c0.1,0.3,0.2,0.7,0.3,1l0,0.1c0,0.1,0,0.1,0.1,0.2
				c0.1,0.4,0.2,0.8,0.3,1.2l0,0.1c0.1,0.4,0.1,0.7,0.2,1.1c0,0.1,0,0.2,0,0.3l0,0.1c0,0.3,0.1,0.6,0.1,0.9c0,0.1,0,0.3,0,0.4
				c0,0.4,0.1,0.7,0.1,1.1l0,0.3c0,0.4,0,0.8,0,1.3c0,0.1,0,0.2,0,0.3l0,0.2c0,0.3,0,0.7,0,1c0,0.1,0,0.3,0,0.4c0,0.3,0,0.6-0.1,0.8
				l0,0.1c0,0.1,0,0.2,0,0.3c0,0.3-0.1,0.6-0.1,0.9l0,0.2c-0.1,0.4-0.1,0.7-0.2,1.1c0,0.1,0,0.1,0,0.2l0,0.1
				c-0.1,0.3-0.1,0.5-0.2,0.7c0,0.1,0,0.2-0.1,0.3l0,0.1c-0.1,0.2-0.1,0.4-0.2,0.6c0,0.1-0.1,0.2-0.1,0.4c-0.1,0.2-0.2,0.4-0.2,0.6
				c0,0.1-0.1,0.2-0.1,0.3c-0.1,0.3-0.2,0.5-0.4,0.8l-0.1,0.2c-0.2,0.3-0.4,0.7-0.6,1c-0.1,0.1-0.2,0.2-0.2,0.4
				c-0.1,0.1-0.1,0.2-0.2,0.3c-0.1,0.1-0.1,0.2-0.2,0.3l4.4-2.5c1-0.6,1.8-1.2,2.7-2c0.2-0.2,0.5-0.4,0.7-0.7
				c0.1-0.1,0.1-0.1,0.2-0.2l0-0.1c0.2-0.2,0.3-0.4,0.5-0.6c0,0,0.1-0.1,0.1-0.1l0.1-0.1c0.1-0.1,0.1-0.2,0.2-0.2l0-0.1
				c0.1-0.1,0.2-0.2,0.3-0.4c0.1-0.1,0.1-0.2,0.2-0.3l0.1-0.1c0,0,0.1-0.1,0.1-0.1l0.1-0.1c0.2-0.3,0.4-0.7,0.5-1l0.1-0.2
				c0.1-0.2,0.2-0.5,0.3-0.7c0,0,0-0.1,0-0.1l0.1-0.2c0.1-0.2,0.2-0.4,0.2-0.6l0.1-0.3c0.1-0.2,0.1-0.4,0.2-0.6l0-0.1
				c0,0,0-0.1,0-0.1l0-0.1c0.1-0.2,0.1-0.5,0.2-0.7l0.1-0.2c0.1-0.4,0.1-0.7,0.2-1l0-0.2c0-0.3,0.1-0.6,0.1-0.9l0-0.4
				c0-0.3,0-0.5,0.1-0.8l0-0.4c0-0.3,0-0.6,0-0.9l0-0.5c0-0.4,0-0.8,0-1.2l0-0.3c0-0.3,0-0.7-0.1-1l0-0.4c0-0.3-0.1-0.6-0.1-0.9
				l-0.1-0.4c-0.1-0.4-0.1-0.7-0.2-1l0-0.1c-0.1-0.4-0.2-0.7-0.3-1.1l0-0.2c0,0,0-0.1,0-0.1c-0.1-0.3-0.2-0.6-0.3-0.9
				c0,0,0-0.1,0-0.1l0-0.1c0-0.1-0.1-0.2-0.1-0.3c-0.1-0.4-0.3-0.8-0.5-1.3c0,0,0-0.1,0-0.1l-0.1-0.1c-0.2-0.4-0.4-0.8-0.6-1.2
				l-0.1-0.2c-0.2-0.4-0.4-0.7-0.6-1l-0.1-0.2c-0.2-0.4-0.5-0.7-0.7-1.1l-0.2-0.2c-0.3-0.4-0.6-0.8-0.8-1.1
				c-0.2-0.2-0.4-0.5-0.6-0.7l-0.2-0.2c-0.1-0.2-0.3-0.3-0.4-0.5l-0.3-0.3c-0.1-0.1-0.3-0.3-0.4-0.4c-0.1-0.1-0.2-0.2-0.2-0.2
				l-0.2-0.2c0,0,0,0,0,0l-0.1-0.1c-1.1-1-2.3-2.1-3.6-3c-2.5-1.8-5.7-3.8-9.5-5.9c-4-2.2-6.7-4.2-8.2-6.1c-1.5-1.9-2.3-4.3-2.3-7.1
				C222.1,36.3,222.4,34.7,223,33.5z"/>
		</g>
		<path class="st0" d="M227,17.3c-0.6,0-1.3,0.1-1.9,0.1c-0.6,0.1-1.3,0.1-1.9,0.3c-0.7,0.1-1.3,0.3-1.9,0.4
			c-0.8,0.2-1.5,0.4-2.2,0.7c-0.9,0.3-1.7,0.7-2.5,1.2l-11.2,6.3c0.8-0.4,1.6-0.8,2.5-1.2c0.7-0.3,1.4-0.5,2.2-0.7
			c0.6-0.2,1.3-0.3,1.9-0.4c0.6-0.1,1.2-0.2,1.9-0.3c0.6-0.1,1.3-0.1,1.9-0.1c0.6,0,1.3,0,1.9,0l11.2-6.3
			C228.3,17.3,227.7,17.3,227,17.3z"/>
		<g>
			<polygon class="st0" points="218.9,11.6 229,5.7 236.8,7.2 226.7,13.1 			"/>
			<path class="st3" d="M226.7,13.8c0,0-0.1,0-0.1,0l-7.8-1.5c-0.3-0.1-0.5-0.3-0.6-0.6s0.1-0.6,0.3-0.7l10.1-5.9
				C228.8,5,229,5,229.1,5l7.8,1.5c0.3,0.1,0.5,0.3,0.6,0.6c0,0.3-0.1,0.6-0.3,0.7l-10.1,5.9C227,13.7,226.9,13.8,226.7,13.8z
				 M220.9,11.2l5.7,1.1l8.2-4.8l-5.7-1.1L220.9,11.2z"/>
		</g>
		<g>
			<path class="st1" d="M226.7,13.1l9.9-5.8c0.1,0,0.1,0,0.1,0.1l0,11.1l-10.1,5.9L226.7,13.1z"/>
			<path class="st3" d="M226,25.6l0-12.9l10.3-6c0.2-0.1,0.5-0.1,0.8,0c0.2,0.1,0.4,0.4,0.4,0.7l0,11.5L226,25.6z M227.4,13.5l0,9.6
				l8.7-5l0-9.6L227.4,13.5z"/>
		</g>
		<g>
			<path class="st0" d="M255.1,43.4c0-0.6-0.1-1.3-0.1-1.9c-0.1-0.6-0.1-1.2-0.2-1.8c-0.1-0.6-0.2-1.2-0.3-1.8
				c-0.1-0.6-0.3-1.2-0.4-1.8c-0.2-0.6-0.4-1.3-0.6-1.9c-0.3-0.7-0.5-1.5-0.9-2.2c-0.6-1.4-1.4-2.8-2.3-4.1c-1-1.4-2.1-2.7-3.3-3.8
				c-0.5-0.5-1-0.9-1.6-1.3c-0.4-0.3-0.9-0.7-1.3-1c-0.4-0.3-0.8-0.5-1.3-0.8c-0.4-0.2-0.8-0.5-1.2-0.7c-0.4-0.2-0.8-0.4-1.3-0.6
				c-0.4-0.2-0.9-0.4-1.3-0.5c-0.5-0.2-0.9-0.3-1.4-0.5c-0.3-0.1-0.5-0.2-0.8-0.2l-10.1,5.9c0.3,0.1,0.5,0.2,0.8,0.2
				c0.5,0.2,0.9,0.3,1.4,0.5c0.4,0.2,0.9,0.3,1.3,0.5c0.4,0.2,0.9,0.4,1.3,0.6c0.4,0.2,0.8,0.4,1.2,0.7c0.4,0.3,0.9,0.5,1.3,0.8
				c0.5,0.3,0.9,0.6,1.3,1c0.5,0.4,1.1,0.9,1.6,1.3c1.2,1.1,2.3,2.4,3.3,3.8c0.9,1.3,1.7,2.7,2.3,4.1c0.3,0.7,0.6,1.4,0.9,2.2
				c0.2,0.6,0.4,1.2,0.6,1.9c0.2,0.6,0.3,1.2,0.4,1.8c0.1,0.6,0.2,1.2,0.3,1.8c0.1,0.6,0.2,1.2,0.2,1.8c0.1,0.6,0.1,1.3,0.1,1.9
				c0,0.6,0,1.1,0,1.7l10.1-5.9C255.1,44.5,255.1,43.9,255.1,43.4z"/>
			<path class="st3" d="M245.1,51.6c-0.1,0-0.2,0-0.4-0.1c-0.2-0.1-0.4-0.4-0.4-0.6c0-0.6,0-1.1,0-1.7c0-0.6-0.1-1.3-0.1-1.9
				c-0.1-0.6-0.1-1.2-0.2-1.8c-0.1-0.6-0.2-1.2-0.3-1.7c-0.1-0.6-0.3-1.2-0.4-1.7c-0.2-0.6-0.4-1.2-0.6-1.8
				c-0.2-0.7-0.5-1.4-0.8-2.1c-0.6-1.4-1.4-2.7-2.3-4c-0.9-1.4-2-2.6-3.2-3.7c-0.5-0.5-1-0.9-1.5-1.3c-0.4-0.3-0.9-0.6-1.3-0.9
				c-0.4-0.3-0.8-0.5-1.2-0.8c-0.4-0.2-0.8-0.5-1.2-0.7c-0.4-0.2-0.8-0.4-1.2-0.6c-0.4-0.2-0.9-0.4-1.3-0.5
				c-0.4-0.2-0.9-0.3-1.4-0.5c-0.3-0.1-0.5-0.2-0.8-0.2c-0.3-0.1-0.5-0.3-0.5-0.6c0-0.3,0.1-0.6,0.3-0.7l10.1-5.9
				c0.2-0.1,0.4-0.1,0.5-0.1c0.3,0.1,0.6,0.2,0.8,0.3c0.5,0.2,1,0.3,1.4,0.5c0.5,0.2,0.9,0.4,1.4,0.6c0.4,0.2,0.9,0.4,1.3,0.6
				c0.4,0.2,0.9,0.5,1.3,0.7c0.4,0.3,0.9,0.5,1.3,0.8c0.5,0.3,0.9,0.7,1.4,1c0.6,0.4,1.1,0.9,1.6,1.4c1.2,1.2,2.4,2.5,3.4,3.9
				c0.9,1.3,1.7,2.7,2.4,4.2c0.3,0.7,0.6,1.5,0.9,2.2c0.2,0.6,0.4,1.3,0.6,1.9c0.2,0.6,0.3,1.2,0.4,1.8c0.1,0.6,0.2,1.2,0.3,1.8
				c0.1,0.6,0.2,1.2,0.2,1.9c0.1,0.6,0.1,1.3,0.1,1.9c0,0.6,0,1.2,0,1.7c0,0.2-0.1,0.5-0.3,0.6l-10.1,5.9
				C245.3,51.6,245.2,51.6,245.1,51.6z M228.5,24.1c0.3,0.1,0.5,0.2,0.7,0.3c0.5,0.2,0.9,0.4,1.4,0.6c0.4,0.2,0.9,0.4,1.3,0.6
				c0.4,0.2,0.9,0.5,1.3,0.7c0.4,0.3,0.9,0.5,1.3,0.8c0.5,0.3,0.9,0.7,1.4,1c0.6,0.4,1.1,0.9,1.6,1.4c1.2,1.2,2.4,2.5,3.4,3.9
				c0.9,1.3,1.7,2.7,2.4,4.2c0.3,0.7,0.6,1.5,0.9,2.2c0.2,0.6,0.4,1.3,0.6,1.9c0.2,0.6,0.3,1.2,0.4,1.8c0.1,0.6,0.2,1.2,0.3,1.8
				c0.1,0.6,0.2,1.2,0.2,1.9c0.1,0.6,0.1,1.3,0.1,1.9c0,0.2,0,0.3,0,0.5l8.7-5c0-0.4,0-0.9,0-1.3l0,0c0-0.6-0.1-1.3-0.1-1.9
				c-0.1-0.6-0.1-1.2-0.2-1.8c-0.1-0.6-0.2-1.2-0.3-1.7c-0.1-0.6-0.3-1.2-0.4-1.7c-0.2-0.6-0.4-1.2-0.6-1.8
				c-0.2-0.7-0.5-1.4-0.8-2.1c-0.6-1.4-1.4-2.7-2.3-4c-0.9-1.4-2-2.6-3.2-3.7c-0.5-0.5-1-0.9-1.5-1.3c-0.4-0.3-0.9-0.6-1.3-0.9
				c-0.4-0.3-0.8-0.5-1.2-0.8c-0.4-0.2-0.8-0.5-1.2-0.7c-0.4-0.2-0.8-0.4-1.2-0.6c-0.4-0.2-0.9-0.4-1.3-0.5
				c-0.4-0.2-0.9-0.3-1.4-0.5c-0.2-0.1-0.3-0.1-0.5-0.2L228.5,24.1z M255.1,45.1L255.1,45.1L255.1,45.1z"/>
		</g>
		<g>
			<path class="st4" d="M226.7,13.1l0,11.3c5.8,1.6,10.3,4.8,13.5,9.5c3.2,4.6,4.8,10.3,4.8,17c0,0.1-0.1,0.1-0.1,0.1l-14-2.8
				c0-4.2-0.8-6.4-2.4-8.7c-1.6-2.3-3.8-3.6-6.5-4c-2.7-0.4-4.7,0.2-6.2,1.6c-1.5,1.4-2.2,3.5-2.2,6.4c0,2.6,0.7,4.8,2.1,6.6
				c1.4,1.8,4.1,3.8,8,5.9c3.9,2.2,7.1,4.2,9.6,6c2.5,1.8,4.6,3.8,6.3,5.8c1.7,2.1,3,4.4,3.9,6.9c0.9,2.5,1.4,5.3,1.4,8.5
				c0,5.9-1.7,10.4-5.2,13.6c-3.5,3.2-8.2,4.7-14.3,4.6l0,10c0,0.2-0.2,0.3-0.3,0.3l-7.4-1l0-10.3c-6.7-1.7-11.8-4.9-15.5-9.6
				c-3.6-4.7-5.4-11.4-5.5-18.3c0-0.2,0.2-0.4,0.4-0.3l13.7,2.7c0,4.1,0.9,7.4,2.7,9.8c1.8,2.4,4.5,3.9,7.9,4.4
				c2.9,0.4,5.1-0.1,6.8-1.5c1.7-1.4,2.5-3.4,2.5-6.2c0-2.8-0.7-5.2-2.2-7.1c-1.5-1.9-4-3.8-7.5-5.7c-3.5-1.9-6.6-3.7-9.2-5.5
				c-2.6-1.7-4.8-3.6-6.6-5.7c-1.8-2.1-3.3-4.4-4.3-7c-1-2.6-1.5-5.6-1.5-9c0-5.8,1.8-10.4,5.3-13.7c3.5-3.3,8.2-4.8,14-4.7l0-11.4
				c0-0.1,0.1-0.2,0.2-0.2L226.7,13.1z"/>
			<path class="st3" d="M225.2,112.3c0,0-0.1,0-0.1,0l-8-1.1l0-10.3c-6.5-1.7-11.7-5-15.3-9.7c-3.5-4.6-5.5-11.3-5.6-18.7
				c0-0.3,0.1-0.6,0.4-0.8c0.2-0.2,0.6-0.3,0.9-0.2l14.2,2.9l0,0.6c0,3.9,0.9,7.1,2.6,9.4c1.7,2.3,4.2,3.6,7.5,4.1
				c2.6,0.4,4.7-0.1,6.2-1.3c1.5-1.3,2.2-3.1,2.2-5.6c0-2.7-0.7-4.9-2.1-6.6c-1.4-1.8-3.9-3.6-7.3-5.5c-3.5-1.9-6.6-3.7-9.2-5.5
				c-2.6-1.8-4.9-3.7-6.7-5.8c-1.9-2.1-3.4-4.5-4.4-7.2c-1-2.7-1.6-5.8-1.6-9.2c0-6,1.9-10.8,5.5-14.2c3.5-3.2,8.1-4.9,13.8-4.9
				l0-10.7c0-0.3,0.1-0.5,0.3-0.7c0.2-0.2,0.5-0.2,0.7-0.2l8.2,1.6l0,11.3c5.7,1.7,10.1,4.9,13.4,9.6c3.3,4.7,5,10.6,5,17.4
				c0,0.2-0.1,0.5-0.3,0.6c-0.2,0.2-0.4,0.2-0.6,0.2l0,0l-14.5-2.9l0-0.6c0-4.2-0.9-6.3-2.3-8.3c-1.5-2.1-3.5-3.3-6-3.7
				c-2.5-0.3-4.3,0.1-5.6,1.4c-1.3,1.3-2,3.2-2,5.9c0,2.5,0.7,4.5,2,6.2c1.4,1.7,4,3.6,7.8,5.8c3.9,2.2,7.2,4.2,9.6,6
				c2.5,1.8,4.7,3.8,6.5,6c1.8,2.1,3.1,4.5,4.1,7.1c0.9,2.6,1.4,5.5,1.4,8.7c0,6.1-1.8,10.8-5.4,14.1c-3.4,3.2-8.1,4.8-13.9,4.8
				c0,0-0.1,0-0.1,0l0,9.3c0,0.3-0.1,0.6-0.3,0.8C225.7,112.2,225.5,112.3,225.2,112.3z M218.5,110l6.4,0.9l0-10.2l0.7,0
				c5.8,0.1,10.5-1.3,13.8-4.4c3.3-3.1,5-7.5,5-13.1c0-3-0.4-5.8-1.3-8.2c-0.9-2.4-2.2-4.6-3.8-6.7c-1.7-2-3.8-3.9-6.2-5.7
				c-2.4-1.8-5.6-3.8-9.5-5.9c-4-2.2-6.7-4.2-8.2-6.1c-1.5-1.9-2.3-4.3-2.3-7.1c0-3,0.8-5.3,2.4-6.9c1.6-1.6,3.9-2.2,6.8-1.8
				c2.9,0.4,5.2,1.8,6.9,4.2c1.7,2.5,2.5,4.9,2.5,8.5l12.7,2.5c-0.1-6.2-1.7-11.5-4.7-15.9c-3.1-4.5-7.5-7.6-13.1-9.2l-0.5-0.1
				l0-11.2l-6.4-1.2l0,11.4l-0.7,0c-5.6-0.2-10.2,1.4-13.5,4.5c-3.4,3.1-5.1,7.5-5.1,13.2c0,3.3,0.5,6.2,1.5,8.7
				c1,2.5,2.4,4.8,4.2,6.8c1.8,2,4,3.9,6.5,5.6c2.6,1.7,5.6,3.6,9.1,5.4c3.6,1.9,6.2,3.9,7.8,5.8c1.6,2,2.4,4.5,2.4,7.5
				c0,2.9-0.9,5.2-2.8,6.7c-1.8,1.5-4.3,2.1-7.3,1.7c-3.6-0.5-6.5-2-8.4-4.6c-1.8-2.4-2.8-5.7-2.9-9.7l-12.7-2.5
				c0.1,7,2,13.1,5.3,17.4c3.5,4.6,8.6,7.8,15.1,9.4l0.5,0.1L218.5,110z M244.4,50.8C244.4,50.8,244.4,50.8,244.4,50.8
				C244.4,50.8,244.4,50.8,244.4,50.8z M219,12.3C219,12.3,219,12.3,219,12.3L219,12.3z"/>
		</g>
	</g>
	<g>
		
			<ellipse transform="matrix(0.7894 -0.6139 0.6139 0.7894 63.5285 257.0708)" class="st2" cx="406.4" cy="35.9" rx="19.9" ry="19.3"/>
		<path class="st3" d="M406,56.5c-0.2,0-0.5,0-0.7,0c-5.3-0.2-10.2-2.4-13.8-6.4c-3.7-4-5.5-9.3-5.2-14.9c0.1-2.4,0.7-4.8,1.6-7
			c0.2-0.4,0.6-0.5,0.9-0.4c0.4,0.2,0.5,0.6,0.4,0.9c-0.9,2.1-1.4,4.3-1.5,6.6c-0.3,5.2,1.4,10.1,4.8,13.8c3.3,3.6,7.9,5.7,12.8,5.9
			c10.3,0.4,19.2-7.9,19.8-18.5c0.3-5.2-1.4-10.1-4.8-13.8c-3.3-3.6-7.9-5.7-12.8-5.9c-4.7-0.2-9.2,1.4-12.9,4.5
			c-0.3,0.3-0.7,0.2-1-0.1c-0.3-0.3-0.2-0.7,0.1-1c3.9-3.3,8.8-5,13.8-4.9c5.3,0.2,10.2,2.4,13.8,6.4c3.7,4,5.5,9.3,5.2,14.9
			C425.9,47.7,416.8,56.5,406,56.5z"/>
		<g>
			<path class="st4" d="M399.7,45.7l1.3-2.4c-1.6-1-3-2.3-3.7-3.3l2.4-2.6c0.7,1.1,1.9,2.4,3.6,3.3c1.4,0.7,2.7,0.7,3.3-0.3
				c0.5-1,0.1-2-1.5-3.6c-2.2-2.3-3.3-4.5-2-7c1.2-2.2,3.8-3.2,6.7-2.3l1.3-2.4l2.5,1.3l-1.2,2.2c1.6,1,2.6,1.9,3.2,2.7l-2.3,2.5
				c-0.5-0.6-1.3-1.8-3.2-2.8c-1.6-0.9-2.6-0.4-2.9,0.3c-0.5,0.8,0.1,1.8,1.8,3.8c2.4,2.6,2.8,4.7,1.6,6.9c-1.2,2.3-3.9,3.4-7.1,2.4
				l-1.4,2.6L399.7,45.7z"/>
		</g>
	</g>
	<g>
		<g>
			<g>
				<path class="st3" d="M57.5,68.7C57.5,68.7,57.5,68.7,57.5,68.7l-1.9,0c-0.4,0-0.7-0.3-0.7-0.7c0-0.4,0.3-0.7,0.7-0.7
					c0,0,0,0,0,0l1.9,0c0.4,0,0.7,0.3,0.7,0.7C58.2,68.4,57.9,68.7,57.5,68.7z"/>
				<path class="st3" d="M66.8,68.8C66.8,68.8,66.8,68.8,66.8,68.8l-1.9,0c-0.4,0-0.7-0.3-0.7-0.7c0-0.4,0.3-0.7,0.7-0.7
					c0,0,0,0,0,0l1.9,0c0.4,0,0.7,0.3,0.7,0.7C67.5,68.5,67.2,68.8,66.8,68.8z"/>
				<path class="st3" d="M61.2,74.3c-0.4,0-0.7-0.3-0.7-0.7l0-1.9c0-0.4,0.3-0.7,0.7-0.7c0,0,0,0,0,0c0.4,0,0.7,0.3,0.7,0.7l0,1.9
					C61.9,74,61.6,74.3,61.2,74.3C61.2,74.3,61.2,74.3,61.2,74.3z"/>
				<path class="st3" d="M61.2,65.1c-0.4,0-0.7-0.3-0.7-0.7l0-1.9c0-0.4,0.3-0.7,0.7-0.7c0,0,0,0,0,0c0.4,0,0.7,0.3,0.7,0.7l0,1.9
					C61.9,64.8,61.6,65.1,61.2,65.1C61.2,65.1,61.2,65.1,61.2,65.1z"/>
			</g>
		</g>
		<g>
			<g>
				<path class="st3" d="M74.6,80.3c-0.2,0-0.4-0.1-0.5-0.2l-1.4-1.4c-0.3-0.3-0.3-0.7,0-1c0.3-0.3,0.7-0.3,1,0l1.4,1.4
					c0.3,0.3,0.3,0.7,0,1C75,80.3,74.8,80.3,74.6,80.3z"/>
				<path class="st3" d="M81.2,86.8c-0.2,0-0.4-0.1-0.5-0.2l-1.4-1.4c-0.3-0.3-0.3-0.7,0-1c0.3-0.3,0.7-0.3,1,0l1.4,1.4
					c0.3,0.3,0.3,0.7,0,1C81.6,86.7,81.4,86.8,81.2,86.8z"/>
				<path class="st3" d="M73.3,86.9c-0.2,0-0.4-0.1-0.5-0.2c-0.3-0.3-0.3-0.7,0-1l1.3-1.4c0.3-0.3,0.7-0.3,1,0c0.3,0.3,0.3,0.7,0,1
					l-1.3,1.4C73.7,86.9,73.5,86.9,73.3,86.9z"/>
				<path class="st3" d="M79.7,80.3c-0.2,0-0.4-0.1-0.5-0.2c-0.3-0.3-0.3-0.7,0-1l1.3-1.4c0.3-0.3,0.7-0.3,1,0c0.3,0.3,0.3,0.7,0,1
					L80.3,80C80.1,80.2,79.9,80.3,79.7,80.3z"/>
			</g>
		</g>
		
			<ellipse transform="matrix(0.2298 -0.9732 0.9732 0.2298 25.5252 159.3694)" class="st0" cx="113.4" cy="63.6" rx="4.3" ry="4.3"/>
	</g>
</g>
</svg>
