<?xml version="1.0" encoding="utf-8"?>
<!-- Generator: Adobe Illustrator 24.3.0, SVG Export Plug-In . SVG Version: 6.00 Build 0)  -->
<svg version="1.1" id="Layer_1" xmlns="http://www.w3.org/2000/svg" xmlns:xlink="http://www.w3.org/1999/xlink" x="0px" y="0px"
	 viewBox="0 0 500 400" style="enable-background:new 0 0 500 400;" xml:space="preserve">
<style type="text/css">
	.st0{fill:#CADDFF;}
	.st1{fill:#7EB2F1;}
	.st2{fill:#B6D3F7;}
	.st3{fill:#FFFFFF;}
	.st4{fill:#0A3161;}
</style>
<g id="Family_benefit">
	<path class="st0" d="M60.2,324.8c11.5,27.9,38.2,41,55.4,49.5c67.5,33.2,170,29.3,243.8-31.3c17.3-14.2,102.4-88.4,82.6-189
		C424.3,65.1,336.2,13.6,262,6.7C200.5,1,120.3,23.5,91.9,77.7c-17.8,34.1,3.6,44.9-11,122.2C68.3,266.7,46.1,290.7,60.2,324.8z"/>
	<g>
		<g>
			<path class="st1" d="M407.8,362.8l-243-0.8c-4.6,0-8.2-3.9-7.9-8.5l19.9-312c0.3-4.2,3.7-7.5,7.9-7.5l243.6-0.8
				c4.6,0,8.9,4.7,8.6,9.3l-19.9,312C416.7,358.7,412,362.8,407.8,362.8z"/>
			<path class="st2" d="M400.7,362.9H156.4c-4.6,0-8.2-3.9-7.9-8.5l19.9-313.8c0.3-4.2,3.7-7.5,7.9-7.5h244.2c4.6,0,8.2,3.9,7.9,8.5
				l-19.9,313.8C408.4,359.6,404.9,362.9,400.7,362.9z"/>
		</g>
		<g>
			<path class="st3" d="M380.5,347.3H136.3c-4.6,0-8.2-3.9-7.9-8.5l19.9-313.8c0.3-4.2,3.7-7.5,7.9-7.5h244.2c4.6,0,8.2,3.9,7.9,8.5
				l-19.9,313.8C388.2,344,384.7,347.3,380.5,347.3z"/>
			<path class="st4" d="M323.9,348H208.7c-0.4,0-0.7-0.3-0.7-0.7c0-0.4,0.3-0.7,0.7-0.7h115.1c0.4,0,0.7,0.3,0.7,0.7
				C324.6,347.7,324.3,348,323.9,348z"/>
			<path class="st4" d="M390.8,303.5C390.8,303.5,390.8,303.5,390.8,303.5c-0.4,0-0.7-0.4-0.7-0.7l8.6-134.9c0-0.4,0.3-0.7,0.7-0.7
				c0.4,0,0.7,0.4,0.7,0.7l-8.6,134.9C391.5,303.2,391.2,303.5,390.8,303.5z"/>
			<path class="st4" d="M407.4,41.9C407.4,41.9,407.4,41.9,407.4,41.9c-0.4,0-0.7-0.4-0.7-0.7l1-15.2c0.1-2-0.6-4-2-5.5
				c-1.4-1.5-3.3-2.3-5.3-2.3h-18.7c-0.4,0-0.7-0.3-0.7-0.7c0-0.4,0.3-0.7,0.7-0.7h18.7c2.4,0,4.7,1,6.3,2.7
				c1.7,1.8,2.5,4.1,2.3,6.5l-1,15.2C408.1,41.6,407.8,41.9,407.4,41.9z"/>
			<path class="st4" d="M145.6,68.1C145.5,68.1,145.5,68.1,145.6,68.1c-0.4,0-0.7-0.4-0.7-0.7l2.7-42.4c0.3-4.6,4.1-8.2,8.7-8.2
				h71.1c0.4,0,0.7,0.3,0.7,0.7c0,0.4-0.3,0.7-0.7,0.7h-71.1c-3.8,0-7,3-7.2,6.8l-2.7,42.4C146.2,67.8,145.9,68.1,145.6,68.1z"/>
			<g>
				<path class="st0" d="M294.7,276.6L294.7,276.6c-0.2,2.2-2,3.9-4.2,3.9H154.2c-2.5,0-4.4-2.1-4.2-4.5l0,0c0.2-2.2,2-3.9,4.2-3.9
					h136.3C292.9,272,294.8,274.1,294.7,276.6z"/>
				<path class="st0" d="M293.6,291.9L293.6,291.9c-0.2,2.2-2,3.9-4.2,3.9H153.1c-2.5,0-4.4-2.1-4.2-4.5l0,0c0.2-2.2,2-3.9,4.2-3.9
					h136.3C291.9,287.3,293.8,289.4,293.6,291.9z"/>
				<path class="st0" d="M292.6,307.1L292.6,307.1c-0.2,2.2-2,3.9-4.2,3.9H152.1c-2.5,0-4.4-2.1-4.2-4.5v0c0.2-2.2,2-3.9,4.2-3.9
					h136.3C290.9,302.6,292.8,304.7,292.6,307.1z"/>
			</g>
			<g>
				<path class="st2" d="M382.7,179.9H155c-0.4,0-0.7-0.3-0.7-0.7c0-0.4,0.3-0.7,0.7-0.7h227.8c0.4,0,0.7,0.3,0.7,0.7
					C383.5,179.6,383.1,179.9,382.7,179.9z"/>
				<path class="st2" d="M372.8,170.9h-51.3c-0.4,0-0.7-0.3-0.7-0.7c0-0.4,0.3-0.7,0.7-0.7h51.3c0.4,0,0.7,0.3,0.7,0.7
					C373.6,170.6,373.2,170.9,372.8,170.9z"/>
				<path class="st2" d="M381.4,200H154.1c-0.4,0-0.7-0.3-0.7-0.7s0.3-0.7,0.7-0.7h227.3c0.4,0,0.7,0.3,0.7,0.7S381.8,200,381.4,200
					z"/>
				<path class="st2" d="M380,220.1H152.3c-0.4,0-0.7-0.3-0.7-0.7s0.3-0.7,0.7-0.7H380c0.4,0,0.7,0.3,0.7,0.7S380.4,220.1,380,220.1
					z"/>
				<path class="st2" d="M378.7,240.2H151.3c-0.4,0-0.7-0.3-0.7-0.7c0-0.4,0.3-0.7,0.7-0.7h227.3c0.4,0,0.7,0.3,0.7,0.7
					C379.4,239.9,379.1,240.2,378.7,240.2z"/>
				<path class="st2" d="M199.3,259.2C199.3,259.2,199.3,259.2,199.3,259.2c-0.4,0-0.7-0.4-0.7-0.7l6.5-99.3c0-0.4,0.4-0.7,0.7-0.7
					c0.4,0,0.7,0.4,0.7,0.7l-6.5,99.3C200,258.9,199.7,259.2,199.3,259.2z"/>
				<path class="st2" d="M288.5,170.9H257c-0.4,0-0.7-0.3-0.7-0.7c0-0.4,0.3-0.7,0.7-0.7h31.5c0.4,0,0.7,0.3,0.7,0.7
					C289.2,170.6,288.9,170.9,288.5,170.9z"/>
				<path class="st2" d="M195.7,170.9h-31.2c-0.4,0-0.7-0.3-0.7-0.7c0-0.4,0.3-0.7,0.7-0.7h31.2c0.4,0,0.7,0.3,0.7,0.7
					C196.4,170.6,196.1,170.9,195.7,170.9z"/>
				<path class="st2" d="M378.1,260.4H148.6l0-0.7l6.7-101.2h229.6l0,0.7L378.1,260.4z M150.1,259h226.8l6.5-99.1H156.6L150.1,259z"
					/>
			</g>
		</g>
	</g>
	<g>
		<path class="st2" d="M181.6,55.1l20.6-10.8c16.8-8.8,32.4-19.7,46.4-32.4l0.9-6.4c0,0,7.1-0.1,8.6-0.2c1.9-0.2,3.9,0.5,5.4,1.9v0
			c16,14.8,34,27.2,53.5,36.8l13.8,6.8c3.2,1.6,4.5,4.5,3.6,8.7l-15.9,75.8c-7.2,21.3-37.8,50.3-55,65.5c-3.1,2.8-7,4.2-10.9,4.2
			c-1.7,0-8.9,0.4-8.9,0.4s-1.6-3-3.7-5c-16.2-15.7-44.8-45.9-51.1-70.1L178,63.2C177.1,60,178.6,56.7,181.6,55.1z"/>
		<path class="st3" d="M173.7,55.8L194.1,45c16.6-8.7,32.1-19.5,46-32.2l5.2-4.7c2.7-2.5,6.9-2.4,9.6,0.1l0,0
			c15.8,14.7,33.7,27,53.1,36.5l13.7,6.7c3.2,1.6,4.7,5.2,3.6,8.6l-15.8,75.2c-7.2,21.1-37.8,50.2-54.9,65.2
			c-6.6,5.8-16.6,5.6-22.9-0.5c-16.1-15.5-44.5-45.5-50.7-69.5l-11-66.6C169.3,60.6,170.8,57.3,173.7,55.8z"/>
		<path class="st2" d="M186.6,64.3l16.9-8.9c13.8-7.2,26.6-16.2,38.1-26.6l4.3-3.9c2.2-2,5.7-2,7.9,0l0,0
			c13.1,12.2,27.9,22.3,44,30.2l11.4,5.6c2.6,1.3,3.9,4.3,3,7.1l-13,62.3c-5.9,17.5-31.3,41.6-45.4,54c-5.5,4.8-13.7,4.6-19-0.4
			c-13.3-12.9-36.8-37.7-42-57.6l-9.1-55.1C183,68.3,184.2,65.6,186.6,64.3z"/>
		<path class="st4" d="M243.6,205.3c-4.4,0-8.9-1.6-12.3-4.9c-3-2.9-5.9-5.8-8.8-8.7c-0.3-0.3-0.3-0.7,0-1c0.3-0.3,0.7-0.3,1,0
			c2.8,2.9,5.8,5.8,8.8,8.7c6,5.8,15.7,6,22,0.5c7.2-6.3,17.9-16.1,27.9-26.8c0.3-0.3,0.7-0.3,1,0c0.3,0.3,0.3,0.7,0,1
			c-10,10.7-20.8,20.5-28,26.9C251.9,203.9,247.7,205.3,243.6,205.3z"/>
		<path class="st4" d="M305,145.7c-0.1,0-0.2,0-0.4-0.1c-0.3-0.2-0.5-0.6-0.3-1c2-3.4,3.5-6.6,4.5-9.6l15.7-75.2c0,0,0-0.1,0-0.1
			c1-3-0.4-6.4-3.2-7.8l-13.7-6.7c-19.5-9.5-37.4-21.8-53.3-36.6c-2.4-2.2-6.2-2.2-8.6,0l-5.2,4.7c-13.9,12.7-29.5,23.5-46.1,32.3
			L180,53.2c-0.3,0.2-0.8,0-0.9-0.3c-0.2-0.3,0-0.8,0.3-0.9l14.5-7.6c16.6-8.7,32-19.5,45.9-32.1l5.2-4.7c3-2.7,7.6-2.7,10.5,0.1
			c15.8,14.7,33.6,26.9,53,36.4l13.7,6.7c3.5,1.7,5.2,5.7,4,9.4l-15.7,75.2c0,0,0,0.1,0,0.1c-1,3-2.6,6.3-4.6,9.9
			C305.5,145.5,305.3,145.7,305,145.7z"/>
		<g>
			<path class="st3" d="M238.5,63.5l-4.7,73.1c-0.2,2.5,1.8,4.5,4.2,4.5h19.6c2.2,0,4.1-1.7,4.2-4l4.7-73.1c0.2-2.5-1.8-4.5-4.2-4.5
				h-19.6C240.5,59.5,238.6,61.3,238.5,63.5z"/>
			<path class="st3" d="M210,90.7l-1.2,19.2c-0.1,2.4,1.8,4.5,4.2,4.5h73.1c2.2,0,4.1-1.8,4.2-4l1.2-19.2c0.1-2.4-1.8-4.5-4.2-4.5
				h-73.1C212,86.7,210.1,88.5,210,90.7z"/>
		</g>
	</g>
	<g>
		<g>
			<g>
				<g>
					<path class="st1" d="M127.5,240.5l16.3,4.2c14.7,3.8,30.9-0.9,45.9-3.5l10.2-1.8l-1.2-17.7l-60.4,2.3L127.5,240.5z"/>
					<path class="st4" d="M155.9,246.8c-4.1,0-8.2-0.4-12.2-1.4l-16.3-4.2c-0.2-0.1-0.4-0.2-0.5-0.4c-0.1-0.2-0.1-0.4,0.1-0.6
						l10.8-16.5c0.1-0.2,0.3-0.3,0.6-0.3l60.4-2.3c0.4,0,0.7,0.3,0.7,0.7l1.2,17.7c0,0.4-0.2,0.7-0.6,0.7l-10.2,1.8
						c-2.8,0.5-5.7,1.1-8.6,1.6C172.8,245.1,164.3,246.8,155.9,246.8z M128.7,240l15.3,4c11.8,3.1,24.6,0.5,37-1.9
						c2.8-0.6,5.8-1.1,8.6-1.6l9.6-1.7l-1.1-16.4l-59.4,2.3L128.7,240z"/>
				</g>
				<g>
					<polygon class="st3" points="150,360.2 151.7,371.9 159.7,372.6 159.2,358.6 					"/>
					<path class="st4" d="M159.7,373.3C159.6,373.3,159.6,373.3,159.7,373.3l-8.1-0.7c-0.3,0-0.6-0.3-0.6-0.6l-1.6-11.7
						c-0.1-0.4,0.2-0.7,0.6-0.8l9.2-1.6c0.2,0,0.4,0,0.6,0.1c0.2,0.1,0.3,0.3,0.3,0.5l0.5,14c0,0.2-0.1,0.4-0.2,0.5
						C160,373.2,159.8,373.3,159.7,373.3z M152.3,371.2l6.6,0.5l-0.4-12.4l-7.7,1.3L152.3,371.2z"/>
				</g>
				<g>
					<g>
						<path class="st1" d="M160,393.5c-3.3,0.4-8.8,0.6-15.1-0.4c-2.1-0.3-3.4-2.4-2.9-4.5c1.6-5.7,4.3-16.5,8.6-21.4l1,2.8l1.5-2.5
							c0.2-0.3,0.6-0.6,1-0.6l2.2-0.1c0.7-0.1,1.3,0.4,1.4,1l0.4,2.4l2.5-3.3l0.6,9.2c0.2,2.9,0.6,5.8,1.1,8.7l0.9,4.8
							C163.3,391.5,161.9,393.3,160,393.5z"/>
						<path class="st4" d="M154,394.5c-2.7,0-5.9-0.2-9.3-0.8c-1.2-0.2-2.3-0.9-2.9-1.9c-0.6-1-0.8-2.3-0.5-3.4l0.3-1.2
							c1.6-5.9,4.3-15.7,8.4-20.4c0.2-0.2,0.4-0.3,0.7-0.2c0.2,0,0.4,0.2,0.5,0.5l0.5,1.3l0.7-1.2c0.3-0.5,0.9-0.9,1.5-1l2.3-0.1
							c1-0.1,1.9,0.6,2.1,1.6l0.1,0.8l1.5-2c0.2-0.2,0.5-0.3,0.8-0.2c0.3,0.1,0.5,0.3,0.5,0.6l0.6,9.2c0.2,2.9,0.6,5.8,1.1,8.6
							l0.9,4.8c0,0,0,0,0,0.1c0.2,2.3-1.4,4.4-3.7,4.7C158.5,394.4,156.4,394.5,154,394.5z M150.3,368.7c-3.5,4.8-5.9,13.5-7.3,18.9
							l-0.3,1.2c-0.2,0.8-0.1,1.6,0.3,2.3c0.4,0.7,1.2,1.2,2,1.3c6.2,1,11.6,0.8,15,0.4l0,0c1.5-0.2,2.7-1.6,2.5-3.1l-0.9-4.8
							c-0.5-2.9-0.9-5.9-1.1-8.8l-0.5-7.3l-1.4,1.8c-0.2,0.2-0.5,0.3-0.7,0.3c-0.3-0.1-0.5-0.3-0.5-0.6l-0.4-2.4
							c-0.1-0.3-0.3-0.5-0.6-0.5l-2.3,0.1c-0.1,0-0.3,0.1-0.4,0.3l-1.5,2.5c-0.1,0.2-0.4,0.4-0.7,0.3c-0.3,0-0.5-0.2-0.6-0.5
							L150.3,368.7z"/>
					</g>
					<path class="st4" d="M151.9,390.7c-2.4,0-5.1-0.2-7.8-0.9c-0.4-0.1-0.6-0.5-0.5-0.9c0.1-0.4,0.5-0.6,0.9-0.5
						c7.7,2,15.9-0.1,16-0.1c0.4-0.1,0.8,0.1,0.9,0.5c0.1,0.4-0.1,0.8-0.5,0.9C160.5,389.8,156.7,390.7,151.9,390.7z"/>
					<path class="st4" d="M149.2,381.9c-0.4,0-0.7-0.3-0.7-0.7c0-0.4,0.3-0.7,0.7-0.7l7.5,0c0,0,0,0,0,0c0.4,0,0.7,0.3,0.7,0.7
						c0,0.4-0.3,0.7-0.7,0.7L149.2,381.9C149.2,381.9,149.2,381.9,149.2,381.9z"/>
				</g>
				<g>
					<polygon class="st3" points="187.1,352.6 188.9,369.7 198.5,369.4 198.3,352.2 					"/>
					<path class="st4" d="M188.9,370.4c-0.4,0-0.7-0.3-0.7-0.6l-1.8-17.1c0-0.2,0-0.4,0.2-0.5c0.1-0.1,0.3-0.2,0.5-0.2l11.2-0.4
						c0.2,0,0.4,0.1,0.5,0.2c0.1,0.1,0.2,0.3,0.2,0.5l0.2,17.2c0,0.4-0.3,0.7-0.7,0.7L188.9,370.4
						C188.9,370.4,188.9,370.4,188.9,370.4z M187.9,353.3l1.6,15.7l8.2-0.3l-0.1-15.8L187.9,353.3z"/>
				</g>
				<g>
					<g>
						<path class="st1" d="M186.7,379.5c0,1.6,1.2,3,2.8,3.3c5.6,1.1,18.1,3.5,21.6,3.9c4.6,0.5,11.3-1.3,12.6-3.9
							c1.6-3.3-5.8-8.9-9.6-11.1c-5.7-3.3-11.2-9.9-13.5-10.2c-2.2-0.2-6.2,6.4-6.2,6.4l-6.9-2.6
							C187.5,365.4,186.6,371.3,186.7,379.5z"/>
						<path class="st4" d="M212.8,387.6c-0.6,0-1.2,0-1.7-0.1c-3.6-0.4-16.4-2.9-21.7-3.9c-1.9-0.4-3.3-2.1-3.4-4v0
							c-0.2-8.2,0.8-14.2,0.8-14.3c0-0.2,0.2-0.4,0.3-0.5c0.2-0.1,0.4-0.1,0.6,0l6.4,2.4c1.1-1.8,4.1-6.2,6.4-6.2c0.1,0,0.1,0,0.2,0
							c1.3,0.1,3,1.6,5.9,4.1c2.4,2.1,5.1,4.5,7.9,6.1c3.2,1.8,11.8,8,9.8,12C223.1,385.8,217.4,387.6,212.8,387.6z M188.1,366.4
							c-0.3,1.9-0.8,6.9-0.7,13.2c0,0,0,0,0,0c0,1.3,1,2.4,2.2,2.7c5.3,1,18,3.5,21.6,3.9c4.5,0.5,10.8-1.3,11.8-3.5
							c1.2-2.4-4.7-7.6-9.3-10.2c-2.9-1.7-5.7-4.1-8.1-6.3c-2.1-1.8-4.2-3.7-5.1-3.8c-1.1-0.1-3.7,3.1-5.5,6.1
							c-0.2,0.3-0.5,0.4-0.9,0.3L188.1,366.4z"/>
					</g>
					<path class="st4" d="M212.9,383.3c-9,0-21.9-3.3-23.8-3.8c-0.4-0.1-0.6-0.5-0.5-0.9c0.1-0.4,0.5-0.6,0.9-0.5
						c7.5,1.9,27.5,6.1,30.6,2c0.2-0.3,0.7-0.4,1-0.1c0.3,0.2,0.4,0.7,0.1,1C219.8,382.7,216.7,383.3,212.9,383.3z"/>
					<path class="st4" d="M202.4,374.4c-0.2,0-0.4-0.1-0.5-0.2c-0.3-0.3-0.3-0.7,0-1l4.7-4.6c0.3-0.3,0.7-0.3,1,0
						c0.3,0.3,0.3,0.7,0,1l-4.7,4.6C202.7,374.3,202.5,374.4,202.4,374.4z"/>
				</g>
				<path class="st4" d="M144.3,225.3c0,0-2.2,70.5-3.1,89.1c-0.7,15,3.2,37.1,4.7,45.1c0.3,1.8,2,3,3.7,2.8l8.4-0.7
					c1.8-0.2,3.2-1.7,3.2-3.5c0-7-0.1-24.1,0.2-35.3c0.1-4.6,0.9-9.2,2.4-13.6c1.8-5.2,4.2-13.1,5.1-20.4
					c1.4-12.2,7.1-31.7,7.1-31.7s7.4,83.1,9,100.6c0.1,1.6,1.5,2.7,3.1,2.7c3.1-0.1,7.4,0.4,10.6-0.9c1-0.4,1.7-1.2,1.8-2.3
					c1.1-6.8,6.4-37,4.9-53.7c-1.7-19-3-82.1-3-82.1L144.3,225.3z"/>
			</g>
			<g>
				<path class="st2" d="M134.5,228.6c0,0,22.5,6.6,42.7,7.4c12,0.5,20-3,20-3l-11.4-92.5c0,0-0.6-7.2-13.3-10.6
					c-6.8-1.8-12,6.1-12,6.1L134.5,228.6z"/>
				<g>
					<path class="st1" d="M145.7,165.6c-4.5-2.8-15.6,1-24.4-1.3c-8.8-2.2-26.7-7.6-26.5-24.6c0.2-15.8,16.9-10.1,21-0.9
						c1.4,3.2,18.9-0.8,23.5-2.9c7.7-3.5,15-1.7,15-1.7L145.7,165.6z"/>
					<path class="st4" d="M145.7,166.3c-0.1,0-0.3,0-0.4-0.1c-2.1-1.3-6-1-10.5-0.7c-4.4,0.3-9.3,0.7-13.7-0.5
						c-6.7-1.7-27.2-6.9-27-25.3c0.1-7.9,4.2-9.9,6.6-10.4c5.6-1.2,13.1,3.2,15.8,9.2c0.1,0.2,0.3,0.3,0.6,0.4
						c3.7,1.4,17.5-1.6,21.9-3.7c7.8-3.6,15.1-1.8,15.4-1.8c0.2,0,0.3,0.2,0.4,0.3c0.1,0.2,0.1,0.4,0.1,0.5l-8.6,31.4
						c-0.1,0.2-0.2,0.4-0.4,0.5C145.9,166.3,145.8,166.3,145.7,166.3z M140.1,163.8c2,0,3.7,0.2,5.1,0.8l8.2-29.8
						c-2-0.3-7.8-0.9-13.8,1.8c-4.1,1.9-18.7,5.3-23,3.7c-0.7-0.3-1.2-0.7-1.4-1.2c-2.4-5.3-9.3-9.4-14.2-8.4
						c-3.5,0.7-5.4,3.9-5.5,9.1c-0.2,17.3,19.5,22.3,26,23.9c4.2,1.1,9,0.7,13.2,0.4C136.7,163.9,138.5,163.8,140.1,163.8z"/>
				</g>
				<g>
					<path class="st1" d="M169.7,125.2c10.6,1.1,16.3,8,22,16.1c0,0,32,8.2,29,40.2c-0.9,9.8-3.7,22.7-11.5,19.7
						c-7.8-3-10.1-5.8-10.1-5.8s2.9,9,3.4,16.4c0.2,3.1,0.3,5.7,0.3,7.8c0,3.4,0.4,6.7,1.3,10l1.1,4.1c0.8,2.9-0.1,6.1-2.3,8.1
						c-3.3,3.1-8,5.6-15.4,5.3c0,0,0.6-15-1.1-23.4c-0.8-4-3.1-21.2-3.6-37.7c-0.4-11.1,6.4-35.8,0.5-44c-1.4-1.9-20.7-9.2-21.7-7
						c-2.9,6.1-2.3,10.6-2.8,13.6c-2.8,20.1-3.5,22.5-10.6,39.7c-7.9,19.1-6.2,23.9-9.9,60.5c0,0-7.4-5.7-11.2-8.4
						c0,0,4.9-49.9,7.8-58.6s4.4-20.5,1.3-24.8l11.3-15.3C147.4,141.8,150.1,123.3,169.7,125.2z"/>
					<path class="st4" d="M138.3,249.6c-0.2,0-0.3,0-0.4-0.1c-0.1-0.1-7.5-5.8-11.2-8.4c-0.2-0.1-0.3-0.4-0.3-0.6
						c0.2-2,5-50,7.8-58.7c2.8-8.7,4.3-20.1,1.4-24.2c-0.2-0.2-0.2-0.6,0-0.8l11.2-15.1c0.4-2,4.1-18.9,23-17
						c10.9,1.1,16.8,8.3,22.3,16.2c1.5,0.4,8.6,2.6,15.6,8.2c7.1,5.6,15.2,15.9,13.6,32.7c-0.7,7.5-2.5,17.1-7.1,19.9
						c-1.6,1-3.4,1.1-5.3,0.3c-4.3-1.7-6.9-3.3-8.5-4.4c0.9,3.2,2.4,9.1,2.8,14.3c0.2,2.7,0.3,5.3,0.3,7.8c0,3.3,0.4,6.6,1.3,9.8
						l1.1,4.1c0.8,3.2-0.1,6.6-2.5,8.8c-4.3,4-9.5,5.8-15.9,5.5c-0.4,0-0.7-0.3-0.7-0.7c0-0.1,0.6-15-1.1-23.2
						c-0.8-4.1-3.1-21.3-3.7-37.8c-0.1-3.8,0.6-9.2,1.3-14.9c1.4-11,3.1-23.5-0.7-28.8c-0.5-0.6-4.7-2.7-10.1-4.6
						c-6.6-2.3-9.9-2.7-10.5-2.4c-2.1,4.5-2.3,8-2.5,10.8c0,0.9-0.1,1.8-0.2,2.5c-2.8,20.1-3.4,22.4-10.6,39.9
						c-5.9,14.3-6.4,20.4-7.9,38.4c-0.5,5.8-1.1,12.9-2,21.9c0,0.3-0.2,0.5-0.4,0.6C138.4,249.6,138.3,249.6,138.3,249.6z
						 M127.8,240.2c3,2.1,7.8,5.8,9.9,7.4c0.8-8.4,1.4-15.2,1.8-20.6c1.5-17.7,2-24.3,8-38.8c7.2-17.4,7.7-19.6,10.5-39.5
						c0.1-0.7,0.1-1.5,0.2-2.4c0.1-2.8,0.4-6.7,2.6-11.4c0.2-0.5,0.7-0.7,1.5-0.8c4.2-0.4,20,5.7,21.5,7.7c4.1,5.7,2.4,18.5,1,29.8
						c-0.7,5.6-1.4,10.9-1.3,14.7c0.6,16.4,2.8,33.5,3.6,37.6c1.5,7.5,1.2,19.8,1.1,22.9c5.7,0.1,10.4-1.6,14.2-5.1
						c2-1.9,2.8-4.7,2.1-7.4l-1.1-4.1c-0.9-3.3-1.3-6.7-1.3-10.2c0-2.5-0.1-5.1-0.3-7.7c-0.6-7.2-3.4-16.1-3.4-16.2
						c-0.1-0.3,0-0.7,0.3-0.8c0.3-0.2,0.7-0.1,0.9,0.2c0,0,2.4,2.7,9.8,5.6c1.5,0.6,2.9,0.5,4.1-0.2c3.2-2,5.5-8.7,6.5-18.9
						c1.2-13-3.2-23.6-13.1-31.5c-7.4-5.9-15.3-8-15.4-8c-0.2,0-0.3-0.1-0.4-0.3c-5.6-8-11.1-14.8-21.5-15.8l0,0
						c-7.8-0.8-13.8,1.7-17.8,7.3c-3,4.2-3.7,8.7-3.7,8.7c0,0.1-0.1,0.2-0.1,0.3l-11,14.9c2.8,4.8,1.4,16.1-1.5,25
						C132.8,190.3,128.2,235.4,127.8,240.2z"/>
				</g>
				<g>
					<path class="st3" d="M121.5,103.1c0,0-3.4,10.8-5.2,23.2c-1.5,10.5-2.4,13.2-5.4,15.5c-3.1,2.3-7.9,3.1-11.6-3.1
						c-3.7-6.2,16.1-40.3,17.2-43.5c1.6-4.5,5.1-7.6,9.5-8.5c3.6-0.7,8.3-0.2,10.8,1.6c1.1,0.8,6.9,5.6,5.7,8.2
						c-1.1,2.3-4.1,3.1-11.6,0.1c0,0,5.9,4.5,4.9,5.9c-1,1.5-2.5,0.2-5-1.4C128,99.5,123.2,98.5,121.5,103.1z"/>
					<path class="st4" d="M106.2,144.2c-0.5,0-0.9,0-1.4-0.1c-2.4-0.5-4.5-2.2-6.2-5c-2.7-4.6,5.2-21.2,14.3-38.4
						c1.5-2.8,2.6-5,2.9-5.7c1.7-4.7,5.4-8,10-9c4-0.8,8.9-0.1,11.4,1.7c0.1,0.1,7.5,5.7,5.9,9.1c-1.2,2.5-4.1,3.1-8.9,1.7
						c1.6,1.6,2.9,3.3,2.2,4.4c-1.3,1.9-3.1,0.7-5-0.6c-0.3-0.2-0.6-0.4-1-0.6c-1.4-0.9-3.8-1.7-5.7-1.1c-1.2,0.4-2,1.3-2.5,2.6
						c-0.2,0.5-3.4,11.1-5.1,23.1c-1.5,10.5-2.4,13.5-5.7,16C109.7,143.6,108,144.2,106.2,144.2z M129.2,87.1
						c-1.1,0-2.1,0.1-3.1,0.3c-4.1,0.8-7.4,3.8-8.9,8c-0.3,0.7-1.3,2.8-2.9,5.9c-5.1,9.7-17,32.4-14.3,37c1.5,2.5,3.2,4,5.2,4.4
						c2.4,0.5,4.4-0.7,5.4-1.4c2.8-2.1,3.6-4.5,5.1-15.1c1.8-12.3,5.2-23.2,5.2-23.3c0,0,0,0,0,0c0.7-1.8,1.9-3,3.4-3.5
						c2.4-0.8,5.1,0.1,6.9,1.3c0.3,0.2,0.7,0.4,1,0.6c2.1,1.4,2.6,1.6,3,0.9c0.1-0.6-2.2-3-4.8-5c-0.3-0.2-0.4-0.6-0.2-0.9
						c0.2-0.3,0.5-0.4,0.9-0.3c8.2,3.2,10,1.7,10.7,0.2c0.8-1.8-3.5-6-5.4-7.4C134.8,87.8,132,87.1,129.2,87.1z"/>
				</g>
			</g>
			<g>
				<g>
					<path class="st3" d="M172,118.9l-3.9,9.9c-5.3,3.1-6.4,6.1-6.4,6.1c4.4,7.7,12.1,10.3,21.2,7.4l0.3-0.2c0,0-3.9-3.7-3.4-8.6
						l5.4-18.7L172,118.9z"/>
					<path class="st4" d="M176,144.1c-6.3,0-11.6-3.1-14.9-8.9c-0.1-0.2-0.1-0.4,0-0.6c0-0.1,1.2-3.2,6.5-6.3l3.8-9.7
						c0.1-0.2,0.2-0.4,0.4-0.4l13.2-4.1c0.2-0.1,0.5,0,0.7,0.2c0.2,0.2,0.3,0.4,0.2,0.7l-5.3,18.6c-0.4,4.4,3.1,7.9,3.2,7.9
						c0.2,0.2,0.2,0.4,0.2,0.6c0,0.2-0.2,0.4-0.4,0.5l-0.3,0.2c0,0-0.1,0-0.1,0.1C180.6,143.7,178.2,144.1,176,144.1z M162.5,134.8
						c4.2,6.9,11.1,9.4,19.6,6.9c-1.2-1.4-3.3-4.5-2.9-8.3c0,0,0-0.1,0-0.1l5-17.4l-11.7,3.6l-3.8,9.6c-0.1,0.1-0.2,0.3-0.3,0.3
						C164.4,131.8,162.9,134,162.5,134.8z M168.1,128.8L168.1,128.8L168.1,128.8z"/>
				</g>
				<g>
					<g>
						<path class="st4" d="M169.1,92c3.9,0.4-0.1,4.3,14.4,2.3c5.9-0.8,2,5.4,3.5,5.2c5.7-0.7,7.4,1.5,8.5,2.6
							c1.3,1.3,2.3,4.2,1.6,6.5c-1,3.1-5.3,3.4-8.8,9.7c-2.4,4.4-2.5,7.4-4.5,7.7c-2,0.4-3-2.4-5.3-2.2c-2.9,0.3-3.2,5.2-6.2,6.7
							c-1.9,1-6,0.9-11.9-3.3c-1-0.7-1.3-1.9-0.8-3c0.6-1.4,1.4-3.1,2.3-4.6c4.3-7.5,7.5-8.8,6.8-11c-1.1-3.4-7.4-2.6-7.9-5.4
							C160.1,100.5,163.7,91.4,169.1,92z"/>
						<g>
							<path class="st3" d="M179.4,109.7L179.4,109.7c-0.7,0.9-1.3,1.8-1.9,2.8c-1,1.8-2.8,4.9-4,6.5c-1.4,2-7.6-1.1-9.5-2.2
								c-0.3-0.2-0.4-0.6-0.2-0.9l1-1.8l-1.5-0.7c-0.2-0.1-0.3-0.3-0.4-0.4c-0.2-0.5-0.2-1,0.2-1.3c1.7-1.8,4.8-4.8,6.7-8.7
								c0.2-0.4,0.6-0.7,1.1-0.6c1.5,0.1,5.1,0.5,8.2,3.5C180.2,106.8,180.3,108.5,179.4,109.7z"/>
							<path class="st4" d="M171.9,120.3c-2.2,0-5.4-1.5-8.1-2.9c-0.3-0.2-0.5-0.5-0.6-0.8c-0.1-0.4,0-0.7,0.2-1l0.6-1.1L163,114
								c-0.3-0.2-0.5-0.4-0.7-0.7c-0.4-0.7-0.3-1.6,0.3-2.2l0.5-0.5c1.7-1.8,4.4-4.5,6.1-8c0.3-0.7,1-1.1,1.7-1
								c1.5,0,5.4,0.5,8.7,3.6c1.4,1.3,1.5,3.4,0.4,4.9l0,0c-0.7,0.8-1.3,1.7-1.8,2.7c-1.2,2.1-2.9,5-4,6.6
								C173.6,120.1,172.8,120.3,171.9,120.3z M164.5,116.2c4.3,2.4,7.8,3.3,8.5,2.4c1.1-1.6,3-4.8,3.9-6.5c0.6-1,1.2-1.9,1.9-2.8
								c0.7-0.9,0.6-2.2-0.2-3c-2.9-2.8-6.4-3.2-7.8-3.3c-0.2,0-0.3,0.1-0.4,0.2c-1.8,3.7-4.5,6.5-6.3,8.4l-0.5,0.5
								c-0.1,0.1-0.2,0.3-0.1,0.5c0,0.1,0.1,0.1,0.1,0.2l2.2,1L164.5,116.2z"/>
						</g>
						<path class="st3" d="M179,117.1c3.7,2.3,5.8-1.1,5.4-3.6c-0.2-1-1.4-1.4-2.1-0.7l-3.4,3.5C178.7,116.6,178.7,116.9,179,117.1z
							"/>
					</g>
				</g>
			</g>
		</g>
		<g>
			<g>
				<g>
					<g>
						<path class="st3" d="M142.4,186.5l-2.3,5.9c-0.6,1.7,0.3,3.5,1.9,3.9l1.8,0.5c1.5,0.4,3-0.6,3.5-2.1l2.7-7.5L142.4,186.5z"/>
						<path class="st4" d="M144.5,197.6c-0.3,0-0.6,0-0.9-0.1l-1.8-0.5c-0.9-0.2-1.7-0.8-2.1-1.7c-0.5-0.9-0.6-2-0.3-3.1l2.3-5.9
							c0.1-0.3,0.4-0.5,0.7-0.4l7.7,0.6c0.2,0,0.4,0.1,0.5,0.3c0.1,0.2,0.1,0.4,0.1,0.6l-2.7,7.5
							C147.5,196.5,146.1,197.6,144.5,197.6z M142.9,187.3l-2.1,5.4c-0.2,0.6-0.1,1.3,0.2,1.9c0.3,0.5,0.7,0.9,1.3,1l1.8,0.5
							c1.1,0.3,2.3-0.4,2.7-1.7l2.4-6.7L142.9,187.3z"/>
					</g>
					<g>
						<path class="st3" d="M139.7,192.7c0,0-2.5,1.6-3.5,3.8c-0.9,2.2-2.7,6.9-1.2,7.8c1.1,0.6,13.7,2.4,20,3.3
							c2,0.3,3.4-1.9,2.4-3.6c-0.8-1.3-2.5-2.8-4.5-4.1c-3.1-2.1-4.4-3.6-5-4.6c-0.4-0.7-1.3-1-2-0.7l-4.1,1.6L139.7,192.7z"/>
						<path class="st4" d="M155.4,208.3c-0.1,0-0.3,0-0.4,0c-18.9-2.7-19.9-3.2-20.2-3.4c-0.6-0.3-2.3-1.2,0.9-8.6
							c1-2.4,3.6-4.1,3.7-4.2c0.2-0.1,0.4-0.1,0.5-0.1c0.2,0,0.3,0.2,0.4,0.3l1.7,3l3.5-1.4c1.1-0.4,2.3,0,2.9,1
							c0.5,0.9,1.8,2.4,4.8,4.4c2.3,1.5,3.9,3.1,4.7,4.4c0.6,1,0.6,2.3-0.1,3.3C157.4,207.8,156.4,208.3,155.4,208.3z M139.5,193.7
							c-0.8,0.6-2,1.7-2.6,3.1c-2,4.7-1.9,6.7-1.5,6.9c0.3,0.1,2.6,0.8,19.8,3.2c0.8,0.1,1.4-0.3,1.6-0.7c0.4-0.5,0.4-1.2,0-1.7
							c-0.7-1.1-2.3-2.6-4.3-3.9c-2.6-1.7-4.4-3.4-5.3-4.9c-0.2-0.4-0.7-0.6-1.1-0.4l-4.1,1.6c-0.3,0.1-0.7,0-0.9-0.3L139.5,193.7z"
							/>
					</g>
					<path class="st4" d="M145.7,201.7c-0.3,0-0.5-0.2-0.6-0.4c-0.2-0.4,0-0.8,0.3-0.9l3.4-1.6c0.4-0.2,0.8,0,0.9,0.3
						c0.2,0.4,0,0.8-0.3,0.9l-3.4,1.6C145.9,201.7,145.8,201.7,145.7,201.7z"/>
				</g>
				<g>
					<g>
						<path class="st3" d="M123.8,193.3l-2.9,8.6c-0.4,1.7,0.6,3.4,2.1,3.7l1.8,0.3c1.4,0.2,2.8-0.9,3.1-2.5l3.1-9L123.8,193.3z"/>
						<path class="st4" d="M125.3,206.6c-0.2,0-0.3,0-0.5,0l-1.8-0.3c-0.9-0.1-1.6-0.6-2.1-1.4c-0.6-0.9-0.8-2-0.6-3.1
							c0,0,0,0,0-0.1l2.9-8.6c0.1-0.3,0.4-0.5,0.8-0.5l7.2,1c0.2,0,0.4,0.1,0.5,0.3c0.1,0.2,0.1,0.4,0.1,0.6l-3.1,8.9
							C128.3,205.3,126.9,206.6,125.3,206.6z M121.7,202.1c-0.1,0.7,0,1.4,0.4,2c0.3,0.4,0.7,0.7,1.2,0.8l1.8,0.3
							c1.1,0.2,2.1-0.7,2.3-1.9c0,0,0-0.1,0-0.1l2.8-8.2l-5.8-0.8L121.7,202.1z"/>
					</g>
					<g>
						<path class="st3" d="M115.1,207.9c-0.6,0.9-0.4,2,0.3,2.7c2.6,2.5,8.4,8.2,10.1,9.6c2.3,1.9,5.8,3,8,2.3
							c2.2-0.7,0-6.8-1.2-9.3c-1.9-3.7-2.5-9.2-3.6-10.1c-1.1-0.9-5.5,1.2-5.5,1.2l-2.8-3.8C120.5,200.7,117.9,203.5,115.1,207.9z"
							/>
						<path class="st4" d="M132.1,223.5c-2.2,0-5-1-7-2.7c-1.8-1.5-7.7-7.3-10.2-9.7c-1-0.9-1.2-2.5-0.4-3.6v0
							c2.8-4.5,5.3-7.2,5.4-7.3c0.1-0.2,0.4-0.2,0.6-0.2c0.2,0,0.4,0.1,0.5,0.3l2.4,3.3c1.6-0.8,4.6-1.9,5.7-0.9
							c0.7,0.6,1.1,2,1.8,4.4c0.5,2,1.1,4.2,2,6c0.8,1.6,3,6.9,2,9.1c-0.2,0.6-0.7,0.9-1.2,1.1C133.3,223.4,132.7,223.5,132.1,223.5
							z M120.4,201.8c-0.9,1.1-2.8,3.4-4.7,6.5c0,0,0,0,0,0c-0.4,0.6-0.3,1.4,0.2,1.9c2.5,2.4,8.4,8.1,10.1,9.6
							c2.1,1.8,5.5,2.8,7.4,2.2c0.1,0,0.2-0.1,0.3-0.3c0.6-1.4-0.8-5.6-1.9-8c-1-1.9-1.6-4.2-2.1-6.2c-0.4-1.5-0.9-3.3-1.3-3.7
							c-0.4-0.3-2.7,0.3-4.8,1.3c-0.3,0.1-0.7,0.1-0.9-0.2L120.4,201.8z M115.1,207.9L115.1,207.9L115.1,207.9z"/>
					</g>
					<path class="st4" d="M125.5,211c-0.3,0-0.6-0.2-0.7-0.5c-0.1-0.4,0.2-0.8,0.5-0.8l3.3-0.7c0.4-0.1,0.8,0.2,0.8,0.5
						c0.1,0.4-0.2,0.8-0.5,0.8l-3.3,0.7C125.6,211,125.5,211,125.5,211z"/>
				</g>
				<path class="st4" d="M143.2,124.8c0,0,20.5,13.7,21.3,24.7c0.7,10-14.2,42-14.2,42s-9.2,0-10.9-3.6c0,0,8.3-28.5,2.8-36.4
					c-3.4-4.9-20.1-23.7-20.1-23.7L143.2,124.8z"/>
				<path class="st4" d="M112.6,125.8c0,0-2.9,12.1,7.4,16.9c5.1,2.4,6.4,2.1,7,4.7c2.5,9.8-3.7,36.7-5.5,44
					c-0.3,1.3,0.1,2.7,1.2,3.5c1.6,1.2,4.4,2.5,8.2,1.3c1-0.3,1.8-1.1,2.2-2.1c2.6-7.3,14-39.5,14.6-45.8
					c0.7-8.1-9.2-14.3-14.2-17.7C128.6,127.2,112.6,125.8,112.6,125.8z"/>
				<path class="st1" d="M141.9,171.5c-0.1,0-0.1,0-0.2,0c-0.4-0.1-0.6-0.5-0.4-0.9c3.3-10,6-19.4,6.2-22.3
					c0.6-6.9-8-12.8-12.1-15.6c-0.3-0.2-0.4-0.7-0.2-1c0.2-0.3,0.7-0.4,1-0.2c4.7,3.2,13.4,9.1,12.7,16.9c-0.3,3-2.9,12.3-6.3,22.6
					C142.5,171.3,142.2,171.5,141.9,171.5z"/>
			</g>
			<path class="st4" d="M113.1,86.8c-1.6-0.2-5.8-1.1-10.2-6.3c-6.1,4.4-13.9,3.2-18.1-1.9c-5.1-6.2-4.4-17.7,3-23.6
				c-5.9,0-7.5-2.3-8-3.2c-2.8-5.3,4.6-17.7,11.4-17.7c2.5,0,5.9,3.1,12.5,9.4c6.8,6.5,7.1,7.7,9.2,7.9c6.1,0.7,7.9-9.6,15.9-10.8
				c6.5-1,12.9,4.1,12.9,12c0,3.1-3.9,2.5-6.1,8.7C132.7,69.2,122.7,88.1,113.1,86.8z"/>
			<g>
				<g>
					<path class="st3" d="M149.6,77.6c5.6,0.3,11.2-0.4,16.5-2.2c0,0,4.2-1.5,3.7-3.3l-3.1-21.7c-0.3-2.4,0.4-4.9,1.9-6.7
						c1.7-2,4.2-4.3,6.8-4.7c4.8-0.6-1.7,8.1-1.8,10.6c-0.1,2.5,10.2,20.6,7.5,27.9c-4,10.8-33,15.9-33,15.9L149.6,77.6z"/>
					<path class="st4" d="M148.1,94.1c-0.2,0-0.3-0.1-0.5-0.2c-0.2-0.1-0.2-0.4-0.2-0.6l1.5-15.8c0-0.4,0.4-0.7,0.7-0.6
						c5.5,0.3,11-0.4,16.2-2.1c1.5-0.5,3.5-1.7,3.3-2.4c0,0,0-0.1,0-0.1L166,50.5c-0.4-2.6,0.4-5.3,2.1-7.3c1.7-2,4.4-4.5,7.3-4.9
						c1-0.1,1.8,0.1,2.2,0.7c1,1.4-0.3,4.1-1.7,6.9c-0.7,1.4-1.5,3-1.5,3.7c0,0.6,1.1,3.1,2.1,5.6c2.9,6.8,7.3,17.2,5.3,22.5
						c-4.1,11.1-32.3,16.1-33.5,16.3C148.2,94.1,148.2,94.1,148.1,94.1z M150.3,78.3l-1.3,14.2c4.9-1,28.1-6,31.6-15.3
						c1.8-4.8-2.7-15.3-5.3-21.5c-1.5-3.6-2.2-5.3-2.2-6.2c0-1,0.8-2.5,1.6-4.2c0.9-1.8,2.3-4.8,1.8-5.5c-0.1-0.1-0.4-0.2-0.9-0.1
						c-2.4,0.3-4.8,2.6-6.4,4.4c-1.4,1.7-2.1,4-1.8,6.2l3.1,21.6c0.6,2.2-3.4,3.8-4.2,4.1C161.1,77.8,155.7,78.5,150.3,78.3z"/>
				</g>
				<g>
					<path class="st3" d="M114.6,86.6l-6.9-7.6c-8.9,7.9-13.4,9.1-13.4,9.1c-1.1,0.5-2.4,0-3-1c-2.5-4.3-8.6-14.7-10.7-17
						c-2.7-2.9-10.9-5.9-12.7-3.3c-2.7,3.9,3.6,4.8,7,8c1.7,1.6,8.9,29.2,21.5,29.2C104.1,103.9,114.6,86.6,114.6,86.6z"/>
					<path class="st4" d="M96.4,104.6C96.4,104.6,96.4,104.6,96.4,104.6c-10.3,0-17-17.1-20.2-25.3c-0.7-1.9-1.5-3.8-1.8-4.1
						c-1.1-1-2.4-1.8-3.8-2.5c-2-1.1-3.7-2.1-4.1-3.7c-0.2-0.9,0-1.7,0.7-2.7c0.5-0.8,1.5-1.2,2.7-1.3c3.3-0.2,8.8,2,11.1,4.6
						c2.2,2.4,8.3,12.8,10.8,17.2c0.4,0.7,1.3,1,2.1,0.7c0,0,0.1,0,0.1,0c0,0,4.5-1.2,13.1-8.9c0.3-0.3,0.7-0.2,1,0.1l6.9,7.6
						c0.2,0.2,0.2,0.6,0.1,0.8C114.8,87.7,104.4,104.6,96.4,104.6z M70.5,66.4c-0.1,0-0.2,0-0.4,0c-0.6,0-1.3,0.2-1.7,0.7
						c-0.4,0.6-0.6,1.2-0.5,1.6c0.2,1,1.8,1.8,3.4,2.7c1.3,0.7,2.9,1.6,4,2.7c0.5,0.4,1,1.7,2.1,4.6c3.1,7.9,9.6,24.4,18.9,24.4
						c0,0,0,0,0,0c6.6,0,15.7-13.8,17.4-16.5l-6.1-6.7c-8.1,7.2-12.6,8.6-13.1,8.7c-1.4,0.6-3.1,0-3.8-1.3
						c-2-3.4-8.5-14.6-10.6-16.9C78.2,68.4,73.4,66.4,70.5,66.4z"/>
				</g>
				<g>
					<path class="st2" d="M155.8,76.7l-4,13.4c-1.2,3.7-2,7.5-2.3,11.4l-2.2,24.2c0,0-13,8.5-37.4,0.9l-1-23
						c-0.2-4.8-1.1-9.5-2.5-14.1l-3-9.2c0,0,6.3-4.5,12.8-6.1C125.3,71.8,148.4,71.6,155.8,76.7z"/>
					<path class="st4" d="M129.3,130.5c-5.4,0-11.9-0.8-19.6-3.2l-0.5-0.1l-1-23.5c-0.2-4.7-1-9.4-2.5-13.9l-3.2-9.7l0.4-0.3
						c0.3-0.2,6.5-4.6,13.1-6.3c8.8-2.3,32.3-2.7,40.2,2.6l0.4,0.3l-4.1,13.9c-1.2,3.7-2,7.5-2.3,11.3l-2.2,24.5l-0.3,0.2
						C147.3,126.5,141.1,130.5,129.3,130.5z M110.6,126.1c21.6,6.6,34.1,0.3,36.1-0.8l2.2-23.8c0.4-3.9,1.1-7.8,2.4-11.6L155,77
						c-7.7-4.7-30.1-4.4-38.6-2.2c-5.3,1.4-10.7,4.7-12.2,5.8l2.8,8.7c1.5,4.6,2.4,9.4,2.6,14.3L110.6,126.1z"/>
				</g>
			</g>
			<g>
				<g>
					<path class="st3" d="M136.8,62.2l-1.5,12.4l4,1.2c1.4,0.4,1.5,2.4,0.1,2.9c-3.8,1.5-10.3,2.8-17.8-0.3c-1.3-0.5-1.4-2.4-0.1-3
						l3.1-1.6l3.7-14.3L136.8,62.2z"/>
					<path class="st4" d="M130.9,81c-2.9,0-6.1-0.5-9.6-2c-0.9-0.4-1.4-1.2-1.5-2.1c0-0.9,0.5-1.8,1.3-2.2l2.8-1.4l3.7-14
						c0-0.2,0.2-0.3,0.3-0.4c0.2-0.1,0.4-0.1,0.6-0.1l8.5,2.8c0.3,0.1,0.5,0.4,0.5,0.8l-1.4,11.8l3.5,1.1c0.9,0.3,1.5,1.1,1.6,2.1
						c0,1-0.5,1.8-1.4,2.2C137.4,80.3,134.4,81,130.9,81z M128.8,60.4L125.2,74c-0.1,0.2-0.2,0.4-0.4,0.4l-3.1,1.6
						c-0.3,0.2-0.5,0.5-0.5,0.9c0,0.4,0.2,0.7,0.6,0.9c7.2,3,13.4,1.8,17.3,0.3c0.5-0.2,0.5-0.7,0.5-0.8c0-0.1-0.1-0.6-0.6-0.8
						l-4-1.2c-0.3-0.1-0.5-0.4-0.5-0.8l1.4-11.8L128.8,60.4z"/>
				</g>
				<g>
					<path class="st3" d="M125.5,61.1c0,0-3.8-0.4-4.1-3.4c-0.4-4.7,3.4-3.7,3.4-3.7s-0.3-4.1,5-3.5c3.3,0.4,6.1,0.8,7.9,1
						c1.3,0.2,2.3,1.2,2.5,2.5c0.4,2.5,0.8,6.8,0.2,10.3c-0.5,3.1-1.8,5.6-4.8,5.3C127.6,68.8,125.5,61.1,125.5,61.1L125.5,61.1z"/>
					<path class="st4" d="M136.2,70.3c-0.2,0-0.4,0-0.6,0c-7.3-0.8-10-6.8-10.6-8.5c-1.6-0.3-4-1.4-4.3-4c-0.2-1.8,0.2-3.1,1.1-3.8
						c0.7-0.6,1.6-0.7,2.3-0.7c0.1-0.6,0.4-1.5,1.1-2.3c1-1,2.6-1.4,4.6-1.2c3.4,0.4,6.2,0.8,8,1c1.6,0.3,2.8,1.5,3.1,3.1
						c0.4,2.9,0.8,7.1,0.2,10.5C140.4,69.2,138.1,70.3,136.2,70.3z M126.2,60.9c0.1,0.3,2.1,7.2,9.6,8c0.8,0.1,3.2,0.3,4-4.7
						c0.5-3.4,0.1-7.8-0.2-10.1c-0.1-1-0.9-1.8-1.9-1.9c-1.8-0.3-4.6-0.7-7.9-1c-1.6-0.2-2.8,0.1-3.5,0.8c-0.8,0.8-0.8,2-0.8,2
						c0,0.2-0.1,0.4-0.3,0.6c-0.2,0.1-0.4,0.2-0.6,0.1c0,0-1.2-0.3-1.9,0.3c-0.7,0.6-0.7,1.7-0.6,2.6c0.2,2.5,3.4,2.8,3.4,2.8
						C125.9,60.5,126.1,60.7,126.2,60.9z"/>
				</g>
			</g>
		</g>
		<g>
			<path class="st3" d="M177.5,173.3c0,0-2.1-9.6-6.6-13c-4-3-3.2,2-1.4,4.8c0.3,0.5,0.6,1,0.7,1.4c0.4,1.1-0.9,2.1-1.9,1.3
				c-3.8-3.1-11.8-9.3-12.8-8.4c-1.1,0.9-0.1,3.6,2.7,6.5c0.7,0.7,1,1.6,0.9,2.5c-0.2,1.9-0.2,5.1,2.2,7c3,2.6,10.8,5.3,10.8,5.3
				s8.3,11.8,27.5,22.8c10.4,6,13.1-2.1,14.8-10.2c2.5-11.5-13.7-8.1-13.7-8.1S191.5,186.4,177.5,173.3z"/>
			<path class="st4" d="M205.8,206.3c-1.9,0-4.1-0.7-6.6-2.2c-17.8-10.2-26.4-21.3-27.6-22.9c-1.3-0.5-8-2.9-10.8-5.3
				c-2.6-2.2-2.6-5.7-2.4-7.6c0.1-0.7-0.2-1.4-0.7-2c-2.1-2.2-3.4-4.4-3.3-6c0-0.6,0.3-1.1,0.7-1.5c0.6-0.5,1.6-1.4,13.7,8.4
				c0.3,0.2,0.5,0.1,0.6,0c0.1-0.1,0.3-0.2,0.2-0.6c-0.2-0.4-0.4-0.9-0.7-1.3c-1.2-1.9-2.2-5.2-1-6.4c0.7-0.7,1.9-0.5,3.4,0.7
				c4.3,3.2,6.5,11.7,6.8,13.2c13.1,12.3,21.9,11.8,22.4,11.7c0.7-0.2,9.2-1.8,13,2c1.6,1.6,2.1,4,1.5,7c-1.1,5-2.6,10.5-6.5,12.2
				C207.7,206.1,206.8,206.3,205.8,206.3z M155.9,160c-0.1,0.1-0.1,0.2-0.1,0.4c0,0.9,0.7,2.7,2.9,5c0.8,0.8,1.2,2,1.1,3.1
				c-0.2,1.6-0.2,4.6,1.9,6.4c2.9,2.5,10.5,5.1,10.6,5.2c0.1,0,0.3,0.1,0.3,0.3c0.1,0.1,8.5,11.8,27.2,22.6c3.3,1.9,6,2.4,8.1,1.5
				c3.2-1.4,4.6-6.2,5.7-11.2c0.5-2.5,0.2-4.4-1.1-5.7c-3.3-3.3-11.7-1.6-11.7-1.6c0,0,0,0-0.1,0c-0.4,0-9.7,1-23.7-12.3
				c-0.1-0.1-0.2-0.2-0.2-0.4c0-0.1-2.1-9.4-6.3-12.5c-1.2-0.9-1.6-0.8-1.6-0.8c-0.4,0.3,0,2.6,1.2,4.6c0.3,0.5,0.6,1,0.8,1.6
				c0.3,0.8,0,1.7-0.7,2.2c-0.7,0.5-1.6,0.5-2.3-0.1C160.1,162,156.7,160.2,155.9,160z"/>
		</g>
	</g>
	<g>
		<ellipse transform="matrix(0.4859 -0.874 0.874 0.4859 156.7517 400.9874)" class="st3" cx="419.2" cy="67.2" rx="24.8" ry="24"/>
		<path class="st4" d="M418.6,92.5c-0.6,0-1.3,0-1.9-0.1c-6.5-0.5-12.4-3.6-16.6-8.6c-4.3-5.2-6.3-11.8-5.6-18.6
			c0.3-3,1.1-5.9,2.4-8.6c0.2-0.4,0.6-0.5,0.9-0.3c0.4,0.2,0.5,0.6,0.3,0.9c-1.2,2.6-2,5.3-2.3,8.1c-0.7,6.5,1.2,12.7,5.3,17.6
			c3.9,4.7,9.5,7.6,15.6,8.1c12.9,1,24.5-8.9,25.8-22c0.7-6.5-1.2-12.7-5.3-17.6c-3.9-4.7-9.5-7.6-15.6-8.1
			c-5.8-0.5-11.6,1.3-16.3,5c-0.3,0.2-0.7,0.2-1-0.1c-0.2-0.3-0.2-0.7,0.1-1c5-3.9,11.1-5.7,17.3-5.2c6.5,0.5,12.4,3.6,16.6,8.6
			c4.3,5.2,6.3,11.8,5.6,18.6C442.7,82.4,431.5,92.5,418.6,92.5z"/>
		<g>
			<path class="st1" d="M416.3,81.7l0.3-3.4c-2.3-0.3-4.6-1.1-5.8-2l1.5-4.1c1.4,0.9,3.4,1.9,5.7,2c2,0.2,3.5-0.5,3.6-2
				c0.1-1.4-0.9-2.3-3.4-3.4c-3.6-1.6-6-3.6-5.7-7c0.3-3.2,2.7-5.5,6.6-5.9l0.3-3.4l3.4,0.3l-0.3,3.2c2.3,0.3,3.9,0.9,5,1.6l-1.4,4
				c-0.9-0.5-2.4-1.4-4.9-1.6c-2.3-0.2-3.1,0.8-3.2,1.8c-0.1,1.2,1,2,3.9,3.4c4,1.8,5.5,3.9,5.2,7.2c-0.3,3.2-2.8,5.7-6.9,6.1
				l-0.4,3.7L416.3,81.7z"/>
		</g>
	</g>
	<g>
		<ellipse transform="matrix(0.9877 -0.1563 0.1563 0.9877 -0.3975 55.8462)" class="st3" cx="355" cy="30.5" rx="24" ry="24.8"/>
		<path class="st4" d="M355.3,55.9c-1.7,0-3.4-0.2-5.1-0.5C343.6,54,338,50,334.3,44.2c-1.6-2.5-2.8-5.3-3.4-8.2
			c-0.1-0.4,0.2-0.8,0.5-0.8c0.4-0.1,0.8,0.2,0.8,0.5c0.6,2.8,1.7,5.4,3.2,7.8c3.5,5.5,8.8,9.2,15,10.6c6,1.3,12.2,0.1,17.3-3.3
			c10.8-7.2,13.8-22.1,6.7-33.2c-3.5-5.5-8.8-9.2-15-10.6c-6-1.3-12.2-0.1-17.3,3.3c-4.9,3.2-8.3,8.2-9.8,14
			c-0.1,0.4-0.5,0.6-0.9,0.5c-0.4-0.1-0.6-0.5-0.5-0.9c1.5-6.1,5.2-11.4,10.4-14.8c5.5-3.6,12-4.9,18.4-3.5
			c6.6,1.4,12.2,5.4,15.9,11.2c7.5,11.8,4.3,27.6-7.1,35.1C364.5,54.5,360,55.9,355.3,55.9z"/>
		<g>
			<path class="st1" d="M361.6,43.6l-1.8-2.9c-2,1.2-4.3,1.9-5.8,2l-1.4-4.1c1.7-0.1,3.8-0.6,5.7-1.9c1.7-1.1,2.4-2.5,1.6-3.8
				c-0.7-1.2-2.1-1.3-4.8-0.6c-3.8,1-6.9,0.9-8.8-2.1c-1.7-2.7-1.2-6,1.5-8.7l-1.8-2.9l2.9-1.9l1.7,2.7c2-1.2,3.6-1.7,4.9-1.8l1.3,4
				c-1,0.2-2.8,0.4-4.9,1.8c-1.9,1.3-2,2.5-1.4,3.4c0.6,1,2.1,1,5.2,0.3c4.3-1,6.8-0.3,8.5,2.4c1.7,2.7,1.3,6.2-1.7,9.1l2,3.1
				L361.6,43.6z"/>
		</g>
	</g>
	<g>
		
			<ellipse transform="matrix(0.2582 -0.9661 0.9661 0.2582 -127.9509 221.0319)" class="st3" cx="80" cy="193.8" rx="24.8" ry="24"/>
		<path class="st4" d="M79.5,219.3c-5,0-9.9-1.6-14.1-4.6c-5.4-4-9-9.9-10-16.7c-0.4-3-0.4-6,0.2-8.9c0.1-0.4,0.4-0.6,0.8-0.6
			c0.4,0.1,0.6,0.4,0.6,0.8c-0.6,2.8-0.6,5.6-0.2,8.4c0.9,6.4,4.3,12,9.4,15.7c5,3.6,11.1,5,17.1,4c12.7-2.2,21.6-14.6,19.6-27.6
			c-0.9-6.4-4.3-12-9.4-15.7c-5-3.6-11.1-5-17.1-4c-5.8,1-11,4.1-14.6,8.8c-0.2,0.3-0.7,0.4-1,0.1c-0.3-0.2-0.4-0.7-0.1-1
			c3.9-5,9.4-8.3,15.5-9.3c6.5-1.1,12.9,0.4,18.2,4.3c5.4,4,9,9.9,10,16.7c2,13.8-7.3,26.9-20.8,29.2
			C82.3,219.1,80.9,219.3,79.5,219.3z"/>
		<g>
			<path class="st1" d="M80.7,208.5l-0.5-3.4c-2.3,0.3-4.7,0-6.1-0.5l0.4-4.3c1.6,0.6,3.7,1,6,0.6c2-0.3,3.2-1.4,3-2.8
				c-0.2-1.4-1.4-2-4.1-2.5c-3.9-0.6-6.7-2-7.2-5.5c-0.5-3.1,1.3-6,4.9-7.3l-0.5-3.4l3.4-0.6l0.5,3.1c2.3-0.3,4-0.1,5.2,0.3
				l-0.4,4.2c-1-0.2-2.7-0.8-5.2-0.4c-2.3,0.4-2.8,1.5-2.7,2.5c0.2,1.2,1.5,1.7,4.6,2.4c4.4,0.8,6.3,2.5,6.8,5.7
				c0.5,3.2-1.3,6.2-5.2,7.6l0.5,3.6L80.7,208.5z"/>
		</g>
	</g>
	<g>
		<g>
			<g>
				<g>
					<path class="st3" d="M340.3,362.5c0,0,2.9,10.1,0.1,15l-0.8,2l16.6-4.3l-1.2-1.7c-2.1-3-3.4-6.4-3.9-9.9L340.3,362.5z"/>
					<path class="st4" d="M338.5,380.5l1.3-3.4c2.6-4.5-0.2-14.3-0.2-14.4l-0.3-1l12.6,1.3l0.1,0.6c0.4,3.4,1.7,6.7,3.7,9.5l1.8,2.5
						L338.5,380.5z M341,377.7l-0.3,0.7l14.3-3.7l-0.6-0.8c-2.1-2.9-3.4-6.2-3.9-9.6l-9.4-1C341.9,366,343.4,373.6,341,377.7z"/>
				</g>
				<g>
					<g>
						<path class="st1" d="M360,379.8l-2.8,1.5c-4.9,2.6-10.3,4.1-15.9,4.5h0c-0.8,0.1-1.4-0.7-1.2-1.4l0.4-1.5
							c0.2-0.8-0.7-1.5-1.4-1.1l-1.4,0.8c-4.2,2.2-9.1,2.7-13.6,1.2l-0.9-0.3l-0.1-0.1l2.3-1.1c4.7-2.2,8.8-5.5,11.9-9.7l1.6-2.1
							c0.4-0.6,1.2-0.6,1.8-0.2l4.4,4c1.7,1.6,4.4,1.4,6-0.3l3.5-3.9c0.4-0.4,1-0.4,1.4,0c2,2.3,3.4,6.1,4.2,9.5L360,379.8z"/>
						<path class="st4" d="M341.2,386.4c-0.5,0-1.1-0.2-1.4-0.7c-0.4-0.5-0.5-1.1-0.4-1.6l0.4-1.5c0-0.2,0-0.2-0.1-0.3
							c-0.1,0-0.2-0.1-0.3,0L338,383c-4.3,2.3-9.5,2.8-14.2,1.2l-0.9-0.3c-0.1,0-0.1-0.1-0.2-0.1l-0.1-0.1c-0.2-0.1-0.3-0.4-0.3-0.6
							c0-0.3,0.2-0.5,0.4-0.6l2.3-1.1c4.6-2.1,8.6-5.4,11.7-9.4l1.6-2.1c0.3-0.4,0.8-0.7,1.3-0.7c0.5,0,1.1,0.1,1.5,0.5l4.4,4
							c0.7,0.6,1.6,1,2.5,0.9c0.9,0,1.8-0.5,2.4-1.2l3.5-3.9c0.3-0.3,0.7-0.5,1.2-0.5c0,0,0,0,0,0c0.5,0,0.9,0.2,1.2,0.5
							c1.8,2,3.2,5.3,4.3,9.8c0.1,0.3-0.1,0.6-0.3,0.8c-0.1,0.1-0.1,0.1-0.2,0.1l-2.8,1.5c-5,2.6-10.5,4.2-16.2,4.5
							C341.3,386.4,341.2,386.4,341.2,386.4z M339.5,380.8c0.4,0,0.7,0.1,1,0.4c0.5,0.4,0.8,1.1,0.6,1.8l-0.4,1.5
							c-0.1,0.2,0,0.3,0.1,0.4c0,0.1,0.2,0.2,0.4,0.2c5.5-0.4,10.7-1.8,15.6-4.4l2.5-1.3c-1-4-2.4-7-3.9-8.7
							c-0.1-0.1-0.1-0.1-0.2-0.1c0,0,0,0,0,0c-0.1,0-0.1,0-0.1,0.1l-3.5,3.9c-0.9,1-2.1,1.5-3.4,1.6c-1.3,0.1-2.6-0.4-3.6-1.3
							l-4.4-4c-0.1-0.1-0.3-0.1-0.4-0.1c-0.1,0-0.2,0-0.4,0.2l-1.6,2.1c-3.2,4.2-7.4,7.6-12.2,9.9l-0.7,0.3
							c4.1,1.1,8.6,0.7,12.3-1.4l1.4-0.8C339,380.9,339.3,380.8,339.5,380.8z"/>
					</g>
					<g>
						<path class="st3" d="M360,379.8l-2.8,1.5c-4.9,2.6-10.3,4.1-15.9,4.5h0c-0.8,0.1-1.4-0.7-1.2-1.4l0.4-1.5
							c0.2-0.8-0.7-1.5-1.4-1.1l-1.4,0.8c-4.2,2.2-9.1,2.7-13.6,1.2l-0.9-0.3l-0.1-0.1l-1.3,0.6c-0.3,0.2-0.6,0.5-0.6,0.9l0,0.2
							c-0.3,2.1,2.4,6.7,10.2,7.7c4.8,0.6,15.8,0.4,28.7-5.7c0.8-0.4,1.3-1.3,1.1-2.1c-0.2-1.2-0.5-3.1-1-5.1L360,379.8z"/>
						<path class="st4" d="M335.4,393.5c-2.1,0-3.5-0.2-4.2-0.2c-5.8-0.8-8.4-3.3-9.5-4.8c-0.9-1.3-1.4-2.6-1.2-3.7l0-0.2
							c0.1-0.6,0.5-1.1,1-1.4l1.7-0.8l0.3,0.2l0.8,0.2c4.3,1.4,9.1,1,13.1-1.1l1.4-0.8c0.6-0.3,1.3-0.3,1.8,0.2
							c0.5,0.4,0.8,1.1,0.6,1.8l-0.4,1.5c-0.1,0.2,0,0.3,0.1,0.4c0,0.1,0.2,0.2,0.4,0.2c5.5-0.4,10.7-1.8,15.6-4.4l2.8-1.5l0.3,0.6
							l0.9-0.2c0.5,2.1,0.8,3.9,1,5.1c0.2,1.2-0.4,2.4-1.5,2.9C349.6,392.6,340.5,393.5,335.4,393.5z M323.1,384l-1,0.5
							c-0.1,0.1-0.2,0.2-0.3,0.3l0,0.2c-0.1,0.5,0.1,1.5,1,2.6c1,1.3,3.4,3.5,8.6,4.2c2.1,0.3,13.6,1.3,28.3-5.7
							c0.5-0.3,0.8-0.8,0.8-1.4c-0.1-1-0.4-2.5-0.8-4.1l-2.2,1.1c-5,2.6-10.5,4.2-16.2,4.5c-0.6,0-1.2-0.2-1.5-0.7
							c-0.4-0.5-0.5-1.1-0.4-1.6l0.4-1.5c0-0.2,0-0.2-0.1-0.3c-0.1,0-0.2-0.1-0.3,0L338,383c-4.3,2.3-9.5,2.8-14.2,1.2L323.1,384z"
							/>
					</g>
					<path class="st4" d="M335.4,393.5c-2.1,0-3.5-0.2-4.2-0.2c-5.8-0.8-8.4-3.3-9.5-4.8c-0.9-1.3-1.4-2.6-1.2-3.7l0-0.2
						c0.1-0.6,0.5-1.1,1-1.4l3.6-1.7c4.6-2.1,8.6-5.4,11.7-9.4l1.6-2.1c0.3-0.4,0.8-0.7,1.3-0.7c0.5,0,1.1,0.1,1.5,0.5l4.4,4
						c0.7,0.6,1.6,1,2.5,0.9c0.9,0,1.8-0.5,2.4-1.2l3.5-3.9c0.3-0.3,0.7-0.5,1.2-0.5c0,0,0,0,0,0c0.5,0,0.9,0.2,1.2,0.5
						c3.4,3.8,4.9,11.7,5.3,14.9c0.2,1.2-0.4,2.4-1.5,2.9C349.6,392.6,340.5,393.5,335.4,393.5z M339.5,370.8l-1.6,2.1
						c-3.2,4.2-7.4,7.6-12.2,9.9l-3.6,1.7c-0.1,0.1-0.2,0.2-0.3,0.3l0,0.2c-0.1,0.5,0.1,1.5,1,2.6c1,1.3,3.4,3.5,8.6,4.2
						c2.1,0.3,13.6,1.3,28.3-5.7c0.5-0.3,0.8-0.8,0.8-1.4c-0.5-3.1-1.9-10.7-5-14.2c-0.1-0.1-0.1-0.1-0.2-0.1c0,0,0,0,0,0
						c-0.1,0-0.1,0-0.1,0.1l-3.5,3.9c-0.9,1-2.1,1.5-3.4,1.6c-1.3,0.1-2.6-0.4-3.6-1.3l-4.4-4c-0.1-0.1-0.3-0.1-0.4-0.1
						C339.8,370.6,339.6,370.7,339.5,370.8L339.5,370.8z"/>
				</g>
			</g>
			<g>
				<g>
					<path class="st3" d="M392.6,339.9c0,0,6.7,8.2,6.5,13.7l0.2,2.1l8.6-4.7l4.1-7.9l-1.9-0.7c-3-1.9-6.2-2.9-8-6L392.6,339.9z"/>
					<path class="st4" d="M398.8,356.9l-0.3-3.2l0,0c0.2-5.2-6.3-13.2-6.3-13.2l-0.6-0.8l11-4l0.3,0.5c1.3,2.1,3.3,3.3,5.5,4.4
						c0.7,0.4,1.5,0.8,2.2,1.3l2.6,0.9l-4.6,8.8L398.8,356.9z M399.9,353.6l0.1,1l7.5-4.1l3.6-7l-1.3-0.5c-0.7-0.5-1.5-0.9-2.2-1.3
						c-2.2-1.2-4.2-2.3-5.7-4.5l-8.1,2.9C395.5,342.4,400,348.8,399.9,353.6z"/>
				</g>
				<g>
					<g>
						<path class="st1" d="M418.4,343l-1,3c-1.7,5.3-4.6,10.1-8.3,14.3l0,0c-0.5,0.6-1.5,0.5-1.8-0.2l-0.8-1.4
							c-0.4-0.7-1.5-0.6-1.8,0.2l-0.5,1.5c-1.4,4.5-4.7,8.3-8.9,10.3l-0.8,0.4l-0.1,0l0.9-2.4c1.8-4.9,2.5-10.1,1.8-15.2l-0.3-2.6
							c-0.1-0.7,0.4-1.3,1.2-1.3l6-0.2c2.3-0.1,4.2-2,4.1-4.4l-0.2-5.2c0-0.5,0.4-1,1-0.9c3,0.2,6.7,2.1,9.6,3.9L418.4,343z"/>
						<path class="st4" d="M394.3,371.9c-0.2,0-0.4-0.1-0.5-0.3c-0.2-0.2-0.2-0.5-0.1-0.7l0.9-2.4c1.8-4.7,2.4-9.9,1.8-14.9
							l-0.3-2.6c-0.1-0.5,0.1-1.1,0.4-1.5c0.3-0.4,0.9-0.6,1.4-0.7l6-0.2c0.9,0,1.8-0.4,2.5-1.1c0.6-0.7,1-1.6,0.9-2.5l-0.2-5.2
							c0-0.5,0.2-0.9,0.5-1.2c0.3-0.3,0.8-0.5,1.2-0.5c2.7,0.2,6,1.5,10,4c0.3,0.2,0.4,0.5,0.3,0.8c0,0.1,0,0.1,0,0.2l-1,3
							c-1.8,5.4-4.6,10.3-8.4,14.5c-0.4,0.4-1,0.7-1.6,0.6c-0.6-0.1-1.1-0.4-1.4-0.9l-0.8-1.4c-0.1-0.1-0.2-0.1-0.3-0.1
							c-0.1,0-0.2,0-0.2,0.2l-0.5,1.5c-1.5,4.7-4.9,8.6-9.3,10.8l-0.8,0.4c-0.1,0-0.1,0-0.2,0.1l-0.1,0
							C394.4,371.9,394.4,371.9,394.3,371.9z M408.7,339.6c-0.1,0-0.1,0-0.2,0.1c0,0-0.1,0.1-0.1,0.1l0.2,5.2c0,1.3-0.4,2.6-1.3,3.5
							c-0.9,1-2.1,1.5-3.4,1.6l-6,0.2c-0.2,0-0.3,0.1-0.4,0.2c-0.1,0.1-0.1,0.2-0.1,0.4l0.3,2.6c0.6,5.2,0,10.6-1.9,15.6l-0.3,0.7
							c3.7-2,6.6-5.5,7.9-9.6l0.5-1.5c0.2-0.6,0.8-1.1,1.4-1.2c0.7-0.1,1.3,0.3,1.6,0.8l0.8,1.4c0.1,0.2,0.3,0.2,0.3,0.2
							c0.1,0,0.2,0,0.4-0.1c3.7-4.1,6.4-8.8,8.1-14l0.9-2.7C414.1,341,411,339.8,408.7,339.6C408.7,339.6,408.7,339.6,408.7,339.6z"
							/>
					</g>
					<g>
						<path class="st3" d="M418.4,343l-1,3c-1.7,5.3-4.6,10.1-8.3,14.3l0,0c-0.5,0.6-1.5,0.5-1.8-0.2l-0.8-1.4
							c-0.4-0.7-1.5-0.6-1.8,0.2l-0.5,1.5c-1.4,4.5-4.7,8.3-8.9,10.3l-0.8,0.4l-0.1,0l-0.5,1.3c-0.1,0.4-0.1,0.8,0.1,1.1l0.1,0.2
							c1.2,1.8,6.4,3.1,12.6-1.6c3.9-2.9,11.6-10.7,16.6-24.1c0.3-0.8,0-1.8-0.7-2.3c-1-0.7-2.5-1.8-4.2-3L418.4,343z"/>
						<path class="st4" d="M398.4,376.1c-0.6,0-1.1,0-1.5-0.1c-1.6-0.3-2.8-0.9-3.5-1.8l-0.1-0.2c-0.4-0.5-0.4-1.1-0.2-1.7l0.7-1.7
							l0.4-0.1l0.7-0.3c4.1-2,7.2-5.6,8.6-9.9l0.5-1.5c0.2-0.6,0.8-1.1,1.4-1.2c0.7-0.1,1.3,0.3,1.6,0.8l0.8,1.4
							c0.1,0.2,0.3,0.2,0.3,0.2c0.1,0,0.2,0,0.4-0.1c3.7-4.1,6.4-8.8,8.1-14l1-3l0.6,0.2l0.5-0.8c1.8,1.1,3.3,2.2,4.3,3
							c1,0.7,1.3,2,0.9,3.1c-5.8,15.6-15,23.1-16.8,24.4C403.5,375.5,400.4,376.1,398.4,376.1z M394.9,371.7l-0.4,1
							c-0.1,0.1,0,0.3,0.1,0.4l0.1,0.2c0.3,0.4,1.1,1,2.5,1.2c1.6,0.3,4.9,0.2,9.1-2.9c1.7-1.3,10.7-8.5,16.3-23.8
							c0.2-0.6,0-1.2-0.4-1.5c-0.8-0.6-2-1.5-3.4-2.4l-0.8,2.3c-1.8,5.4-4.6,10.3-8.4,14.5c-0.4,0.4-1,0.7-1.6,0.6
							c-0.6-0.1-1.1-0.4-1.4-0.9l-0.8-1.4c-0.1-0.1-0.2-0.1-0.3-0.1c-0.1,0-0.2,0-0.2,0.2l-0.5,1.5c-1.5,4.7-4.9,8.6-9.3,10.8
							L394.9,371.7z"/>
					</g>
					<path class="st4" d="M398.4,376.1c-0.6,0-1.1,0-1.5-0.1c-1.6-0.3-2.8-0.9-3.5-1.8l-0.1-0.2c-0.4-0.5-0.4-1.1-0.2-1.7l1.4-3.7
						c1.8-4.7,2.4-9.9,1.8-14.9l-0.3-2.6c-0.1-0.5,0.1-1.1,0.4-1.5c0.3-0.4,0.9-0.6,1.4-0.7l6-0.2c0.9,0,1.8-0.4,2.5-1.1
						c0.6-0.7,1-1.6,0.9-2.5l-0.2-5.2c0-0.5,0.2-0.9,0.5-1.2c0.3-0.3,0.8-0.5,1.2-0.5c5.1,0.3,11.6,5,14.2,7c1,0.7,1.3,2,0.9,3.1
						c-5.8,15.6-15,23.1-16.8,24.4C403.5,375.5,400.4,376.1,398.4,376.1z M397.5,350.9l0.3,2.6c0.6,5.2,0,10.6-1.9,15.6l-1.4,3.7
						c-0.1,0.1,0,0.3,0.1,0.4l0.1,0.2c0.3,0.4,1.1,1,2.5,1.2c1.6,0.3,4.9,0.2,9.1-2.9c1.7-1.3,10.7-8.5,16.3-23.8
						c0.2-0.6,0-1.2-0.4-1.5c-2.5-1.9-8.8-6.4-13.5-6.7c-0.1,0-0.1,0-0.2,0.1c0,0-0.1,0.1-0.1,0.1l0.2,5.2c0,1.3-0.4,2.6-1.3,3.5
						c-0.9,1-2.1,1.5-3.4,1.6l-6,0.2c-0.2,0-0.3,0.1-0.4,0.2C397.5,350.5,397.4,350.7,397.5,350.9L397.5,350.9z"/>
				</g>
			</g>
			<g>
				<path class="st4" d="M363.9,215.4L320,218c0,0-16.2,42.8-2.9,93.1c7.7,29.2,19.2,46.5,21.6,51.9c0.6,1.5,2.1,2.4,3.7,2.4
					l7.5-0.2c2.2-0.1,3.9-1.9,3.8-4.2c-1-17.1-13.3-70.6-12.1-80.4c0,0,4.2,20.6,28.6,44.9c6.3,6.3,13.6,15,23.4,19.8
					c1.2,0.6,2.7,0.3,3.6-0.7l5.3-6c0.8-1,1-2.4,0.4-3.5C395.9,323.2,364.4,268.9,363.9,215.4z"/>
				<path class="st3" d="M342.3,286.7c-0.3,0-0.6-0.2-0.7-0.5c0-0.1-3.1-10.5-4.7-23.6c-0.4-3.6-2-7-4.5-9.5c-0.3-0.3-0.3-0.7,0-1
					c0.3-0.3,0.7-0.3,1,0c2.6,2.8,4.4,6.4,4.8,10.3c1.6,13,4.6,23.3,4.6,23.4c0.1,0.4-0.1,0.8-0.5,0.9
					C342.4,286.6,342.4,286.7,342.3,286.7z"/>
			</g>
		</g>
		<path class="st4" d="M436.2,151.1c2-0.2,3.8-0.9,5.2-2.2c2-1.9,3.8-5.5,1.8-11.7c-4.4-14.1-18.3-11.8-22.7-14.5
			c-9.9-6-6.1-10.5-9.2-16.7c-2.3-4.6-11.7-14.8-32-6.2c0,0-9.9,7.2-17.7,1.3c-9.5-7.3-33.3-3.2-30.2,13.3c0.9,4.8,3.6,9,7.4,11.9
			c0.7,0.5,1.5,1.1,2.3,1.6c2.5,1.5,4,4.2,4,7.2c0,9.5,3.9,29,38.7,20c2.6-0.7,5.4-0.1,7.5,1.5c2.6,2,4.6,7.6,19.2,9.4
			c9.4,1.2,14.6-7.5,18-11.1C431.4,152,434.5,151.3,436.2,151.1z"/>
		<g>
			<g>
				<path class="st3" d="M271.4,112.5c0.3-0.5,1.1-0.4,1.3,0.1c1,2.1,2.2,3,3.1,3.5c0.7,0.4,1.6,0.2,2-0.5c2-3.2-1.2-10.3-0.4-10.9
					c0.9-0.7,4.8,2.6,6,7c0.9,3.4-1.4,7.5-2.4,9.2c-0.8,1.3-0.7,4-0.7,4s2,10.6,9.8,20.6c3.5,4.5,11.8,6.9,25.8,6.7
					c6.1,7-1.2,17.4-1.2,17.4s-26.2,0.2-31.8-8.6c-8.2-12.8-8.1-30.5-8.6-35c-0.1-1-0.5-3.3-1.3-4.2c-1-1.1-2.2-3.3-2.3-5.7
					C270.6,114.3,271,113.1,271.4,112.5z"/>
				<path class="st4" d="M314.7,170.3c-2.5,0-26.7-0.2-32.2-9c-7-11-8-25.4-8.5-32.4c-0.1-1.2-0.2-2.2-0.2-2.9
					c-0.2-1.8-0.7-3.3-1.2-3.8c-1.1-1.2-2.3-3.6-2.5-6.1c-0.1-1.7,0.2-3.1,0.8-4.1l0,0c0.3-0.4,0.8-0.7,1.3-0.6c0.5,0,1,0.3,1.2,0.8
					c1,1.9,2,2.8,2.8,3.2c0.4,0.2,0.9,0.1,1.1-0.3c1.1-1.8,0.3-5.2-0.2-7.5c-0.5-2-0.7-3.1,0-3.6c0.2-0.2,0.7-0.3,1.4-0.1
					c1.7,0.6,4.7,3.6,5.7,7.4c1,3.8-1.6,8.3-2.5,9.8c-0.5,0.9-0.6,2.8-0.6,3.6c0.2,0.8,2.3,10.9,9.7,20.2c3.5,4.4,12,6.6,25.3,6.4
					l0.3,0l0.2,0.2c6.4,7.3-0.8,17.8-1.2,18.3l-0.2,0.3l-0.4,0C314.8,170.3,314.8,170.3,314.7,170.3z M272,112.9
					c-0.3,0.5-0.7,1.5-0.6,3.2c0.2,2.1,1.2,4.2,2.2,5.3c0.9,1,1.3,3.1,1.5,4.6c0.1,0.7,0.2,1.7,0.2,3c0.5,6.8,1.5,21,8.3,31.7
					c5,7.8,27.6,8.3,30.8,8.3c1.1-1.7,6.1-10.2,1.3-16c-13.6,0.1-22.4-2.2-26.1-7c-7.9-10-9.9-20.5-10-20.9l0-0.1c0-0.3,0-3,0.8-4.4
					c2.1-3.6,2.9-6.5,2.3-8.7c-1-3.5-3.7-6.1-4.8-6.5c0,0.5,0.2,1.3,0.4,2c0.6,2.7,1.4,6.3,0,8.6c-0.6,1-1.9,1.3-3,0.7
					c-0.9-0.5-2.2-1.6-3.3-3.8C272.1,112.8,272.1,112.8,272,112.9C272,112.8,272,112.8,272,112.9L272,112.9z"/>
			</g>
			<path class="st1" d="M366.9,149.5c-15.6-5.9-33.2-1.5-39.7-0.9c-10.4,1-19,0.8-23.1,0.6c-1.7-0.1-0.7,21.8-0.7,21.8
				s8.8,2.1,8.7,3.8c0,0,0.8,43.2,7.2,43.2l49.3,1.6l-0.6-2.9c-1.6-7.9-1.8-16.1-0.4-24.1c0.4-2.6,1-5.4,1.7-8.1
				C369.8,182.6,382.5,155.4,366.9,149.5z"/>
			<path class="st4" d="M333,185.1c-0.2,0-0.4-0.1-0.5-0.2c-0.3-0.3-0.3-0.7,0-1c1.6-1.5,4.4-4.6,6.3-8.4c0.2-0.4,0.6-0.5,0.9-0.3
				c0.4,0.2,0.5,0.6,0.3,0.9c-1.9,4.1-4.9,7.3-6.6,8.9C333.4,185,333.2,185.1,333,185.1z"/>
			<g>
				<path class="st3" d="M295.5,168.8c4.8,7.9,23,17.2,27.6,19.4c1.1,0.6,2.5,0.7,3.7,0.4c4-0.9,6.7-3.8,6.7-3.8l19.8,10
					c0,0-22.8,14.3-30.4,13.3c-1.5-0.2-2.9-0.8-4.1-1.8c-4.4-3.6-15.9-13.5-23.7-26.9c-0.6-1-1.9-2.4-3-3c-1.8-1-3.4-2.4-3.4-2.4
					c-1.2-1.2-3.3-4.5-4.8-6.7c-0.9-1.5-2.5-2.4-4.2-2.6l0,0c-0.9-0.1-1.2-1.2-0.5-1.8C282.1,160.5,288.6,157.5,295.5,168.8z"/>
				<path class="st4" d="M323.7,208.8c-0.3,0-0.6,0-0.9-0.1c-1.6-0.2-3.2-0.9-4.5-1.9c-7.1-5.8-16.9-15.2-23.8-27.1
					c-0.6-1-1.8-2.2-2.7-2.7c-1.8-1-3.5-2.5-3.6-2.5l0,0c-1.2-1.2-3.3-4.4-4.9-6.8c-0.8-1.3-2.2-2.1-3.7-2.3
					c-0.7-0.1-1.3-0.6-1.4-1.2c-0.2-0.7,0-1.4,0.6-1.8c1.7-1.3,4.3-2.8,7.5-2.2c3.5,0.6,6.7,3.4,9.7,8.4l0,0
					c5,8.2,25.1,18.1,27.3,19.2c1,0.5,2.2,0.6,3.2,0.4c3.8-0.9,6.3-3.6,6.4-3.6l0.4-0.4l21.4,10.8l-1.1,0.7
					C352.8,196,332.1,208.8,323.7,208.8z M289.2,173.5c0.2,0.2,1.7,1.5,3.3,2.3c1.1,0.6,2.6,2.1,3.3,3.3c6.8,11.7,16.5,21,23.5,26.7
					c1.1,0.9,2.4,1.5,3.8,1.6c6.3,0.8,24.3-9.7,28.9-12.5l-18.2-9.2c-0.9,0.8-3.4,2.9-6.7,3.6c-1.4,0.3-2.9,0.1-4.2-0.5
					c-3.8-1.8-22.8-11.3-27.9-19.7c-2.8-4.6-5.7-7.2-8.8-7.7c-2.7-0.5-5,0.8-6.4,1.9c-0.1,0.1-0.1,0.3-0.1,0.3
					c0,0.1,0.1,0.2,0.3,0.2c1.9,0.2,3.6,1.3,4.7,2.9C286.7,170.2,288.3,172.5,289.2,173.5z"/>
			</g>
			<path class="st4" d="M358.8,198c-0.5,0-1.8-0.6-6.9-3.1c-0.3-0.2-0.5-0.6-0.3-0.9c0.2-0.3,0.6-0.5,0.9-0.3
				c2.5,1.2,5.2,2.6,6.1,2.9c1.1-0.9,4.6-4.4,7.8-9.2c0.2-0.3,0.7-0.4,1-0.2c0.3,0.2,0.4,0.7,0.2,1c-3.7,5.5-7.6,9.2-8.4,9.8
				C359.1,198,359,198,358.8,198z"/>
		</g>
		<g>
			<g>
				<path class="st3" d="M349.5,120.4c-0.5,0.1-1.2,0.4-2.1,0.6c-0.4,0.1-5.1,1.2-6-6.8c-0.1-0.9-2.2-1.2-4.2,1.2
					c-1.7,2.1-1.5,3.8-5.3,6c-0.4,0.2-0.3,0.8-0.1,1.1l1.1,2c0.3,0.4,0.2,1.4,0.1,1.9c-0.4,1.4-1.3,4.3-1,4.9
					c0.6,1.1,5.3,2.5,5.3,2.5l-0.8,12.1c-0.5,2.6-6.2,3.4-5,4.4c3.8,3.3,9,3,10.6,2.9c4.6-0.2,9.2-1.7,11.5-2.5
					c0.6-0.2,0.7-1,0.2-1.4c-1.5-1.1-3.9-2.9-4.2-4.4c-1.3-6.2-1.8-7.5-0.4-15.9c0.2-1.4,1.7-0.7,2.8-3.2
					C353.1,123.3,351.2,120.1,349.5,120.4z"/>
				<path class="st4" d="M340.7,154.1c-2.4,0-6.4-0.4-9.6-3.2c-0.4-0.4-0.4-0.7-0.4-1c0.1-0.7,0.9-1.1,2-1.7
					c1.2-0.6,2.8-1.4,3.1-2.4l0.8-11.5c-1.5-0.5-4.6-1.6-5.2-2.7c-0.4-0.6-0.1-1.9,0.7-4.7c0.1-0.3,0.1-0.5,0.2-0.7
					c0.1-0.4,0.1-1.1,0-1.3l-1.2-2.1c-0.2-0.4-0.3-0.9-0.2-1.3c0.1-0.3,0.3-0.6,0.6-0.8c2.5-1.4,3.1-2.5,3.8-3.8
					c0.3-0.6,0.7-1.3,1.3-2c1.6-2,3.3-2.3,4.3-2.1c0.6,0.2,1,0.6,1.1,1.2c0.3,2.8,1.1,4.7,2.4,5.6c0.8,0.6,1.7,0.7,2.7,0.5
					c0.5-0.1,1-0.3,1.3-0.4c0.3-0.1,0.6-0.2,0.9-0.3l0,0c0.9-0.2,1.9,0.3,2.6,1.3c1,1.2,1.5,3.3,0.7,5.2c-0.7,1.6-1.6,2.1-2.2,2.4
					c-0.5,0.3-0.5,0.3-0.6,0.6c-1.2,8-0.9,9.4,0.3,14.9l0.2,0.8c0.2,0.9,1.7,2.4,3.9,4c0.5,0.3,0.7,0.9,0.6,1.4
					c-0.1,0.6-0.4,1-1,1.2c-2.3,0.9-7,2.3-11.7,2.6l-0.1,0C341.8,154.1,341.3,154.1,340.7,154.1z M332.3,150.1
					c3.5,2.8,8.2,2.6,9.7,2.5l0.1,0c4.5-0.2,9-1.6,11.3-2.5c0,0,0.1,0,0.1-0.1c0-0.1,0-0.1,0-0.1c-2.7-1.9-4.2-3.5-4.5-4.9l-0.2-0.8
					c-1.2-5.7-1.6-7.2-0.3-15.4c0.2-1,0.8-1.3,1.3-1.6c0.5-0.3,1.1-0.6,1.6-1.7c0.6-1.3,0.1-2.9-0.5-3.7c-0.4-0.5-0.9-0.8-1.3-0.7h0
					c-0.2,0-0.4,0.1-0.6,0.2c-0.4,0.1-0.9,0.3-1.5,0.4c-1.4,0.3-2.8,0-3.9-0.8c-1.6-1.2-2.6-3.4-2.9-6.6c0,0-0.1-0.1-0.4-0.1
					c0,0,0,0,0,0c-0.3,0-1.3,0.1-2.5,1.6c-0.5,0.6-0.8,1.2-1.1,1.8c-0.8,1.4-1.5,2.8-4.3,4.3c0,0,0,0.1,0.1,0.2l1.2,2.1
					c0.4,0.6,0.3,1.9,0.2,2.4c-0.1,0.2-0.1,0.5-0.2,0.8c-0.3,0.9-0.9,3.1-0.8,3.6c0.4,0.5,2.8,1.5,4.9,2.2c0.3,0.1,0.5,0.4,0.5,0.7
					l-0.8,12.1c0,0,0,0.1,0,0.1c-0.4,1.7-2.4,2.7-3.9,3.5C333,149.7,332.6,149.9,332.3,150.1z M349.5,120.4L349.5,120.4L349.5,120.4
					z"/>
			</g>
			<g>
				<path class="st3" d="M341.2,134c-1,0.3-2.1,0.2-3.8-0.1L341.2,134z"/>
				<path class="st4" d="M339.7,134.8c-0.7,0-1.5-0.1-2.5-0.3c-0.4-0.1-0.6-0.4-0.6-0.8c0.1-0.4,0.4-0.6,0.8-0.6
					c1.6,0.3,2.6,0.3,3.5,0.1c0.4-0.1,0.8,0.1,0.9,0.5c0.1,0.4-0.1,0.8-0.5,0.9C340.8,134.8,340.3,134.8,339.7,134.8z"/>
			</g>
		</g>
	</g>
	<g>
		<g>
			<path class="st4" d="M100.5,259.4c-0.2,0-0.4-0.1-0.5-0.2l-1.4-1.4c-0.3-0.3-0.3-0.7,0-1c0.3-0.3,0.7-0.3,1,0l1.4,1.4
				c0.3,0.3,0.3,0.7,0,1C100.9,259.4,100.7,259.4,100.5,259.4z"/>
			<path class="st4" d="M107,266c-0.2,0-0.4-0.1-0.5-0.2l-1.4-1.4c-0.3-0.3-0.3-0.7,0-1c0.3-0.3,0.7-0.3,1,0l1.4,1.4
				c0.3,0.3,0.3,0.7,0,1C107.4,266,107.2,266,107,266z"/>
			<path class="st4" d="M99.1,266c-0.2,0-0.4-0.1-0.5-0.2c-0.3-0.3-0.3-0.7,0-1l1.4-1.4c0.3-0.3,0.7-0.3,1,0c0.3,0.3,0.3,0.7,0,1
				l-1.4,1.4C99.5,265.9,99.3,266,99.1,266z"/>
			<path class="st4" d="M105.7,259.4c-0.2,0-0.4-0.1-0.5-0.2c-0.3-0.3-0.3-0.7,0-1l1.4-1.4c0.3-0.3,0.7-0.3,1,0c0.3,0.3,0.3,0.7,0,1
				l-1.4,1.4C106,259.4,105.8,259.4,105.7,259.4z"/>
		</g>
		<g>
			<path class="st4" d="M93.1,239C93.1,239,93.1,239,93.1,239c-0.4,0-0.7-0.3-0.7-0.7l0-1.9c0-0.4,0.3-0.7,0.7-0.7c0,0,0,0,0,0
				c0.4,0,0.7,0.3,0.7,0.7l0,1.9C93.8,238.7,93.5,239,93.1,239z"/>
			<path class="st4" d="M93,248.3C93,248.3,93,248.3,93,248.3c-0.4,0-0.7-0.3-0.7-0.7l0-1.9c0-0.4,0.3-0.7,0.7-0.7c0,0,0,0,0,0
				c0.4,0,0.7,0.3,0.7,0.7l0,1.9C93.7,248,93.4,248.3,93,248.3z"/>
			<path class="st4" d="M87.5,242.7c-0.4,0-0.7-0.3-0.7-0.7c0-0.4,0.3-0.7,0.7-0.7l1.9,0c0,0,0,0,0,0c0.4,0,0.7,0.3,0.7,0.7
				c0,0.4-0.3,0.7-0.7,0.7L87.5,242.7C87.5,242.7,87.5,242.7,87.5,242.7z"/>
			<path class="st4" d="M96.7,242.7c-0.4,0-0.7-0.3-0.7-0.7c0-0.4,0.3-0.7,0.7-0.7l1.9,0h0c0.4,0,0.7,0.3,0.7,0.7
				c0,0.4-0.3,0.7-0.7,0.7L96.7,242.7L96.7,242.7z"/>
		</g>
		<ellipse class="st3" cx="81" cy="288.4" rx="3.6" ry="3.7"/>
	</g>
</g>
</svg>
